<?xml version="1.0" encoding="utf-8"?>
<!-- Generator: Adobe Illustrator 16.0.0, SVG Export Plug-In . SVG Version: 6.00 Build 0)  -->
<!DOCTYPE svg PUBLIC "-//W3C//DTD SVG 1.1//EN" "http://www.w3.org/Graphics/SVG/1.1/DTD/svg11.dtd">
<svg version="1.1" id="Layer_1" xmlns="http://www.w3.org/2000/svg" xmlns:xlink="http://www.w3.org/1999/xlink" x="0px" y="0px"
	 width="555px" height="450px" viewBox="0 0 1400 980" enable-background="new 0 0 1400 980" xml:space="preserve">
<g>
	<g>
		<rect fill="#FFFFFF" width="1400" height="980"/>
	</g>
	<g>
		<rect x="698.7" y="245.4" fill="#FFFFFF" width="330.7" height="452.8"/>
		<path d="M1029.5,700.1H698.7c-1,0-1.9-0.8-1.9-1.9V245.4c0-1,0.8-1.9,1.9-1.9h330.7c1,0,1.9,0.8,1.9,1.9v452.8
			C1031.4,699.3,1030.5,700.1,1029.5,700.1z M700.6,696.3h327v-449h-327V696.3z"/>
	</g>
	<g>
		<rect x="698.7" y="183.3" fill="#FFFFFF" width="330.7" height="62.1"/>
		<path d="M1029.5,247.3H698.7c-1,0-1.9-0.8-1.9-1.9v-62.1c0-1,0.8-1.9,1.9-1.9h330.7c1,0,1.9,0.8,1.9,1.9v62.1
			C1031.4,246.5,1030.5,247.3,1029.5,247.3z M700.6,243.5h327v-58.4h-327V243.5z"/>
	</g>
	<g>
		<rect x="709.9" y="194.6" fill="#58C4F2" width="308.4" height="39.5"/>
	</g>
	<g>
		<path d="M773.1,225.2H720c-1,0-1.9-0.8-1.9-1.9v-17.9c0-1,0.8-1.9,1.9-1.9h53.2c1,0,1.9,0.8,1.9,1.9v17.9
			C775,224.3,774.2,225.2,773.1,225.2z M721.8,221.4h49.4v-14.1h-49.4V221.4z"/>
	</g>
	<g>
		<g>
			<path d="M1008,225.7c-0.5,0-1-0.2-1.3-0.6l-18.8-18.8c-0.7-0.7-0.7-1.9,0-2.7s1.9-0.7,2.7,0l18.8,18.8c0.7,0.7,0.7,1.9,0,2.7
				C1009,225.5,1008.5,225.7,1008,225.7z"/>
		</g>
		<g>
			<path d="M989.2,225.7c-0.5,0-1-0.2-1.3-0.6c-0.7-0.7-0.7-1.9,0-2.7l18.8-18.8c0.7-0.7,1.9-0.7,2.7,0s0.7,1.9,0,2.7l-18.8,18.8
				C990.1,225.5,989.6,225.7,989.2,225.7z"/>
		</g>
	</g>
	<g>
		<polygon fill="#FFBB97" points="720,421.1 795.6,290 871.3,421.1 		"/>
		<path d="M871.4,423C871.3,423,871.3,423,871.4,423H720c-0.7,0-1.3-0.4-1.6-0.9c-0.3-0.6-0.3-1.3,0-1.9L794,289.1
			c0.7-1.2,2.6-1.2,3.3,0l75.4,130.7c0.3,0.3,0.6,0.8,0.6,1.3C873.2,422.1,872.4,423,871.4,423z M723.2,419.2H868l-72.4-125.4
			L723.2,419.2z"/>
	</g>
	<g>
		<path fill="#FFFFFF" d="M776.1,807.7c15.2-14.1,28.3-30.7,38.4-49.6l-43.7-33.8c1.7-3.6,3.3-7.3,4.6-11.1
			c1.4-3.8,2.5-7.7,3.5-11.5l55.2,1.7c4.2-21.1,4.6-42.2,1.9-62.8l-55.2-1.7c-1.6-7.9-3.8-15.6-6.7-23l45.6-31.1
			c-8.8-19-20.8-36.6-35.3-51.9l-45.5,31c-5.8-5.4-12.3-10.2-19.1-14.6l18.6-52c-9.1-5-18.6-9.4-28.7-13
			c-10.1-3.6-20.2-6.3-30.4-8.2l-18.6,52c-8.1-1-16.1-1.3-24-0.9l-15.4-52.9c-21,2.6-41.4,8.5-60.3,17.6l15.5,53
			c-7,3.9-13.6,8.4-19.8,13.5l-43.7-33.8c-15.2,14.1-28.3,30.7-38.4,49.6l43.7,33.8c-1.7,3.6-3.3,7.3-4.6,11.1
			c-1.4,3.8-2.5,7.7-3.5,11.5l-55.2-1.7c-4.2,21.1-4.6,42.2-1.9,62.8l55.2,1.7c1.6,7.9,3.8,15.6,6.7,23l-45.6,31.1
			c8.8,19,20.8,36.6,35.3,51.9l45.5-31c5.8,5.4,12.3,10.2,19.1,14.6l-18.6,52c9.1,5,18.6,9.4,28.7,13c10.1,3.6,20.2,6.3,30.4,8.2
			l18.6-52c8.1,0.9,16.1,1.3,24,0.8l15.4,52.9c21-2.6,41.4-8.5,60.3-17.6l-15.5-53c7-3.9,13.6-8.5,19.8-13.5L776.1,807.7z
			 M612.7,754.9c-49-17.6-74.4-71.5-56.9-120.4c17.6-49,71.5-74.4,120.4-56.9c49,17.6,74.4,71.5,56.9,120.4
			C715.6,747,661.6,772.4,612.7,754.9z"/>
		<path d="M667.8,860c-0.8,0-1.6-0.5-1.8-1.4l-15-51.4c-6.9,0.3-13.9,0-21.4-0.8L611.4,857c-0.3,0.9-1.2,1.4-2.1,1.2
			c-10.5-1.9-20.9-4.7-30.7-8.3c-9.8-3.5-19.6-8-29-13.1c-0.8-0.4-1.2-1.4-0.9-2.3l18.1-50.6c-6.3-4.1-12-8.5-17-13l-44.3,30.2
			c-0.8,0.5-1.8,0.4-2.4-0.3c-14.7-15.4-26.7-33.1-35.7-52.4c-0.4-0.8-0.1-1.8,0.6-2.3l44.4-30.3c-2.5-6.6-4.5-13.4-6-20.5
			l-53.7-1.6c-0.9,0-1.7-0.7-1.8-1.6c-2.9-21.2-2.2-42.5,1.9-63.4c0.2-0.9,1-1.5,1.9-1.5l53.7,1.6c0.9-3.1,1.9-6.7,3.1-10.2
			c1.3-3.5,2.7-6.9,4.1-9.9l-42.5-32.9c-0.7-0.6-0.9-1.6-0.5-2.4c10.1-18.7,23.1-35.6,38.8-50.1c0.7-0.6,1.7-0.7,2.4-0.1l42.5,32.9
			c5.6-4.5,11.5-8.5,17.6-12l-15.1-51.6c-0.3-0.9,0.2-1.8,1-2.2c19.2-9.2,39.7-15.2,60.9-17.8c0.9-0.1,1.8,0.5,2,1.3l15,51.4
			c6.9-0.3,14,0,21.4,0.8l18.1-50.6c0.3-0.9,1.2-1.4,2.1-1.2c10.5,1.9,20.9,4.7,30.7,8.3c9.8,3.5,19.6,7.9,29,13.1
			c0.8,0.4,1.2,1.4,0.9,2.3L722,548.5c6.2,4.1,11.9,8.5,17,13l44.3-30.2c0.8-0.5,1.8-0.4,2.4,0.3c14.7,15.5,26.7,33.1,35.7,52.4
			c0.4,0.8,0.1,1.8-0.6,2.3l-44.4,30.3c2.5,6.5,4.5,13.4,6,20.5l53.8,1.6c0.9,0,1.7,0.7,1.8,1.6c2.9,21.2,2.2,42.5-1.9,63.4
			c-0.2,0.9-1,1.5-1.9,1.5l-53.7-1.6c-0.8,3.1-1.9,6.6-3.1,10.2c-1.3,3.6-2.7,6.9-4.1,9.9l42.5,32.9c0.7,0.6,0.9,1.6,0.5,2.4
			c-10.1,18.7-23.1,35.6-38.8,50.1c-0.7,0.6-1.7,0.7-2.4,0.1l-42.5-32.9c-5.7,4.5-11.6,8.5-17.6,12l15,51.6c0.3,0.9-0.2,1.8-1,2.2
			c-19.2,9.2-39.7,15.2-60.9,17.8C667.9,860,667.8,860,667.8,860z M652.3,803.3c0.8,0,1.6,0.6,1.8,1.4l15,51.3
			c19.7-2.6,38.7-8.1,56.7-16.5l-15-51.5c-0.2-0.8,0.1-1.7,0.9-2.2c6.7-3.8,13.3-8.3,19.5-13.3c0.7-0.6,1.6-0.6,2.3,0l42.4,32.8
			c14.5-13.7,26.6-29.3,36.1-46.7l-42.4-32.8c-0.7-0.5-0.9-1.5-0.6-2.3c1.5-3.2,3.1-6.9,4.6-10.9c1.4-4,2.5-8,3.4-11.4
			c0.2-0.8,1-1.4,1.9-1.4l53.6,1.6c3.7-19.4,4.2-39.2,1.7-59l-53.6-1.6c-0.9,0-1.6-0.7-1.8-1.5c-1.6-7.9-3.8-15.5-6.6-22.7
			c-0.3-0.8,0-1.7,0.7-2.2l44.3-30.2c-8.5-17.9-19.7-34.3-33.2-48.8l-44.2,30.1c-0.7,0.5-1.7,0.4-2.3-0.2
			c-5.5-5.1-11.8-9.9-18.8-14.4c-0.7-0.5-1.1-1.4-0.8-2.2l18.1-50.5c-8.8-4.8-17.8-8.8-27-12.1c-9.2-3.3-18.8-5.9-28.6-7.8
			l-18.1,50.5c-0.3,0.8-1.1,1.4-2,1.2c-8.3-1-16.1-1.3-23.7-0.8c-0.9,0.1-1.7-0.5-1.9-1.4l-15-51.3c-19.7,2.6-38.7,8.1-56.7,16.5
			l15,51.5c0.2,0.8-0.1,1.7-0.9,2.2c-6.8,3.8-13.3,8.3-19.5,13.3c-0.7,0.6-1.6,0.6-2.3,0L513,527.2c-14.5,13.7-26.6,29.3-36.1,46.7
			l42.4,32.8c0.7,0.5,0.9,1.5,0.6,2.3c-1.5,3.2-3.1,7-4.6,11c-1.4,4-2.5,8-3.4,11.4c-0.2,0.8-1,1.3-1.9,1.4l-53.6-1.6
			c-3.7,19.4-4.2,39.2-1.7,59l53.6,1.6c0.9,0,1.6,0.7,1.8,1.5c1.6,7.9,3.8,15.5,6.6,22.7c0.3,0.8,0,1.7-0.7,2.2l-44.3,30.2
			c8.5,17.9,19.7,34.3,33.2,48.8L549,767c0.7-0.5,1.7-0.4,2.3,0.2c5.5,5,11.8,9.9,18.8,14.4c0.7,0.5,1,1.4,0.8,2.2l-18.1,50.4
			c8.8,4.8,17.8,8.8,27,12.1c9.2,3.3,18.8,5.9,28.5,7.8l18.1-50.5c0.3-0.8,1.1-1.3,2-1.2c8.3,1,16.1,1.3,23.7,0.8
			C652.3,803.3,652.3,803.3,652.3,803.3z M644.5,762.3c-11,0-21.9-1.9-32.4-5.7c-24.2-8.7-43.5-26.2-54.4-49.4
			c-11-23.2-12.2-49.3-3.6-73.4c13.7-38.1,50-63.7,90.4-63.7c11,0,21.9,1.9,32.4,5.7c24.2,8.7,43.5,26.2,54.4,49.4
			c11,23.2,12.2,49.3,3.6,73.4C721.2,736.7,684.9,762.3,644.5,762.3z M644.5,573.9c-38.8,0-73.8,24.6-86.9,61.2
			c-8.3,23.2-7.1,48.3,3.4,70.6c10.5,22.3,29.1,39.2,52.3,47.5c10.1,3.6,20.6,5.4,31.2,5.4c38.8,0,73.8-24.6,86.9-61.2
			c8.3-23.2,7.1-48.3-3.4-70.6s-29.1-39.2-52.3-47.5C665.5,575.7,655.1,573.9,644.5,573.9z"/>
	</g>
	<g>
		<rect x="393.1" y="406.4" fill="#FFFFFF" width="502.7" height="259.8"/>
		<path d="M895.8,668.1H393.1c-1,0-1.9-0.8-1.9-1.9V406.4c0-1,0.8-1.9,1.9-1.9h502.7c1,0,1.9,0.8,1.9,1.9v259.8
			C897.7,667.3,896.8,668.1,895.8,668.1z M395,664.3h498.9V408.3H395V664.3z"/>
	</g>
	<g>
		<rect x="393.1" y="344.3" fill="#FFFFFF" width="502.7" height="62.1"/>
		<path d="M895.8,408.3H393.1c-1,0-1.9-0.8-1.9-1.9v-62.1c0-1,0.8-1.9,1.9-1.9h502.7c1,0,1.9,0.8,1.9,1.9v62.1
			C897.7,407.4,896.8,408.3,895.8,408.3z M395,404.5h498.9v-58.4H395V404.5z"/>
	</g>
	<g>
		<rect x="404.4" y="355.6" fill="#FADD05" width="480.1" height="39.5"/>
	</g>
	<g>
		<path d="M698.7,317H479c-1,0-1.9-0.8-1.9-1.9s0.8-1.9,1.9-1.9h219.8c1,0,1.9,0.8,1.9,1.9S699.8,317,698.7,317z"/>
	</g>
	<g>
		<path d="M698.7,278.4H535.3c-1,0-1.9-0.8-1.9-1.9s0.8-1.9,1.9-1.9h163.5c1,0,1.9,0.8,1.9,1.9S699.8,278.4,698.7,278.4z"/>
	</g>
	<g>
		<path d="M698.7,239.8H590.8c-1,0-1.9-0.8-1.9-1.9c0-1,0.8-1.9,1.9-1.9h107.9c1,0,1.9,0.8,1.9,1.9
			C700.6,238.9,699.8,239.8,698.7,239.8z"/>
	</g>
	<g>
		<path d="M552.4,239.8h-54c-1,0-1.9-0.8-1.9-1.9c0-1,0.8-1.9,1.9-1.9h54c1,0,1.9,0.8,1.9,1.9C554.2,238.9,553.4,239.8,552.4,239.8z
			"/>
	</g>
	<g>
		<path d="M426.2,387.3c-6.6,0-11.9-5.4-11.9-11.9s5.4-11.9,11.9-11.9c6.6,0,11.9,5.4,11.9,11.9S432.8,387.3,426.2,387.3z
			 M426.2,367.2c-4.5,0-8.2,3.7-8.2,8.2s3.7,8.2,8.2,8.2s8.2-3.7,8.2-8.2S430.8,367.2,426.2,367.2z"/>
	</g>
	<g>
		<path d="M461.4,387.3c-6.6,0-11.9-5.4-11.9-11.9s5.4-11.9,11.9-11.9s11.9,5.4,11.9,11.9S468,387.3,461.4,387.3z M461.4,367.2
			c-4.5,0-8.2,3.7-8.2,8.2s3.7,8.2,8.2,8.2s8.2-3.7,8.2-8.2S465.9,367.2,461.4,367.2z"/>
	</g>
	<g>
		<path d="M873.1,377.2h-23.2c-1,0-1.9-0.8-1.9-1.9c0-1,0.8-1.9,1.9-1.9h23.2c1,0,1.9,0.8,1.9,1.9
			C875,376.4,874.1,377.2,873.1,377.2z"/>
	</g>
	<g>
		<g>
			<g>
				<path fill="#58C4F2" d="M763.1,440v43c29.4,0,53.2,23.8,53.2,53.2h43V440H763.1z"/>
			</g>
			<g>
				<path d="M859.3,538.1h-43c-1,0-1.9-0.8-1.9-1.9c0-28.3-23-51.3-51.3-51.3c-1,0-1.9-0.8-1.9-1.9v-43c0-1,0.8-1.9,1.9-1.9h96.2
					c1,0,1.9,0.8,1.9,1.9v96.2C861.2,537.2,860.4,538.1,859.3,538.1z M818.2,534.3h39.3v-92.4H765v39.3
					C793.9,482.1,817.2,505.4,818.2,534.3z"/>
			</g>
		</g>
		<g>
			<path fill="#FFBB97" d="M763.1,483c-29.4,0-53.2,23.8-53.2,53.2c0,29.4,23.8,53.2,53.2,53.2c29.4,0,53.2-23.8,53.2-53.2h-53.2
				V483z"/>
			<path d="M763.1,591.3c-30.4,0-55.1-24.7-55.1-55.1s24.7-55.1,55.1-55.1c1,0,1.9,0.8,1.9,1.9v51.3h51.3c1,0,1.9,0.8,1.9,1.9
				C818.2,566.5,793.5,591.3,763.1,591.3z M761.2,484.9c-27.4,1-49.4,23.6-49.4,51.3c0,28.3,23,51.3,51.3,51.3
				c27.7,0,50.3-22,51.3-49.4h-51.3c-1,0-1.9-0.8-1.9-1.9V484.9z"/>
		</g>
		<g>
			<path fill="#E6E7E8" d="M763.1,483v53.2h53.2C816.3,506.8,792.5,483,763.1,483z"/>
			<path d="M816.3,538.1h-53.2c-1,0-1.9-0.8-1.9-1.9V483c0-1,0.8-1.9,1.9-1.9c30.4,0,55.1,24.7,55.1,55.1
				C818.2,537.2,817.4,538.1,816.3,538.1z M765,534.3h49.4c-1-26.8-22.6-48.4-49.4-49.4V534.3z"/>
		</g>
	</g>
	<g>
		<g>
			<rect x="431" y="589.4" fill="#58C4F2" width="33.6" height="33.6"/>
		</g>
		<g>
			<path d="M464.5,624.8H431c-1,0-1.9-0.8-1.9-1.9v-33.6c0-1,0.8-1.9,1.9-1.9h33.6c1,0,1.9,0.8,1.9,1.9v33.6
				C466.4,624,465.5,624.8,464.5,624.8z M432.8,621.1h29.8v-29.8h-29.8V621.1z"/>
		</g>
	</g>
	<g>
		<rect x="498.4" y="589.4" fill="#FFBB97" width="33.6" height="33.6"/>
		<path d="M531.9,624.8h-33.6c-1,0-1.9-0.8-1.9-1.9v-33.6c0-1,0.8-1.9,1.9-1.9h33.6c1,0,1.9,0.8,1.9,1.9v33.6
			C533.8,624,533,624.8,531.9,624.8z M500.3,621.1h29.8v-29.8h-29.8V621.1z"/>
	</g>
	<g>
		<g>
			<rect x="565.8" y="589.4" fill="#FADD05" width="33.6" height="33.6"/>
		</g>
		<g>
			<path d="M599.4,624.8h-33.6c-1,0-1.9-0.8-1.9-1.9v-33.6c0-1,0.8-1.9,1.9-1.9h33.6c1,0,1.9,0.8,1.9,1.9v33.6
				C601.3,624,600.4,624.8,599.4,624.8z M567.7,621.1h29.8v-29.8h-29.8V621.1z"/>
		</g>
	</g>
	<g>
		<rect x="426.2" y="440" fill="#FFBB97" width="173.1" height="112.4"/>
		<path d="M599.4,554.2H426.2c-1,0-1.9-0.8-1.9-1.9V440c0-1,0.8-1.9,1.9-1.9h173.1c1,0,1.9,0.8,1.9,1.9v112.4
			C601.3,553.4,600.4,554.2,599.4,554.2z M428.1,550.4h169.4V441.9H428.1V550.4z"/>
	</g>
	<g>
		<path d="M698.7,441.9h-75.4c-1,0-1.9-0.8-1.9-1.9s0.8-1.9,1.9-1.9h75.4c1,0,1.9,0.8,1.9,1.9S699.8,441.9,698.7,441.9z"/>
	</g>
	<g>
		<path d="M698.7,464.5h-75.4c-1,0-1.9-0.8-1.9-1.9s0.8-1.9,1.9-1.9h75.4c1,0,1.9,0.8,1.9,1.9S699.8,464.5,698.7,464.5z"/>
	</g>
	<g>
		<path d="M698.7,487.1h-75.4c-1,0-1.9-0.8-1.9-1.9s0.8-1.9,1.9-1.9h75.4c1,0,1.9,0.8,1.9,1.9S699.8,487.1,698.7,487.1z"/>
	</g>
	<g>
		<path d="M661.8,509.7h-38.5c-1,0-1.9-0.8-1.9-1.9c0-1,0.8-1.9,1.9-1.9h38.5c1,0,1.9,0.8,1.9,1.9
			C663.7,508.8,662.8,509.7,661.8,509.7z"/>
	</g>
	<g>
		<path d="M661.8,532.9h-38.5c-1,0-1.9-0.8-1.9-1.9s0.8-1.9,1.9-1.9h38.5c1,0,1.9,0.8,1.9,1.9S662.8,532.9,661.8,532.9z"/>
	</g>
	<g>
		<path d="M989.2,317H843.3c-1,0-1.9-0.8-1.9-1.9s0.8-1.9,1.9-1.9h145.9c1,0,1.9,0.8,1.9,1.9S990.2,317,989.2,317z"/>
	</g>
	<g>
		<path d="M989.2,349.9h-93.4c-1,0-1.9-0.8-1.9-1.9c0-1,0.8-1.9,1.9-1.9h93.4c1,0,1.9,0.8,1.9,1.9
			C991,349.1,990.2,349.9,989.2,349.9z"/>
	</g>
	<g>
		<path d="M989.2,382.9h-93.4c-1,0-1.9-0.8-1.9-1.9c0-1,0.8-1.9,1.9-1.9h93.4c1,0,1.9,0.8,1.9,1.9
			C991,382.1,990.2,382.9,989.2,382.9z"/>
	</g>
	<g>
		<path d="M989.2,415.9h-93.4c-1,0-1.9-0.8-1.9-1.9s0.8-1.9,1.9-1.9h93.4c1,0,1.9,0.8,1.9,1.9S990.2,415.9,989.2,415.9z"/>
	</g>
	<g>
		<path d="M928.3,448.8h-32.5c-1,0-1.9-0.8-1.9-1.9s0.8-1.9,1.9-1.9h32.5c1,0,1.9,0.8,1.9,1.9S929.3,448.8,928.3,448.8z"/>
	</g>
	<g>
		<g>
			<path fill="#FADD05" d="M989.2,509.6c0,16.8-13.6,30.4-30.4,30.4c-16.8,0-30.4-13.6-30.4-30.4c0-16.8,13.6-30.4,30.4-30.4
				C975.5,479.1,989.2,492.8,989.2,509.6z"/>
		</g>
		<g>
			<path d="M958.7,541.9c-17.8,0-32.3-14.5-32.3-32.3s14.5-32.3,32.3-32.3c17.8,0,32.3,14.5,32.3,32.3S976.6,541.9,958.7,541.9z
				 M958.7,481c-15.7,0-28.5,12.8-28.5,28.5s12.8,28.5,28.5,28.5c15.7,0,28.5-12.8,28.5-28.5S974.5,481,958.7,481z"/>
		</g>
	</g>
	<g>
		<path d="M958.7,511.5h-58c-1,0-1.9-0.8-1.9-1.9s0.8-1.9,1.9-1.9h58c1,0,1.9,0.8,1.9,1.9S959.8,511.5,958.7,511.5z"/>
	</g>
	<g>
		<path d="M958.7,564.3h-37.3c-1,0-1.9-0.8-1.9-1.9c0-1,0.8-1.9,1.9-1.9h37.3c1,0,1.9,0.8,1.9,1.9
			C960.6,563.4,959.8,564.3,958.7,564.3z"/>
	</g>
	<g>
		<g>
			<rect x="895.8" y="606.2" fill="#58C4F2" width="68" height="20.7"/>
		</g>
		<g>
			<path d="M963.8,628.7h-68c-1,0-1.9-0.8-1.9-1.9v-20.7c0-1,0.8-1.9,1.9-1.9h68c1,0,1.9,0.8,1.9,1.9v20.7
				C965.7,627.9,964.8,628.7,963.8,628.7z M897.7,625h64.2V608h-64.2V625z"/>
		</g>
	</g>
	<g>
		<g>
			<path d="M361,279.4h-33.9c-1,0-1.9-0.8-1.9-1.9v-70.9c0-1,0.8-1.9,1.9-1.9H361c1,0,1.9,0.8,1.9,1.9v70.9
				C362.9,278.6,362,279.4,361,279.4z M328.9,275.7h30.2v-67.1h-30.2V275.7z"/>
		</g>
		<g>
			<path d="M400.2,298.7c-0.3,0-0.6-0.1-0.8-0.2l-39.2-19.2c-0.6-0.3-1.1-1-1.1-1.7v-70.9c0-0.7,0.4-1.4,1.1-1.7l39.2-19.2
				c0.6-0.3,1.3-0.3,1.8,0.1c0.6,0.3,0.9,0.9,0.9,1.6v109.3c0,0.6-0.3,1.3-0.9,1.6C400.9,298.6,400.6,298.7,400.2,298.7z
				 M362.9,276.4l35.4,17.4V190.5l-35.4,17.4V276.4z"/>
		</g>
		<g>
			<path d="M445.8,244h-36.2c-1,0-1.9-0.8-1.9-1.9c0-1,0.8-1.9,1.9-1.9h36.2c1,0,1.9,0.8,1.9,1.9C447.7,243.2,446.9,244,445.8,244z"
				/>
		</g>
		<g>
			<path d="M409.6,208.6c-0.7,0-1.4-0.4-1.7-1.1c-0.4-1,0-2.1,1-2.5l36.2-15.7c1-0.4,2.1,0,2.5,1c0.4,1,0,2.1-1,2.5l-36.2,15.7
				C410.1,208.5,409.9,208.6,409.6,208.6z"/>
		</g>
		<g>
			<path d="M445.8,295.1c-0.3,0-0.5,0-0.7-0.2l-36.2-15.7c-1-0.4-1.4-1.5-1-2.5c0.4-1,1.5-1.4,2.5-1l36.2,15.7c1,0.4,1.4,1.5,1,2.5
				C447.2,294.7,446.6,295.1,445.8,295.1z"/>
		</g>
	</g>
	<g>
		<g>
			<path d="M1218.7,421.1h-120.2c-8,0-14.5-6.5-14.5-14.5V317c0-8,6.5-14.5,14.5-14.5h120.2c8,0,14.5,6.5,14.5,14.5v89.6
				C1233.3,414.6,1226.7,421.1,1218.7,421.1z M1098.5,306.2c-5.9,0-10.8,4.8-10.8,10.8v89.6c0,5.9,4.8,10.8,10.8,10.8h120.2
				c5.9,0,10.8-4.8,10.8-10.8V317c0-5.9-4.8-10.8-10.8-10.8H1098.5z"/>
		</g>
		<g>
			<path d="M1158.6,370.9c-10,0-18.2-8.2-18.2-18.2c0-10.1,8.2-18.2,18.2-18.2s18.2,8.2,18.2,18.2
				C1176.9,362.7,1168.7,370.9,1158.6,370.9z M1158.6,338.2c-8,0-14.5,6.5-14.5,14.5c0,8,6.5,14.5,14.5,14.5c8,0,14.5-6.5,14.5-14.5
				C1173.1,344.7,1166.6,338.2,1158.6,338.2z"/>
		</g>
		<g>
			<path d="M1158.6,394.6c-1,0-1.9-0.8-1.9-1.9V369c0-1,0.8-1.9,1.9-1.9c1,0,1.9,0.8,1.9,1.9v23.7
				C1160.5,393.8,1159.7,394.6,1158.6,394.6z"/>
		</g>
		<g>
			<path d="M1206.9,306.2h-96.6c-1,0-1.9-0.8-1.9-1.9v-27.8c0-23.5,19.1-42.6,42.6-42.6h15.3c23.5,0,42.6,19.1,42.6,42.6v27.8
				C1208.8,305.4,1208,306.2,1206.9,306.2z M1112.2,302.5h92.9v-26c0-21.4-17.4-38.8-38.8-38.8H1151c-21.4,0-38.8,17.4-38.8,38.8
				V302.5z"/>
		</g>
	</g>
	<g>
		<g>
			<path fill="#231F20" d="M121.1,426c-0.5,0-0.9-0.2-1.3-0.5l-57.6-51.3c-0.6-0.5-0.8-1.3-0.5-2.1c0.3-0.7,1-1.2,1.8-1.2h57.6
				c1,0,1.9,0.8,1.9,1.9v51.3c0,0.7-0.4,1.4-1.1,1.7C121.7,426,121.4,426,121.1,426z M68.5,374.7l50.8,45.2v-45.2H68.5z"/>
		</g>
		<g>
			<path fill="#231F20" d="M281.1,426c-0.3,0-0.5-0.1-0.8-0.2c-0.7-0.3-1.1-1-1.1-1.7v-51.3c0-1,0.8-1.9,1.9-1.9h57.6
				c0.8,0,1.5,0.5,1.8,1.2c0.3,0.7,0.1,1.6-0.5,2.1l-57.6,51.3C282,425.9,281.6,426,281.1,426z M283,374.7V420l50.8-45.2H283z"/>
		</g>
		<g>
			<path fill="#231F20" d="M121.1,374.7H63.5c-0.8,0-1.6-0.5-1.8-1.3c-0.2-0.8,0.1-1.6,0.7-2.1l57.6-39.3c0.6-0.4,1.3-0.4,1.9-0.1
				c0.6,0.3,1,1,1,1.7v39.3C123,373.9,122.2,374.7,121.1,374.7z M69.6,371h49.6v-33.8L69.6,371z"/>
		</g>
		<g>
			<path fill="#231F20" d="M338.7,374.7h-57.6c-1,0-1.9-0.8-1.9-1.9v-39.3c0-0.7,0.4-1.3,1-1.7c0.6-0.3,1.4-0.3,1.9,0.1l57.6,39.3
				c0.7,0.5,1,1.3,0.7,2.1C340.3,374.2,339.6,374.7,338.7,374.7z M283,371h49.6L283,337.1V371z"/>
		</g>
		<g>
			<path fill="#231F20" d="M63.5,538.1c-0.3,0-0.6-0.1-0.9-0.2c-0.6-0.3-1-1-1-1.6V372.8c0-0.7,0.4-1.4,1.1-1.7
				c0.7-0.3,1.5-0.2,2,0.3l110.1,98c0.4,0.4,0.7,1,0.6,1.6c-0.1,0.6-0.4,1.1-0.9,1.4L64.5,537.9C64.2,538.1,63.8,538.1,63.5,538.1z
				 M65.4,377V533l105-62.4L65.4,377z"/>
		</g>
		<g>
			<path fill="#231F20" d="M338.7,538.1c-0.3,0-0.7-0.1-1-0.3l-110.1-65.4c-0.5-0.3-0.9-0.8-0.9-1.4c-0.1-0.6,0.2-1.2,0.6-1.6
				l110.1-98c0.6-0.5,1.3-0.6,2-0.3c0.7,0.3,1.1,1,1.1,1.7v163.4c0,0.7-0.4,1.3-1,1.6C339.4,538.1,339.1,538.1,338.7,538.1z
				 M231.8,470.6l105,62.4V377L231.8,470.6z"/>
		</g>
		<g>
			<path fill="#231F20" d="M338.7,538.1H63.5c-0.8,0-1.6-0.6-1.8-1.4c-0.2-0.8,0.1-1.7,0.9-2.1l137.6-81.7c0.6-0.3,1.3-0.3,1.9,0
				l137.6,81.7c0.7,0.4,1.1,1.3,0.9,2.1C340.3,537.6,339.6,538.1,338.7,538.1z M70.4,534.4h261.5l-130.8-77.6L70.4,534.4z"/>
		</g>
		<g>
			<path fill="#231F20" d="M228.7,472.8c-0.3,0-0.7-0.1-1-0.3l-26.6-15.8l-26.6,15.8c-0.7,0.4-1.6,0.3-2.2-0.2l-52.5-46.7
				c-0.4-0.4-0.6-0.9-0.6-1.4V225.8c0-1,0.8-1.9,1.9-1.9h160c1,0,1.9,0.8,1.9,1.9v198.4c0,0.5-0.2,1-0.6,1.4l-52.5,46.7
				C229.5,472.6,229.1,472.8,228.7,472.8z M201.1,452.7c0.3,0,0.7,0.1,1,0.3l26.3,15.6l50.8-45.3V227.7H123v195.7l50.8,45.3
				l26.3-15.6C200.5,452.8,200.8,452.7,201.1,452.7z"/>
		</g>
		<g>
			<path fill="#231F20" d="M254.3,341.6h-80.7c-1,0-1.9-0.8-1.9-1.9v-83.9c0-1,0.8-1.9,1.9-1.9h80.7c1,0,1.9,0.8,1.9,1.9v83.9
				C256.2,340.7,255.3,341.6,254.3,341.6z M175.5,337.8h76.9v-80.2h-76.9V337.8z"/>
		</g>
		<g>
			<path fill="#231F20" d="M201.1,415.7H144c-1,0-1.9-0.8-1.9-1.9V313.3c0-1,0.8-1.9,1.9-1.9h57.2c1,0,1.9,0.8,1.9,1.9v100.5
				C203,414.8,202.2,415.7,201.1,415.7z M145.9,411.9h53.4v-96.7h-53.4V411.9z"/>
		</g>
		<g>
			<path fill="#231F20" d="M196.2,270.7H92.3c-1,0-1.9-0.8-1.9-1.9s0.8-1.9,1.9-1.9h103.9c1,0,1.9,0.8,1.9,1.9
				S197.2,270.7,196.2,270.7z"/>
		</g>
		<g>
			<path fill="#231F20" d="M191.9,293.6h-40.5c-1,0-1.9-0.8-1.9-1.9s0.8-1.9,1.9-1.9h40.5c1,0,1.9,0.8,1.9,1.9
				S193,293.6,191.9,293.6z"/>
		</g>
		<g>
			<path fill="#231F20" d="M231.4,370.4h-58.8c-1,0-1.9-0.8-1.9-1.9s0.8-1.9,1.9-1.9h58.8c1,0,1.9,0.8,1.9,1.9
				S232.4,370.4,231.4,370.4z"/>
		</g>
		<g>
			<path fill="#231F20" d="M262.3,393.8h-89.7c-1,0-1.9-0.8-1.9-1.9c0-1,0.8-1.9,1.9-1.9h89.7c1,0,1.9,0.8,1.9,1.9
				C264.2,393,263.3,393.8,262.3,393.8z"/>
		</g>
	</g>
	<g>
		<path fill="#FFFFFF" d="M1145.9,691.1c-10.7-0.5-20.3-6.4-25.6-15.7c-4.1-7.2-5.1-15.6-3-23.5c1.9-6.8,6-12.9,11.8-17.1l2.1-1.6
			l-1.5-2.2c-5.5-8.1-12.2-15.4-19.9-21.9l-2.1-1.7l-1.8,2c-2.4,2.8-5.1,5-8.2,6.8c-15,8.5-34,3.2-42.5-11.7
			c-2.9-5.2-4.3-11.1-4-17.1l0.1-2.7l-2.7-0.2c-9.8-0.7-19.7,0-29.4,2l-2.6,0.5l0.5,2.6c0.8,4.6,0.6,9.3-0.6,13.8
			c-2.2,8.1-7.4,14.8-14.7,18.9c-11.5,6.5-25.9,5.1-35.9-3.6l-2-1.7l-1.8,1.9c-6.6,7.1-12.2,15.2-16.6,24l-1.2,2.4l2.4,1.2
			c5.3,2.8,9.8,7,12.7,12.3c4.1,7.2,5.2,15.6,3,23.6c-2.2,8.1-7.4,14.8-14.7,18.9c-3.2,1.8-6.7,3.1-10.3,3.7l-2.7,0.4l0.4,2.7
			c1.6,9.8,4.5,19.4,8.6,28.4l1.1,2.4l2.4-1.1c14.6-6.3,31.5-0.6,39.4,13.2c4.1,7.2,5.1,15.6,2.9,23.6c-0.6,2.2-1.4,4.4-2.5,6.4
			l-1.2,2.3l2.3,1.3c8.3,4.7,17.4,8.4,27,10.7l2.6,0.6l0.7-2.5c2.3-8,7.5-14.7,14.6-18.7c14.9-8.5,34.1-3.3,42.6,11.7
			c0.5,1,1,2,1.5,3.1l1,2.4l2.5-1c4.8-2,9.2-4,13.4-6.4c4.2-2.4,8.4-5.1,12.4-8.2l2.1-1.6l-1.5-2.1c-0.7-0.9-1.3-1.9-1.9-2.9
			c-4.1-7.2-5.1-15.6-3-23.6c2.2-8.1,7.4-14.8,14.7-18.9c7.2-4.1,15.6-5.2,23.5-3l2.6,0.7l0.8-2.5c2.8-9.3,4.4-19,4.6-28.7l0.1-2.7
			L1145.9,691.1z M1097.3,707.5c-8.3,30.6-39.8,48.6-70.4,40.3c-30.6-8.3-48.6-39.8-40.3-70.4c8.3-30.6,39.8-48.6,70.4-40.3
			C1087.5,645.4,1105.6,676.9,1097.3,707.5z"/>
		<path fill="#231F20" d="M1017.9,798c-0.2,0-0.3,0-0.5-0.1l-2.6-0.6c-9.6-2.4-18.9-6.1-27.4-10.9l-2.3-1.3
			c-0.9-0.5-1.2-1.6-0.7-2.5l1.2-2.3c1-1.9,1.8-3.9,2.4-6.1c2-7.5,1.1-15.4-2.7-22.2c-5.2-9.1-15-14.8-25.5-14.8
			c-4,0-7.9,0.8-11.6,2.4l-2.4,1.1c-0.9,0.4-2,0-2.5-0.9l-1.1-2.4c-4.2-9.2-7.2-18.9-8.8-28.9l-0.4-2.6c-0.2-1,0.5-2,1.5-2.2
			l2.7-0.4c3.4-0.6,6.6-1.7,9.7-3.5c6.8-3.9,11.7-10.2,13.8-17.8c2-7.5,1.1-15.4-2.8-22.1c-2.7-4.9-6.9-8.8-11.9-11.5l-2.4-1.2
			c-0.9-0.5-1.3-1.6-0.8-2.5l1.2-2.4c4.5-8.9,10.2-17.1,16.9-24.4l1.8-1.9c0.7-0.7,1.8-0.8,2.6-0.1l2,1.7c5.3,4.6,12.2,7.2,19.3,7.2
			c5.1,0,10-1.3,14.4-3.8c6.8-3.9,11.7-10.2,13.8-17.8c1.1-4.2,1.3-8.7,0.6-12.9l-0.5-2.6c-0.2-1,0.5-2,1.5-2.2l2.6-0.5
			c9.8-2,19.9-2.7,29.9-2l2.6,0.2c1,0.1,1.8,0.9,1.8,2l-0.1,2.7c-0.3,5.6,1,11.2,3.8,16c5.2,9.1,15,14.8,25.6,14.8
			c5,0,10-1.3,14.4-3.8c2.9-1.7,5.5-3.8,7.7-6.4l1.8-2c0.7-0.8,1.8-0.9,2.6-0.2l2.1,1.7c7.7,6.5,14.6,14,20.2,22.3l1.5,2.2
			c0.6,0.8,0.4,2-0.4,2.6l-2.1,1.6c-5.4,3.9-9.3,9.6-11.1,16c-2,7.5-1,15.3,2.8,22.1c5,8.8,14,14.3,24,14.8l2.7,0.1
			c1,0,1.8,0.9,1.8,1.9l-0.1,2.7c-0.3,10-1.8,19.8-4.7,29.2l-0.8,2.5c-0.3,1-1.3,1.6-2.3,1.3l-2.6-0.7c-7.4-2.1-15.4-1-22.1,2.8
			c-6.9,3.9-11.8,10.2-13.8,17.8c-2,7.5-1,15.4,2.8,22.1c0.5,0.9,1.2,1.9,1.8,2.7l1.5,2.2c0.6,0.8,0.4,2-0.4,2.6l-2.1,1.6
			c-4,3.1-8.2,5.9-12.6,8.4c-4.2,2.3-8.6,4.5-13.6,6.5l-2.5,1c-0.9,0.4-2-0.1-2.4-1l-1-2.4c-0.4-1-0.9-2-1.4-3
			c-5.2-9.1-15-14.7-25.5-14.7c-5,0-10,1.3-14.4,3.8c-6.7,3.8-11.6,10.1-13.8,17.6l-0.7,2.5C1019.5,797.5,1018.8,798,1017.9,798z
			 M988.6,782.7l0.7,0.4c8.3,4.7,17.2,8.3,26.5,10.6l0.8,0.2l0.2-0.8c2.4-8.5,7.9-15.5,15.5-19.8c5-2.8,10.6-4.3,16.3-4.3
			c11.9,0,23,6.4,28.8,16.7c0.6,1.1,1.1,2.2,1.6,3.3l0.3,0.8l0.8-0.3c4.8-2,9.1-4,13.2-6.3c4.2-2.4,8.3-5.1,12.1-8.1l0.7-0.5
			l-0.5-0.7c-0.7-0.9-1.4-2-2-3c-4.3-7.7-5.5-16.5-3.2-25c2.3-8.6,7.9-15.7,15.6-20.1c7.5-4.3,16.6-5.5,25-3.1l0.8,0.2l0.2-0.8
			c2.8-9.1,4.3-18.6,4.6-28.2l0-0.8l-0.8,0c-11.4-0.6-21.5-6.8-27.1-16.7c-4.3-7.6-5.4-16.5-3.2-24.9c2-7.3,6.4-13.7,12.5-18.1
			l0.7-0.5l-0.5-0.7c-5.5-8-12-15.2-19.5-21.5l-0.6-0.5l-0.5,0.6c-2.5,2.9-5.4,5.3-8.7,7.2c-5,2.8-10.6,4.3-16.3,4.3
			c-11.9,0-23-6.4-28.8-16.7c-3.1-5.5-4.6-11.8-4.3-18.1l0-0.8l-0.8-0.1c-9.6-0.7-19.4,0-28.9,1.9l-0.8,0.2l0.1,0.8
			c0.9,4.8,0.6,9.8-0.6,14.6c-2.3,8.6-7.9,15.7-15.6,20.1c-4.9,2.8-10.6,4.3-16.3,4.3c-8,0-15.7-2.9-21.8-8.1l-0.6-0.5l-0.6,0.6
			c-6.4,7-11.9,14.9-16.3,23.5l-0.4,0.7l0.7,0.4c5.7,3,10.4,7.5,13.5,13c4.3,7.6,5.5,16.5,3.2,25c-2.3,8.6-7.9,15.7-15.6,20.1
			c-3.5,1.9-7.2,3.2-11,3.9l-0.8,0.1l0.1,0.8c1.5,9.6,4.4,19,8.5,27.9l0.3,0.7l0.8-0.3c4.2-1.8,8.5-2.7,13-2.7
			c11.9,0,22.9,6.4,28.7,16.7c4.3,7.6,5.4,16.5,3.1,25c-0.7,2.4-1.6,4.7-2.7,6.8L988.6,782.7z M1042,751.7c-5.2,0-10.5-0.7-15.6-2.1
			c-31.5-8.6-50.2-41.2-41.6-72.7c7-25.7,30.5-43.7,57.1-43.7c5.2,0,10.5,0.7,15.6,2.1c31.5,8.6,50.2,41.2,41.6,72.7
			C1092.1,733.7,1068.6,751.7,1042,751.7z M1041.9,637c-24.9,0-46.9,16.8-53.5,40.9c-8,29.5,9.5,60,39,68.1c4.8,1.3,9.7,2,14.6,2
			c25,0,46.9-16.8,53.5-40.9c8-29.5-9.5-60-39-68.1C1051.7,637.7,1046.8,637,1041.9,637z"/>
	</g>
	<g>
		<g>
			<path fill="#231F20" d="M1201.5,715.1c-0.2,0-0.3,0-0.5-0.1l-1.8-0.4c-6.6-1.6-13-4.2-18.9-7.5l-1.6-0.9
				c-0.9-0.5-1.2-1.6-0.7-2.5l0.8-1.6c0.7-1.2,1.2-2.6,1.6-4c1.4-5,0.7-10.2-1.8-14.7c-3.4-6.1-9.9-9.8-16.9-9.8
				c-2.6,0-5.2,0.5-7.6,1.6l-1.7,0.7c-0.9,0.4-2,0-2.5-0.9l-0.8-1.6c-2.9-6.3-4.9-13-6-19.9l-0.3-1.8c-0.2-1,0.5-2,1.5-2.2l1.8-0.3
				c2.2-0.4,4.4-1.2,6.5-2.3c4.5-2.6,7.8-6.7,9.1-11.8c1.4-5,0.7-10.2-1.9-14.7c-1.8-3.2-4.6-5.9-7.9-7.6l-1.6-0.8
				c-0.9-0.5-1.3-1.6-0.8-2.5l0.8-1.6c3.1-6.2,7.1-11.8,11.7-16.8l1.2-1.3c0.7-0.7,1.9-0.8,2.6-0.1l1.4,1.2
				c6.1,5.3,15.4,6.2,22.3,2.3c4.5-2.6,7.8-6.8,9.1-11.8c0.8-2.8,0.9-5.8,0.4-8.6l-0.3-1.8c-0.2-1,0.5-2,1.5-2.2l1.8-0.4
				c6.8-1.4,13.7-1.9,20.6-1.4l1.8,0.1c1,0.1,1.8,0.9,1.8,2l-0.1,1.8c-0.2,3.7,0.7,7.4,2.5,10.6c3.4,6.1,9.9,9.8,16.9,9.8h0
				c3.3,0,6.6-0.9,9.5-2.5c1.9-1.1,3.6-2.5,5.1-4.2l1.2-1.4c0.7-0.8,1.8-0.9,2.6-0.2l1.4,1.2c5.3,4.5,10,9.6,13.9,15.3l1,1.5
				c0.6,0.8,0.4,2-0.5,2.6l-1.4,1.1c-3.6,2.6-6.2,6.4-7.3,10.6c-1.3,5-0.7,10.2,1.9,14.7c3.3,5.8,9.3,9.5,15.9,9.8l1.8,0.1
				c1,0,1.8,0.9,1.8,1.9l0,1.8c-0.2,6.9-1.3,13.7-3.2,20.1l-0.5,1.7c-0.3,1-1.3,1.5-2.3,1.3l-1.7-0.5c-5-1.4-10.2-0.7-14.7,1.8
				c-4.5,2.6-7.8,6.8-9.2,11.8c-1.4,5-0.7,10.2,1.8,14.7c0.4,0.6,0.8,1.2,1.2,1.8l1.1,1.5c0.6,0.8,0.4,2-0.4,2.6l-1.4,1.1
				c-2.8,2.1-5.7,4.1-8.7,5.8c-2.8,1.6-5.9,3.1-9.4,4.5l-1.7,0.7c-0.9,0.4-2-0.1-2.4-1l-0.7-1.7c-0.3-0.7-0.6-1.3-1-2
				c-3.4-6-9.9-9.8-16.9-9.8c-3.3,0-6.7,0.9-9.6,2.5c-4.5,2.5-7.7,6.7-9.1,11.7l-0.5,1.7C1203.1,714.6,1202.3,715.1,1201.5,715.1z
				 M1182.3,703.8c5.6,3.2,11.6,5.6,17.9,7.1c1.7-6,5.6-10.9,10.9-13.9c3.5-2,7.4-3,11.4-3c8.4,0,16.1,4.5,20.2,11.7
				c0.4,0.8,0.8,1.5,1.1,2.3c3.3-1.3,6.2-2.7,8.9-4.3c2.8-1.6,5.6-3.4,8.2-5.5c-0.5-0.6-1-1.4-1.4-2.1c-3-5.4-3.8-11.6-2.2-17.5
				c1.6-6,5.5-11,10.9-14.1c5.3-3,11.6-3.8,17.5-2.2c1.9-6.1,2.9-12.6,3.1-19.1c-8-0.4-15.1-4.8-19-11.7c-3-5.4-3.8-11.6-2.2-17.5
				c1.4-5.1,4.5-9.6,8.7-12.7l0,0c-3.7-5.4-8.1-10.3-13.2-14.5c-1.8,2-3.8,3.7-6.1,5c-3.5,2-7.4,3-11.4,3c0,0,0,0,0,0
				c-8.4,0-16.1-4.5-20.2-11.7c-2.2-3.9-3.2-8.2-3-12.7c-6.6-0.4-13.1,0-19.5,1.3v0c0.6,3.3,0.5,6.9-0.4,10.2
				c-1.6,6-5.5,11-10.9,14.1c-8.3,4.7-19.4,3.6-26.7-2.7c-4.3,4.7-8.1,10.1-11,15.9c4,2.1,7.3,5.3,9.4,9.1c3,5.3,3.8,11.6,2.2,17.5
				c-1.6,6-5.5,11-10.9,14.1c-2.4,1.4-5,2.3-7.6,2.7c1,6.5,3,12.9,5.7,18.9c2.9-1.2,6-1.9,9.1-1.9c8.3,0,16,4.5,20.2,11.7
				c3,5.3,3.8,11.6,2.2,17.5C1183.7,700.7,1183.1,702.3,1182.3,703.8z"/>
		</g>
		<g>
			<path fill="#231F20" d="M1217.9,683.4c-3.6,0-7.3-0.5-10.8-1.4c-10.6-2.9-19.4-9.7-24.9-19.2c-5.4-9.5-6.9-20.6-4-31.2
				c4.8-17.8,21.1-30.3,39.6-30.3c3.6,0,7.3,0.5,10.8,1.4c21.9,5.9,34.8,28.5,28.9,50.4C1252.7,671,1236.4,683.4,1217.9,683.4z
				 M1217.9,605.1c-16.8,0-31.6,11.3-36,27.5c-2.6,9.6-1.3,19.7,3.6,28.3c5,8.6,13,14.8,22.6,17.5c3.2,0.9,6.5,1.3,9.8,1.3
				c16.8,0,31.6-11.3,36-27.5c5.4-19.8-6.4-40.4-26.2-45.8C1224.5,605.5,1221.2,605.1,1217.9,605.1z"/>
		</g>
	</g>
	<g>
		<path d="M334,662.2H130c-1,0-1.9-0.8-1.9-1.9v-74.8c0-1,0.8-1.9,1.9-1.9h204c1,0,1.9,0.8,1.9,1.9v74.8
			C335.9,661.4,335.1,662.2,334,662.2z M131.9,658.4h200.2v-71H131.9V658.4z"/>
	</g>
	<g>
		<path d="M187.3,644.7h-39.7c-1,0-1.9-0.8-1.9-1.9v-39.7c0-1,0.8-1.9,1.9-1.9h39.7c1,0,1.9,0.8,1.9,1.9v39.7
			C189.2,643.8,188.4,644.7,187.3,644.7z M149.5,640.9h36v-36h-36V640.9z"/>
	</g>
	<g>
		<path d="M251.2,644.7h-39.7c-1,0-1.9-0.8-1.9-1.9v-39.7c0-1,0.8-1.9,1.9-1.9h39.7c1,0,1.9,0.8,1.9,1.9v39.7
			C253.1,643.8,252.2,644.7,251.2,644.7z M213.3,640.9h36v-36h-36V640.9z"/>
	</g>
	<g>
		<path d="M315,644.7h-39.7c-1,0-1.9-0.8-1.9-1.9v-39.7c0-1,0.8-1.9,1.9-1.9H315c1,0,1.9,0.8,1.9,1.9v39.7
			C316.9,643.8,316,644.7,315,644.7z M277.1,640.9h36v-36h-36V640.9z"/>
	</g>
	<g>
		<path d="M1231.4,526.3c-9.2,0-16.7-7.5-16.7-16.7s7.5-16.7,16.7-16.7c9.2,0,16.7,7.5,16.7,16.7S1240.6,526.3,1231.4,526.3z
			 M1231.4,496.7c-7.1,0-12.9,5.8-12.9,12.9s5.8,12.9,12.9,12.9c7.1,0,12.9-5.8,12.9-12.9S1238.5,496.7,1231.4,496.7z"/>
	</g>
	<g>
		<path d="M1279.1,541.9h-22c-1,0-1.9-0.8-1.9-1.9c0-1,0.8-1.9,1.9-1.9h22c1,0,1.9,0.8,1.9,1.9C1281,541,1280.2,541.9,1279.1,541.9z
			"/>
	</g>
	<g>
		<path d="M1105.9,448.8h-20c-1,0-1.9-0.8-1.9-1.9s0.8-1.9,1.9-1.9h20c1,0,1.9,0.8,1.9,1.9S1107,448.8,1105.9,448.8z"/>
	</g>
	<g>
		<g>
			<g>
				<path d="M148.1,783.6c-0.2,0-0.3,0-0.5-0.1c-20.2-5.1-37.6-15.3-48.7-23c-0.7-0.5-1-1.4-0.7-2.1l10.4-31c0.1-0.4,0.4-0.8,0.8-1
					c12.8-7.6,25.6-13.1,38.2-16.2c0.6-0.1,1.2,0,1.6,0.3c0.5,0.4,0.7,0.9,0.7,1.5v69.8c0,0.6-0.3,1.1-0.7,1.5
					C148.9,783.4,148.5,783.6,148.1,783.6z M102.2,758.2c10.4,7.1,26,16.1,44,21v-64.9c-11.3,3.1-22.8,8.1-34.3,14.9L102.2,758.2z"
					/>
			</g>
			<g>
				<path d="M285.2,786.8H172.3c-7.9,0-16.3-1.1-24.7-3.2c-0.8-0.2-1.4-1-1.4-1.8v-69.8c0-0.9,0.6-1.6,1.4-1.8
					c8.5-2.1,16.8-3.2,24.7-3.2h112.9c1,0,1.9,0.8,1.9,1.9v76.1C287.1,785.9,286.2,786.8,285.2,786.8z M149.9,780.2
					c7.7,1.8,15.2,2.8,22.4,2.8h111v-72.3h-111c-7.2,0-14.7,0.9-22.4,2.8V780.2z"/>
			</g>
			<g>
				<path d="M99.9,760.8c-0.4,0-0.8-0.1-1.1-0.3c-9.7-6.7-15.5-12.1-15.7-12.3c-0.4-0.4-0.6-0.9-0.6-1.4c0-0.5,0.2-1,0.6-1.4
					c0.4-0.4,10.4-9.6,26.3-19.1c0.7-0.4,1.5-0.3,2.1,0.2c0.6,0.5,0.9,1.3,0.6,2.1l-10.4,31c-0.2,0.6-0.6,1-1.2,1.2
					C100.3,760.8,100.1,760.8,99.9,760.8z M87.2,746.8c2.1,1.8,6.1,5.2,11.7,9.2l8-23.7C97.2,738.5,90.2,744.3,87.2,746.8z"/>
			</g>
			<g>
				<path d="M285.2,786.8c-0.3,0-0.7-0.1-0.9-0.3c-0.6-0.3-0.9-1-0.9-1.6v-76.1c0-0.7,0.4-1.3,0.9-1.6c0.6-0.3,1.3-0.3,1.9,0
					l15.1,8.5c0.6,0.3,1,1,1,1.6v59c0,0.7-0.4,1.3-1,1.6l-15.1,8.5C285.8,786.7,285.5,786.8,285.2,786.8z M287.1,712v69.7l11.3-6.4
					v-56.9L287.1,712z"/>
			</g>
			<g>
				<path d="M313.4,786.8c-0.4,0-0.7-0.1-1-0.3l-13.1-8.5c-0.5-0.3-0.9-0.9-0.9-1.6v-59c0-0.6,0.3-1.2,0.9-1.6l13.1-8.5
					c0.6-0.4,1.3-0.4,1.9-0.1c0.6,0.3,1,1,1,1.7v76.1c0,0.7-0.4,1.3-1,1.7C314,786.7,313.7,786.8,313.4,786.8z M302.2,775.3l9.4,6.1
					v-69.2l-9.4,6.1V775.3z"/>
			</g>
			<g>
				<path d="M354.1,786.8h-40.7c-1,0-1.9-0.8-1.9-1.9v-76.1c0-1,0.8-1.9,1.9-1.9h40.7c1,0,1.9,0.8,1.9,1.9v76.1
					C356,785.9,355.1,786.8,354.1,786.8z M315.3,783h36.9v-72.3h-36.9V783z"/>
			</g>
			<g>
				<path d="M400,776.3h-45.9c-1,0-1.9-0.8-1.9-1.9v-55.1c0-1,0.8-1.9,1.9-1.9H400c1,0,1.9,0.8,1.9,1.9v55.1
					C401.9,775.4,401,776.3,400,776.3z M356,772.5h42.2v-51.4H356V772.5z"/>
			</g>
		</g>
		<g>
			<path d="M255,748.7H148.1c-1,0-1.9-0.8-1.9-1.9s0.8-1.9,1.9-1.9H255c1,0,1.9,0.8,1.9,1.9S256,748.7,255,748.7z"/>
		</g>
		<g>
			<path d="M148.1,730.7c-0.9,0-1.6-0.6-1.8-1.5c-0.2-1,0.4-2,1.4-2.3l18.7-4.3c0.1,0,0.3,0,0.4,0h86.9c1,0,1.9,0.8,1.9,1.9
				c0,1-0.8,1.9-1.9,1.9H167l-18.5,4.2C148.3,730.7,148.2,730.7,148.1,730.7z"/>
		</g>
		<g>
			<path d="M253.7,770.9h-86.9c-0.1,0-0.3,0-0.4-0.1l-18.7-4.3c-1-0.2-1.6-1.2-1.4-2.3c0.2-1,1.2-1.7,2.3-1.4l18.5,4.2h86.7
				c1,0,1.9,0.8,1.9,1.9C255.6,770.1,254.7,770.9,253.7,770.9z"/>
		</g>
	</g>
	<g>
		<path d="M864.1,752.1c-7.4,0-13.4-6-13.4-13.4s6-13.4,13.4-13.4c7.4,0,13.4,6,13.4,13.4S871.5,752.1,864.1,752.1z M864.1,729.1
			c-5.3,0-9.6,4.3-9.6,9.6c0,5.3,4.3,9.6,9.6,9.6c5.3,0,9.6-4.3,9.6-9.6C873.7,733.4,869.4,729.1,864.1,729.1z"/>
	</g>
	<g>
		<path d="M917,740.6h-21.2c-1,0-1.9-0.8-1.9-1.9c0-1,0.8-1.9,1.9-1.9H917c1,0,1.9,0.8,1.9,1.9C918.9,739.8,918.1,740.6,917,740.6z"
			/>
	</g>
	<g>
		<path d="M940.1,774.5h-87.4c-1,0-1.9-0.8-1.9-1.9c0-1,0.8-1.9,1.9-1.9h87.4c1,0,1.9,0.8,1.9,1.9
			C942,773.7,941.1,774.5,940.1,774.5z"/>
	</g>
	<g>
		<g>
			<path fill="#FFFFFF" d="M1337.4,339.2l-48.9,48.9l-44.5-44.5l48.9-48.9c-21.8-6.1-46.1-0.7-63.2,16.5
				c-19.4,19.4-23.9,48.1-13.4,71.8l-123.7,123.7c-9.1,9.1-9.1,23.8,0,32.8c9.1,9.1,23.8,9.1,32.8,0l123.7-123.7
				c23.7,10.5,52.4,6.1,71.8-13.4C1338.1,385.3,1343.6,361,1337.4,339.2z"/>
			<path d="M1109.1,548.1c-6.7,0-13-2.6-17.7-7.4c-9.8-9.8-9.8-25.7,0-35.5l122.8-122.8c-10.4-24.7-4.7-53.7,14.3-72.7
				c12.5-12.5,29.2-19.4,46.9-19.4c6.1,0,12.2,0.8,18.1,2.5c0.6,0.2,1.1,0.7,1.3,1.3c0.2,0.6,0,1.3-0.5,1.8l-47.6,47.6l41.8,41.8
				l47.6-47.6c0.5-0.5,1.2-0.7,1.8-0.5c0.6,0.2,1.2,0.7,1.3,1.3c6.5,23.1,0,48.1-16.9,65.1c-12.5,12.5-29.2,19.4-46.9,19.4l0,0
				c-8.9,0-17.6-1.7-25.8-5.2l-122.8,122.8C1122.1,545.5,1115.8,548.1,1109.1,548.1z M1275.3,294.1c-16.7,0-32.5,6.5-44.3,18.3
				c-18.2,18.2-23.4,46.2-13,69.7c0.3,0.7,0.2,1.5-0.4,2.1L1094,507.9c-8.3,8.3-8.3,21.9,0,30.2c4,4,9.4,6.2,15.1,6.2
				c5.7,0,11.1-2.2,15.1-6.2l123.7-123.7c0.5-0.5,1.4-0.7,2.1-0.4c8,3.6,16.6,5.4,25.4,5.4c16.7,0,32.4-6.5,44.3-18.3
				c15.2-15.2,21.5-37.3,16.8-58.2l-46.6,46.6c-0.7,0.7-2,0.7-2.7,0l-44.5-44.5c-0.7-0.7-0.7-1.9,0-2.7l46.6-46.6
				C1284.7,294.7,1280,294.1,1275.3,294.1z"/>
		</g>
		<g>
			<path fill="#FFFFFF" d="M1119.4,529.3c-4.6,4.6-12,4.6-16.5,0c-4.6-4.6-4.6-12,0-16.5c4.6-4.6,12-4.6,16.5,0
				C1123.9,517.3,1123.9,524.7,1119.4,529.3z"/>
			<path d="M1111.1,534.6c-3.6,0-7-1.4-9.6-4c-5.3-5.3-5.3-13.9,0-19.2c5.1-5.1,14.1-5.1,19.2,0c5.3,5.3,5.3,13.9,0,19.2
				C1118.1,533.2,1114.7,534.6,1111.1,534.6z M1111.1,511.2c-2.6,0-5.1,1-6.9,2.9c-3.8,3.8-3.8,10.1,0,13.9c3.7,3.7,10.2,3.7,13.9,0
				c3.8-3.8,3.8-10,0-13.9C1116.2,512.2,1113.7,511.2,1111.1,511.2z"/>
		</g>
	</g>
</g>
</svg>
