<svg width="20" height="18" fill="none" xmlns="http://www.w3.org/2000/svg"><path d="M20 2.62a7.983 7.983 0 01-2.357.667A4.229 4.229 0 0019.448.943a8.058 8.058 0 01-2.606 1.028A4.04 4.04 0 0013.846.633c-2.265 0-4.103 1.898-4.103 4.239 0 .332.036.655.107.966-3.41-.177-6.434-1.865-8.458-4.43A4.327 4.327 0 00.836 3.54c0 1.47.725 2.769 1.826 3.529a3.976 3.976 0 01-1.859-.531v.054c0 2.053 1.415 3.766 3.292 4.155a3.965 3.965 0 01-1.853.074c.522 1.683 2.037 2.909 3.833 2.943A8.067 8.067 0 010 15.518a11.339 11.339 0 006.29 1.905c7.547 0 11.674-6.459 11.674-12.06a12.5 12.5 0 00-.012-.549A8.478 8.478 0 0020 2.621z" fill="#5A5A5A"/></svg>