<svg width="64" height="64" fill="none" xmlns="http://www.w3.org/2000/svg"><g clip-path="url(#clip0)"><path d="M62.667 53.333H8V48h9.333c.737 0 1.334-.597 1.334-1.334V40H28c.737 0 1.333-.597 1.333-1.334V32h9.334c.737 0 1.333-.597 1.333-1.334V24h9.334c.736 0 1.333-.597 1.333-1.334V16H60a1.333 1.333 0 100-2.667H49.333c-.737 0-1.333.596-1.333 1.333v6.667h-9.333c-.737 0-1.334.596-1.334 1.333v6.667H28c-.737 0-1.333.596-1.333 1.333v6.667h-9.334c-.737 0-1.333.596-1.333 1.333v6.667H6.667c-.737 0-1.334.596-1.334 1.333v6.667h-4a1.333 1.333 0 100 2.667h61.334a1.333 1.333 0 100-2.667z" fill="#114B9D"/><path d="M9.333 29.33c.312 0 .625-.108.877-.33l17.637-15.432-1.113 3.34a1.334 1.334 0 002.531.844l2.667-8a1.33 1.33 0 00-.253-1.288 1.358 1.358 0 00-1.232-.45l-8 1.334a1.332 1.332 0 00-1.096 1.534c.122.727.826 1.228 1.534 1.096l3.371-.561-17.8 15.576a1.331 1.331 0 00-.126 1.881c.263.302.633.456 1.003.456z" fill="url(#paint0_linear)"/></g><defs><linearGradient id="paint0_linear" x1="30.383" y1="25.064" x2="9.45" y2="23.632" gradientUnits="userSpaceOnUse"><stop stop-color="#A02C18"/><stop offset="1" stop-color="#D93013"/></linearGradient><clipPath id="clip0"><path fill="#fff" d="M0 0h64v64H0z"/></clipPath></defs></svg>