<svg width="64" height="64" fill="none" xmlns="http://www.w3.org/2000/svg"><path d="M62 52V32h-6.621c-.448-.385-1.008-.759-1.655-1.115-1.111-3.362-4.825-8.357-12.86-9.595C43.945 19.339 46 15.909 46 12c0-6.065-4.935-11-11-11S24 5.935 24 12c0 3.72 1.861 7.008 4.695 9h-3.482c-.528-.591-1.3-1-2.263-1h-4.91a3.03 3.03 0 00-2.867 2.044c-3.852.399-6.862 3.591-8.143 8.713-.132.53-1.049.978-2.02 1.453C3.015 33.185 0 34.659 0 39v4c0 2.989 2.401 4.536 4.943 6.174 3.541 2.281 7.946 5.121 9.067 12.967l.123.859h7.434l.96-1.601A7.035 7.035 0 0128.529 58h5.941c2.132 0 3.535.953 5.002 3.399L40.434 63h7.434l.123-.858c.241-1.687 1.692-3.537 3.096-5.327 1.185-1.511 2.301-2.94 2.815-4.379.448-.136.867-.283 1.266-.436H62zm-29-2h8v-2H30c-.551 0-1-.449-1-1 0-.551.449-1 1-1h9v-2H27c-.551 0-1-.449-1-1 0-.551.449-1 1-1h12v-2h-9c-.551 0-1-.449-1-1 0-.551.449-1 1-1h11c2.206 0 4-1.794 4-4 0-1.103-.897-2-2-2h-4c-.551 0-1-.449-1-1 0-.551.449-1 1-1h3c4.672 0 9.984 1.769 12 3.447V50.29C50.815 51.398 45.886 52 42.615 52H33c-.551 0-1-.449-1-1 0-.551.449-1 1-1zm23-16h4v16h-4V34zM26 12c0-4.962 4.038-9 9-9s9 4.038 9 9-4.038 9-9 9-9-4.038-9-9zm-7.96 10h4.91c.649 0 1.05.519 1.05 1 0 2.344-.413 5.354-.704 7.181C20.349 27.79 17 24.497 17 23c0-.551.467-1 1.04-1zm31.472 33.581c-1.362 1.736-2.765 3.525-3.315 5.419h-4.631l-.378-.63C39.892 58.209 38.08 56 34.471 56H28.53a9.043 9.043 0 00-7.717 4.37l-.379.63h-4.582c-1.447-8.108-6.271-11.216-9.826-13.507C3.455 45.836 2 44.81 2 43v-4c0-3.093 1.889-4.016 3.888-4.993 1.339-.655 2.724-1.332 3.083-2.764.401-1.603 1.996-6.624 6.242-7.186 1.144 3.316 6.924 7.796 8.187 8.743l1.283.962.299-1.576C25.024 31.968 26 26.786 26 23h11c8.007 0 12.125 3.701 13.926 6.643C48.181 28.656 44.865 28 42 28h-3c-1.654 0-3 1.346-3 3s1.346 3 3 3h4c0 1.103-.897 2-2 2H30c-1.654 0-3 1.346-3 3 0 .352.072.686.184 1H27c-1.654 0-3 1.346-3 3s1.346 3 3 3h.184A2.966 2.966 0 0027 47c0 1.654 1.346 3 3 3h.184A2.966 2.966 0 0030 51c0 1.654 1.346 3 3 3h9.615c2.504 0 5.806-.321 8.744-.932-.497.791-1.16 1.636-1.847 2.513z" fill="#114B9D"/><path d="M36 5h-2v2h-2v6h4v2h-4v2h2v2h2v-2h2v-6h-4V9h4V7h-2V5z" fill="url(#paint0_linear)"/><path d="M15 28c-1.654 0-3 1.346-3 3s1.346 3 3 3 3-1.346 3-3-1.346-3-3-3zm0 4c-.551 0-1-.449-1-1 0-.551.449-1 1-1 .551 0 1 .449 1 1 0 .551-.449 1-1 1z" fill="#114B9D"/><defs><linearGradient id="paint0_linear" x1="37.596" y1="16.2" x2="32.342" y2="16.063" gradientUnits="userSpaceOnUse"><stop stop-color="#A02C18"/><stop offset="1" stop-color="#D93013"/></linearGradient></defs></svg>