<svg width="64" height="64" fill="none" xmlns="http://www.w3.org/2000/svg"><path d="M57 39v-6a3.01 3.01 0 00-3-3H11a3.01 3.01 0 00-3 3v26a3.01 3.01 0 003 3h43a3.01 3.01 0 003-3v-6a5 5 0 005-5v-4a5 5 0 00-5-5zm-2 20a1 1 0 01-1 1H11a1 1 0 01-1-1V33a1 1 0 011-1h43a1 1 0 011 1v6h-6a5 5 0 00-5 5v4a5 5 0 005 5h6v6zm5-11a3.01 3.01 0 01-3 3h-8a3.01 3.01 0 01-3-3v-4a3.01 3.01 0 013-3h8a3.01 3.01 0 013 3v4z" fill="#114B9D"/><path d="M51 43a3 3 0 100 5.999A3 3 0 0051 43zm0 4a1 1 0 110-2 1 1 0 010 2z" fill="url(#paint0_linear)"/><path d="M32 7a9 9 0 109 9 9.014 9.014 0 00-9-9zm0 16a7 7 0 117-7 7.008 7.008 0 01-7 7z" fill="#114B9D"/><path d="M33 15v-2a1 1 0 011 1h2a3.01 3.01 0 00-3-3v-1h-2v1a3 3 0 000 6v2a1 1 0 01-1-1h-2a3.01 3.01 0 003 3v1h2v-1a3 3 0 000-6zm-2 0a1 1 0 010-2v2zm2 4v-2a1 1 0 010 2z" fill="url(#paint1_linear)"/><path d="M11 2a9 9 0 109 9 9.014 9.014 0 00-9-9zm0 16a7 7 0 117-7 7.008 7.008 0 01-7 7z" fill="#114B9D"/><path d="M12 17v-1a3 3 0 000-6V8a1 1 0 011 1h2a3 3 0 00-3-3V5h-2v1a3 3 0 100 6v2a1 1 0 01-1-1H7a3 3 0 003 3v1h2zM9 9a1 1 0 011-1v2a1 1 0 01-1-1zm3 3a1 1 0 010 2v-2z" fill="url(#paint2_linear)"/><path d="M53 2a9 9 0 109 9 9.014 9.014 0 00-9-9zm0 16a7 7 0 117-7 7.008 7.008 0 01-7 7z" fill="#114B9D"/><path d="M54 10V8a1 1 0 011 1h2a3.01 3.01 0 00-3-3V5h-2v1a3 3 0 000 6v2a1 1 0 01-1-1h-2a3.01 3.01 0 003 3v1h2v-1a3 3 0 000-6zm-2 0a1 1 0 110-2v2zm2 4v-2a1 1 0 010 2z" fill="url(#paint3_linear)"/><path d="M8 22h2v2H8v-2zm0 4h2v2H8v-2zm4-4h2v2h-2v-2zm42 0h2v2h-2v-2zm0 4h2v2h-2v-2zm-4-4h2v2h-2v-2zm-19 4h2v2h-2v-2z" fill="#114B9D"/><path d="M13 35h2v22h-2V35z" fill="url(#paint4_linear)"/><defs><linearGradient id="paint0_linear" x1="53.596" y1="47.8" x2="48.358" y2="47.482" gradientUnits="userSpaceOnUse"><stop stop-color="#A02C18"/><stop offset="1" stop-color="#D93013"/></linearGradient><linearGradient id="paint1_linear" x1="35.461" y1="19.6" x2="28.462" y2="19.316" gradientUnits="userSpaceOnUse"><stop stop-color="#A02C18"/><stop offset="1" stop-color="#D93013"/></linearGradient><linearGradient id="paint2_linear" x1="14.461" y1="14.6" x2="7.463" y2="14.316" gradientUnits="userSpaceOnUse"><stop stop-color="#A02C18"/><stop offset="1" stop-color="#D93013"/></linearGradient><linearGradient id="paint3_linear" x1="56.461" y1="14.6" x2="49.462" y2="14.316" gradientUnits="userSpaceOnUse"><stop stop-color="#A02C18"/><stop offset="1" stop-color="#D93013"/></linearGradient><linearGradient id="paint4_linear" x1="14.865" y1="52.6" x2="13.113" y2="52.59" gradientUnits="userSpaceOnUse"><stop stop-color="#A02C18"/><stop offset="1" stop-color="#D93013"/></linearGradient></defs></svg>