<svg width="198" height="50" fill="none" xmlns="http://www.w3.org/2000/svg"><g filter="url(#filter0_d)"><path d="M5 10a8 8 0 018-8h172a8 8 0 018 8v24a8 8 0 01-8 8H13a8 8 0 01-8-8V10z" fill="#fff"/><path d="M13 2.5h172a7.5 7.5 0 017.5 7.5v24a7.5 7.5 0 01-7.5 7.5H13A7.5 7.5 0 015.5 34V10A7.5 7.5 0 0113 2.5z" stroke="url(#paint0_linear)"/></g><defs><linearGradient id="paint0_linear" x1="180.329" y1="34" x2="28.034" y2="-9.517" gradientUnits="userSpaceOnUse"><stop stop-color="#A02C18"/><stop offset="1" stop-color="#D93013"/></linearGradient><filter id="filter0_d" x="0" y="0" width="198" height="50" filterUnits="userSpaceOnUse" color-interpolation-filters="sRGB"><feFlood flood-opacity="0" result="BackgroundImageFix"/><feColorMatrix in="SourceAlpha" values="0 0 0 0 0 0 0 0 0 0 0 0 0 0 0 0 0 0 127 0"/><feOffset dy="3"/><feGaussianBlur stdDeviation="2.5"/><feColorMatrix values="0 0 0 0 0.0431373 0 0 0 0 0.305882 0 0 0 0 0.647059 0 0 0 0.2 0"/><feBlend in2="BackgroundImageFix" result="effect1_dropShadow"/><feBlend in="SourceGraphic" in2="effect1_dropShadow" result="shape"/></filter></defs></svg>