<svg width="24" height="24" viewBox="0 0 24 24" fill="none" xmlns="http://www.w3.org/2000/svg">
<path d="M21.5 0H15.157C13.955 0 12.824 0.468 11.974 1.31798L0.852984 12.44C0.311016 12.982 0 13.732 0 14.502C0 15.268 0.311016 16.018 0.852984 16.56L7.44098 23.148C7.98202 23.689 8.73202 24 9.50198 24C10.268 24 11.018 23.689 11.56 23.147L22.682 12.025C23.532 11.176 24 10.045 24 8.84302V2.49998C24 1.12102 22.879 0 21.5 0ZM18.5 8.00002C17.121 8.00002 16 6.879 16 5.50003C16 4.12102 17.121 3.00005 18.5 3.00005C19.879 3.00005 21 4.12102 21 5.49998C21 6.879 19.879 8.00002 18.5 8.00002Z" fill="#6F6F6F"/>
</svg>
