<svg xmlns="http://www.w3.org/2000/svg">
	<defs>

		<symbol id="location" viewBox="0 0 22 26">
			<path d="M20.6364 10.8182C20.6364 18.4545 10.8182 25 10.8182 25C10.8182 25 1 18.4545 1 10.8182C1 8.21424 2.03441 5.71695 3.87568 3.87568C5.71694 2.03441 8.21424 1 10.8182 1C13.4221 1 15.9194 2.03441 17.7607 3.87568C19.6019 5.71695 20.6364 8.21424 20.6364 10.8182Z" stroke="#70C174" stroke-width="2" stroke-linecap="round" stroke-linejoin="round"/>
			<path d="M10.822 14.0918C12.6295 14.0918 14.0948 12.6266 14.0948 10.8191C14.0948 9.01164 12.6295 7.54639 10.822 7.54639C9.01457 7.54639 7.54932 9.01164 7.54932 10.8191C7.54932 12.6266 9.01457 14.0918 10.822 14.0918Z" stroke="#70C174" stroke-width="2" stroke-linecap="round" stroke-linejoin="round"/>
		</symbol>

		<symbol id="calendar" viewBox="0 0 25 26">
			<path d="M17.2357 1V5.7999M7.63519 1V5.7999M1.63672 10.6001H23.2363M4.03667 3.40049H20.8363C22.1618 3.40049 23.2363 4.47499 23.2363 5.80044V22.6001C23.2363 23.9256 22.1618 25 20.8363 25H4.03667C2.71121 25 1.63672 23.9256 1.63672 22.6001V5.80044C1.63672 4.47499 2.71121 3.40049 4.03667 3.40049Z" stroke="#70C174" stroke-width="2" stroke-linecap="round" stroke-linejoin="round"/>
		</symbol>
		
		<symbol id="play" viewBox="0 0 24 25">
			<path d="M0 12.5C0 5.87258 5.37258 0.5 12 0.5C18.6274 0.5 24 5.87258 24 12.5C24 19.1274 18.6274 24.5 12 24.5C5.37258 24.5 0 19.1274 0 12.5Z" fill="white"/>
			<path d="M8.99268 14.2144V10.68C8.99268 9.17335 8.99268 8.42001 9.48339 8.12962C9.97411 7.83922 10.6345 8.20177 11.9552 8.92688L14.9846 10.5901C16.3231 11.3249 16.9924 11.6924 17.0071 12.2668C17.0218 12.8412 16.3722 13.2424 15.0731 14.0448L12.0437 15.916C10.6936 16.7499 10.0185 17.1668 9.50559 16.8807C8.99268 16.5947 8.99268 15.8012 8.99268 14.2144Z" fill="#1D2130"/>
		</symbol>

		<symbol id="building" viewBox="0 0 15 16">
			<path d="M7.93945 12.9565H8.81836V15.3589H7.93945V12.9565Z"/>
			<path d="M6.18164 12.9565H7.06055V15.3589H6.18164V12.9565Z"/>
			<path d="M10.459 0.358887H4.54102C4.29832 0.358887 4.10156 0.555645 4.10156 0.79834V15.3589H5.30273V12.5171C5.30273 12.2744 5.49949 12.0776 5.74219 12.0776H9.25781C9.50051 12.0776 9.69727 12.2744 9.69727 12.5171V15.3589H10.8984V0.79834C10.8984 0.555645 10.7017 0.358887 10.459 0.358887ZM6.18164 10.7593C6.18164 11.002 5.98488 11.1987 5.74219 11.1987C5.49949 11.1987 5.30273 11.002 5.30273 10.7593V9.88037C5.30273 9.63768 5.49949 9.44092 5.74219 9.44092C5.98488 9.44092 6.18164 9.63768 6.18164 9.88037V10.7593ZM6.18164 8.12256C6.18164 8.36525 5.98488 8.56201 5.74219 8.56201C5.49949 8.56201 5.30273 8.36525 5.30273 8.12256V7.24365C5.30273 7.00096 5.49949 6.8042 5.74219 6.8042C5.98488 6.8042 6.18164 7.00096 6.18164 7.24365V8.12256ZM7.93945 10.7593C7.93945 11.002 7.7427 11.1987 7.5 11.1987C7.2573 11.1987 7.06055 11.002 7.06055 10.7593V9.88037C7.06055 9.63768 7.2573 9.44092 7.5 9.44092C7.7427 9.44092 7.93945 9.63768 7.93945 9.88037V10.7593ZM7.93945 8.12256C7.93945 8.36525 7.7427 8.56201 7.5 8.56201C7.2573 8.56201 7.06055 8.36525 7.06055 8.12256V7.24365C7.06055 7.00096 7.2573 6.8042 7.5 6.8042C7.7427 6.8042 7.93945 7.00096 7.93945 7.24365V8.12256ZM9.69727 10.7593C9.69727 11.002 9.50051 11.1987 9.25781 11.1987C9.01512 11.1987 8.81836 11.002 8.81836 10.7593V9.88037C8.81836 9.63768 9.01512 9.44092 9.25781 9.44092C9.50051 9.44092 9.69727 9.63768 9.69727 9.88037V10.7593ZM9.69727 8.12256C9.69727 8.36525 9.50051 8.56201 9.25781 8.56201C9.01512 8.56201 8.81836 8.36525 8.81836 8.12256V7.24365C8.81836 7.00096 9.01512 6.8042 9.25781 6.8042C9.50051 6.8042 9.69727 7.00096 9.69727 7.24365V8.12256ZM6.18164 5.48584C6.18164 5.72854 5.98488 5.92529 5.74219 5.92529C5.49949 5.92529 5.30273 5.72854 5.30273 5.48584V4.60693C5.30273 4.36424 5.49949 4.16748 5.74219 4.16748C5.98488 4.16748 6.18164 4.36424 6.18164 4.60693V5.48584ZM7.93945 5.48584C7.93945 5.72854 7.7427 5.92529 7.5 5.92529C7.2573 5.92529 7.06055 5.72854 7.06055 5.48584V4.60693C7.06055 4.36424 7.2573 4.16748 7.5 4.16748C7.7427 4.16748 7.93945 4.36424 7.93945 4.60693V5.48584ZM9.69727 5.48584C9.69727 5.72854 9.50051 5.92529 9.25781 5.92529C9.01512 5.92529 8.81836 5.72854 8.81836 5.48584V4.60693C8.81836 4.36424 9.01512 4.16748 9.25781 4.16748C9.50051 4.16748 9.69727 4.36424 9.69727 4.60693V5.48584ZM6.18164 2.84912C6.18164 3.09182 5.98488 3.28857 5.74219 3.28857C5.49949 3.28857 5.30273 3.09182 5.30273 2.84912V1.97021C5.30273 1.72752 5.49949 1.53076 5.74219 1.53076C5.98488 1.53076 6.18164 1.72752 6.18164 1.97021V2.84912ZM7.93945 2.84912C7.93945 3.09182 7.7427 3.28857 7.5 3.28857C7.2573 3.28857 7.06055 3.09182 7.06055 2.84912V1.97021C7.06055 1.72752 7.2573 1.53076 7.5 1.53076C7.7427 1.53076 7.93945 1.72752 7.93945 1.97021V2.84912ZM9.69727 2.84912C9.69727 3.09182 9.50051 3.28857 9.25781 3.28857C9.01512 3.28857 8.81836 3.09182 8.81836 2.84912V1.97021C8.81836 1.72752 9.01512 1.53076 9.25781 1.53076C9.50051 1.53076 9.69727 1.72752 9.69727 1.97021V2.84912Z"/>
			<path d="M14.5605 6.21826H11.7773V15.3589H14.5605C14.8032 15.3589 15 15.1621 15 14.9194V6.65771C15 6.41502 14.8032 6.21826 14.5605 6.21826ZM13.8281 11.9312C13.8281 12.1738 13.6314 12.3706 13.3887 12.3706C13.146 12.3706 12.9492 12.1738 12.9492 11.9312V11.0522C12.9492 10.8096 13.146 10.6128 13.3887 10.6128C13.6314 10.6128 13.8281 10.8096 13.8281 11.0522V11.9312ZM13.8281 9.29443C13.8281 9.53713 13.6314 9.73389 13.3887 9.73389C13.146 9.73389 12.9492 9.53713 12.9492 9.29443V8.41553C12.9492 8.17283 13.146 7.97607 13.3887 7.97607C13.6314 7.97607 13.8281 8.17283 13.8281 8.41553V9.29443Z"/>
			<path d="M0.439453 6.21826C0.196758 6.21826 0 6.41502 0 6.65771V14.9194C0 15.1621 0.196758 15.3589 0.439453 15.3589H3.22266V6.21826H0.439453ZM2.05078 11.9312C2.05078 12.1738 1.85402 12.3706 1.61133 12.3706C1.36863 12.3706 1.17188 12.1738 1.17188 11.9312V11.0522C1.17188 10.8096 1.36863 10.6128 1.61133 10.6128C1.85402 10.6128 2.05078 10.8096 2.05078 11.0522V11.9312ZM2.05078 9.29443C2.05078 9.53713 1.85402 9.73389 1.61133 9.73389C1.36863 9.73389 1.17188 9.53713 1.17188 9.29443V8.41553C1.17188 8.17283 1.36863 7.97607 1.61133 7.97607C1.85402 7.97607 2.05078 8.17283 2.05078 8.41553V9.29443Z"/>
		</symbol>

		<symbol id="hand" viewBox="0 0 18 18">
			<path d="M8.88224 6.60066C9.05157 6.66339 9.2177 6.50987 9.16156 6.34653C8.77631 5.2253 7.38145 4.80703 6.08476 5.80178C5.40268 6.3251 5.14637 6.4363 5.13991 6.4391C5.58957 6.8637 6.10327 8.28852 7.22436 8.44609C8.45933 8.65756 9.55235 7.51005 8.6581 6.98495C8.06998 6.63965 7.37755 6.43906 6.63532 6.43906C7.41345 6.27341 8.19025 6.34444 8.88224 6.60066Z"/>
			<path d="M14.4744 5.8017C12.2361 4.08456 10.8086 6.7925 11.6959 6.52408C12.3261 6.33343 13.0151 6.2919 13.7061 6.43901C12.5352 6.43901 11.4559 6.9458 10.7363 7.77069C10.7954 6.47436 10.8848 5.66293 10.9884 5.05933C11.5865 5.03991 12.3837 4.58376 12.8215 3.78557C13.5762 2.50995 13.2262 1.20202 13.1136 0.376709C12.5238 0.919064 9.94777 0.283567 8.92655 1.93631C8.47545 2.66639 8.60655 3.5548 9.08111 4.20493C9.23133 4.41075 9.59052 4.31199 9.60075 4.06223C9.64533 2.9757 10.2179 2.15479 11.2853 1.70011C10.8063 2.28623 10.4918 2.94244 10.3294 3.62067C10.0768 4.6772 9.81306 5.37027 9.7162 8.73775C9.70636 9.07926 9.99929 9.36195 10.361 9.35766C10.6229 9.35455 10.8472 9.19762 10.9479 8.96932C11.101 8.62208 11.3503 8.26271 11.756 7.93346C12.1414 8.33587 12.728 8.54999 13.335 8.44604C14.4513 8.28915 14.9723 6.86122 15.4194 6.43898C15.4128 6.43625 15.1565 6.32505 14.4744 5.8017Z"/>
			<path d="M17.7649 9.99755C17.0651 9.54917 16.3035 9.86868 15.9538 10.0594L11.5647 13.0933L8.99474 13.0939L8.35226 12.4871H10.7124C11.4222 12.4871 12.2172 12.0504 12.2172 11.2732C12.2172 10.4481 11.4222 10.0594 10.7124 10.0594H9.82796C9.17094 10.0594 8.40314 10.1147 7.86176 9.84103C7.34742 9.59384 6.75513 9.45318 6.12289 9.45318C5.06123 9.45318 4.11104 9.85291 3.45992 10.4833L0 13.7001L3.85489 17.3409L5.13985 15.5205H11.2119C11.8595 15.5205 12.4846 15.2961 12.9687 14.89L17.8088 10.8292C18.0779 10.6035 18.0627 10.1884 17.7649 9.99755Z"/>
		</symbol>

		<symbol id="waves" viewBox="0 0 18 14">
			<path d="M17.797 12.8003C17.5191 12.6071 17.2746 12.37 17.0729 12.0982C16.5902 11.5497 15.9759 10.8695 14.835 10.8695C13.694 10.8695 13.1016 11.5277 12.597 12.1201C12.0923 12.7125 11.7632 13.0636 11.0172 13.0636C10.2712 13.0636 9.89822 12.6467 9.43748 12.1201C8.97673 11.5935 8.36236 10.8695 7.19948 10.8695C6.0366 10.8695 5.46616 11.5277 4.96149 12.1201C4.45686 12.7125 4.12773 13.0636 3.38175 13.0636C2.63576 13.0636 2.26275 12.6467 1.802 12.1201C1.48879 11.7065 1.09273 11.3627 0.639121 11.1108C0.420991 11.0018 0.155783 11.0902 0.0467178 11.3083C-0.0623472 11.5264 0.0260555 11.7916 0.244185 11.9007C0.588683 12.1083 0.893325 12.3758 1.14375 12.6906C1.64838 13.283 2.24078 13.9412 3.38175 13.9412C4.52271 13.9412 5.11507 13.283 5.61974 12.6906C6.12437 12.0982 6.4535 11.7471 7.19948 11.7471C7.94546 11.7471 8.31848 12.164 8.77922 12.6906C9.23997 13.2172 9.85433 13.9412 11.0172 13.9412C12.1801 13.9412 12.7505 13.283 13.2552 12.6906C13.7598 12.0982 14.089 11.7471 14.835 11.7471C15.5809 11.7471 15.9539 12.164 16.4147 12.6906C16.6704 13.0189 16.9736 13.3073 17.3143 13.5462C17.5203 13.6795 17.7953 13.6206 17.9286 13.4146C18.062 13.2086 18.003 12.9336 17.797 12.8003Z"/>
			<path d="M17.797 9.50912C17.5191 9.31598 17.2746 9.07883 17.0729 8.80703C16.5902 8.25851 15.9759 7.57833 14.835 7.57833C13.694 7.57833 13.1016 8.23655 12.597 8.82899C12.0923 9.42139 11.7632 9.77244 11.0172 9.77244C10.2712 9.77244 9.89822 9.35554 9.43748 8.82899C8.97673 8.3024 8.36236 7.57833 7.19948 7.57833C6.0366 7.57833 5.46616 8.23655 4.96149 8.82899C4.45686 9.42139 4.12773 9.77244 3.38175 9.77244C2.63576 9.77244 2.26275 9.35554 1.802 8.82899C1.48879 8.41532 1.09273 8.07158 0.639121 7.81969C0.420991 7.71062 0.155783 7.79903 0.0467178 8.01716C-0.0623472 8.23529 0.0260555 8.50049 0.244185 8.60956C0.588683 8.81719 0.893325 9.08471 1.14375 9.39943C1.64838 9.99183 2.24078 10.6501 3.38175 10.6501C4.52271 10.6501 5.11507 9.99187 5.61974 9.39943C6.12437 8.80703 6.4535 8.45598 7.19948 8.45598C7.94546 8.45598 8.31848 8.87288 8.77922 9.39943C9.23997 9.92602 9.85433 10.6501 11.0172 10.6501C12.1801 10.6501 12.7505 9.99187 13.2552 9.39943C13.7598 8.80703 14.089 8.45598 14.835 8.45598C15.5809 8.45598 15.9539 8.87288 16.4147 9.39943C16.6704 9.72776 16.9736 10.0161 17.3143 10.2551C17.5203 10.3884 17.7953 10.3295 17.9286 10.1235C18.062 9.9175 18.003 9.64242 17.797 9.50912Z"/>
			<path d="M17.797 5.99845C17.5191 5.80531 17.2746 5.56815 17.0729 5.29635C16.5902 4.74784 15.9759 4.06766 14.835 4.06766C13.694 4.06766 13.1016 4.72587 12.597 5.31832C12.0923 5.91076 11.7632 6.26177 11.0172 6.26177C10.2712 6.26177 9.89822 5.84487 9.43748 5.31832C8.97673 4.79177 8.36236 4.06766 7.19948 4.06766C6.0366 4.06766 5.46616 4.72587 4.96149 5.31832C4.45686 5.91072 4.12773 6.26177 3.38175 6.26177C2.63576 6.26177 2.26275 5.84487 1.802 5.31832C1.48879 4.90465 1.09273 4.56091 0.639121 4.30902C0.420991 4.19995 0.155783 4.28835 0.0467178 4.50648C-0.0623472 4.72461 0.0260555 4.98982 0.244185 5.09889C0.588683 5.30652 0.893325 5.57403 1.14375 5.88876C1.64838 6.48116 2.24078 7.13941 3.38175 7.13941C4.52271 7.13941 5.11507 6.4812 5.61974 5.88876C6.12437 5.29635 6.4535 4.9453 7.19948 4.9453C7.94546 4.9453 8.31848 5.3622 8.77922 5.88876C9.23997 6.41531 9.85433 7.13941 11.0172 7.13941C12.1801 7.13941 12.7505 6.4812 13.2552 5.88876C13.7599 5.29631 14.089 4.9453 14.835 4.9453C15.5809 4.9453 15.9539 5.3622 16.4147 5.88876C16.6704 6.21708 16.9736 6.50548 17.3143 6.74444C17.5203 6.87773 17.7953 6.81881 17.9286 6.61278C18.062 6.40683 18.003 6.13175 17.797 5.99845Z"/>
			<path d="M0.244358 1.80784C0.588855 2.01547 0.893498 2.28298 1.14392 2.59771C1.64855 3.19011 2.24096 3.84836 3.38192 3.84836C4.52288 3.84836 5.11524 3.19015 5.61991 2.59771C6.12454 2.0053 6.45367 1.65425 7.19965 1.65425C7.94564 1.65425 8.31865 2.07115 8.7794 2.59771C9.24014 3.1243 9.85451 3.84836 11.0174 3.84836C12.1803 3.84836 12.7507 3.19015 13.2554 2.59771C13.76 2.0053 14.0891 1.65425 14.8351 1.65425C15.5811 1.65425 15.9541 2.07115 16.4149 2.59771C16.6706 2.92603 16.9738 3.21442 17.3144 3.45343C17.5204 3.58672 17.7955 3.52776 17.9288 3.32177C18.0621 3.11577 18.0032 2.8407 17.7971 2.7074C17.5192 2.51426 17.2747 2.2771 17.0731 2.0053C16.5904 1.45679 15.976 0.776611 14.8351 0.776611C13.6942 0.776611 13.1018 1.43482 12.5971 2.02727C12.0925 2.61967 11.7633 2.97072 11.0173 2.97072C10.2714 2.97072 9.89835 2.55382 9.43761 2.02727C8.97686 1.50067 8.3625 0.776611 7.19961 0.776611C6.03673 0.776611 5.46629 1.43482 4.96162 2.02727C4.45699 2.61967 4.12786 2.97072 3.38188 2.97072C2.63589 2.97072 2.26296 2.55382 1.80218 2.02723C1.48897 1.61356 1.0929 1.26982 0.639293 1.01792C0.421163 0.908858 0.155955 0.997261 0.04689 1.21539C-0.062175 1.43352 0.0262697 1.69877 0.244358 1.80784Z"/>
		</symbol>

		<symbol id="dog" viewBox="0 0 20 20">
			<path d="M17.8737 14.1639V15.1428C17.8737 15.7906 17.4432 16.3446 16.8399 16.5609C16.8402 16.5855 16.8408 16.61 16.8408 16.6347V19.3039C18.0952 19.0566 19.0408 17.9986 19.0408 16.7347V14.1637L17.8737 14.1639Z"/>
			<path d="M9.76751 6.80729V5.78374C9.76751 4.89776 9.42189 4.03902 8.794 3.3654C8.20623 2.73483 7.43306 2.33416 6.59765 2.22298C6.41271 2.05295 6.07503 1.74273 5.73644 1.4331C5.44362 1.16522 5.20955 0.95184 5.04033 0.798909C4.94329 0.711209 4.86196 0.63815 4.80428 0.58727C4.67809 0.475942 4.44341 0.268506 4.09566 0.402593L3.7235 0.546391L3.77233 2.74454L3.68062 2.80745C3.08217 3.21827 2.68132 3.85058 2.57833 4.54464L0.981953 5.5563L0.976613 6.25138C0.972798 6.78149 1.18703 7.28044 1.5801 7.65661C1.97332 8.03277 2.497 8.23992 3.05501 8.23992H4.27068V9.25912C4.27068 9.76546 4.35628 10.2657 4.52474 10.7461L5.42592 13.3143V17.2155C4.48049 17.4265 3.77309 18.2341 3.77095 19.1953L3.76897 19.3572L7.24843 19.3577C7.34365 18.492 8.01214 17.7851 8.88555 17.5879V16.9076C8.88555 15.0463 10.4793 13.5322 12.4384 13.5322H12.5243V14.641H12.4384C11.1229 14.641 10.0527 15.6577 10.0527 16.9076V18.6416H9.38115C8.91942 18.6416 8.53109 18.9479 8.42946 19.3578L15.7081 19.359V16.6348C15.7081 14.2147 14.7532 11.9053 13.0193 10.1324L9.76751 6.80729Z"/>
		</symbol>

		<symbol id="drop" viewBox="0 0 28 28">
			<path d="M20.2904 11.7302L20.2633 11.6935L20.2579 11.6827L17.7931 8.02372L15.3283 11.6828L15.3231 11.693L15.2957 11.7302C14.9002 12.2659 14.6912 12.9023 14.6912 13.5706C14.6912 15.281 16.0827 16.6725 17.7931 16.6725C19.5034 16.6725 20.8949 15.281 20.8949 13.5706C20.895 12.9022 20.6859 12.2658 20.2904 11.7302Z"/>
			<path d="M17.7931 17.7293C15.5 17.7293 13.6344 15.8637 13.6344 13.5705C13.6344 12.6791 13.9121 11.8297 14.4376 11.1133L16.0579 8.70794L13.56 5L8.35563 12.7257C7.53737 13.8392 7.10498 15.1595 7.10498 16.5449C7.10498 20.1043 10.0007 23 13.56 23C16.9325 23 19.7088 20.4002 19.991 17.0994C19.3529 17.4984 18.5996 17.7293 17.7931 17.7293Z"/>
		</symbol>

		<symbol id="plant" viewBox="0 0 28 28">
			<path d="M15.5999 14.0413C15.1837 14.4186 14.7448 14.9294 14.346 15.6145C13.9519 14.2664 13.4551 13.2782 12.9529 12.5547C15.2572 5.26135 4.02734 5 4.02734 5C4.02734 5 4.35516 14.1154 10.22 13.9061C10.208 13.2957 10.1083 12.6786 9.96858 12.0999C9.87722 11.7226 9.76854 11.3628 9.65629 11.0307C9.2813 9.92935 8.85795 9.14758 8.85795 9.14758C9.28548 9.69177 9.66405 10.2111 9.99843 10.6992C11.1491 12.3765 11.7772 13.681 12.0692 14.37C12.7899 15.8368 13.4372 18.2494 13.4372 22.1922C13.4372 22.6385 13.8199 23 14.2893 23C14.7598 23 15.1419 22.6385 15.1419 22.1922C15.1419 20.9143 15.0768 19.7773 14.9592 18.763C15.2309 17.5253 15.6411 16.6468 16.0657 16.0246C16.3445 15.5206 16.8586 14.6573 17.5513 13.776C18.1681 12.992 18.9288 12.1932 19.7892 11.623C19.7892 11.623 18.0248 13.4734 17.9107 15.2847C22.7843 15.5256 22.9736 8.26172 22.9736 8.26172C22.9736 8.26172 14.0546 8.55022 15.5999 14.0413Z" />
		</symbol>

		<symbol id="arrow-right" viewBox="0 0 19 16">
			<path d="M18.4571 8.70711C18.8476 8.31658 18.8476 7.68342 18.4571 7.29289L12.0931 0.928933C11.7026 0.538409 11.0695 0.538409 10.6789 0.928933C10.2884 1.31946 10.2884 1.95262 10.6789 2.34315L16.3358 8L10.6789 13.6569C10.2884 14.0474 10.2884 14.6805 10.6789 15.0711C11.0695 15.4616 11.7026 15.4616 12.0931 15.0711L18.4571 8.70711ZM0.25 9L17.75 9L17.75 7L0.25 7L0.25 9Z"/>
		</symbol>

		<symbol id="facebook" viewBox="0 0 20 21">
			<g clip-path="url(#clip0_613_110)">
				<path d="M20 10.9951C20 5.47227 15.5229 0.995117 10 0.995117C4.47715 0.995117 0 5.47227 0 10.9951C0 15.9863 3.65684 20.1234 8.4375 20.8736V13.8857H5.89844V10.9951H8.4375V8.79199C8.4375 6.28574 9.93047 4.90137 12.2146 4.90137C13.3084 4.90137 14.4531 5.09668 14.4531 5.09668V7.55762H13.1922C11.95 7.55762 11.5625 8.32852 11.5625 9.12012V10.9951H14.3359L13.8926 13.8857H11.5625V20.8736C16.3432 20.1234 20 15.9863 20 10.9951Z"/>
			</g>
			<defs>
				<clipPath id="clip0_613_110">
					<rect width="20" height="20" fill="white" transform="translate(0 0.995117)"/>
				</clipPath>
			</defs>
		</symbol>

		<symbol id="twitter" viewBox="0 0 20 21">
			<g clip-path="url(#clip0_613_112)">
				<path d="M6.2918 19.1202C13.8371 19.1202 17.9652 12.8675 17.9652 7.44677C17.9652 7.27099 17.9613 7.0913 17.9535 6.91552C18.7566 6.33477 19.4496 5.61543 20 4.7913C19.2521 5.12405 18.458 5.34137 17.6449 5.43583C18.5011 4.92264 19.1421 4.11645 19.4492 3.16669C18.6438 3.64402 17.763 3.98073 16.8445 4.1624C16.2257 3.50485 15.4075 3.06948 14.5164 2.9236C13.6253 2.77771 12.711 2.92943 11.9148 3.3553C11.1186 3.78117 10.4848 4.45747 10.1115 5.27965C9.73825 6.10182 9.64619 7.02407 9.84961 7.9038C8.21874 7.82196 6.62328 7.39831 5.16665 6.6603C3.71002 5.9223 2.42474 4.88642 1.39414 3.61982C0.870333 4.52292 0.710047 5.59159 0.945859 6.60863C1.18167 7.62567 1.79589 8.51476 2.66367 9.09521C2.01219 9.07452 1.37498 8.89912 0.804688 8.58349V8.63427C0.804104 9.58201 1.13175 10.5007 1.73192 11.2342C2.3321 11.9677 3.16777 12.4707 4.09687 12.6577C3.49338 12.8228 2.85999 12.8469 2.2457 12.728C2.50788 13.5431 3.01798 14.256 3.70481 14.7672C4.39164 15.2784 5.22093 15.5624 6.07695 15.5796C4.62369 16.7211 2.82848 17.3403 0.980469 17.3374C0.652739 17.3369 0.325333 17.3168 0 17.2772C1.87738 18.4817 4.06128 19.1214 6.2918 19.1202Z"/>
			</g>
			<defs>
				<clipPath id="clip0_613_112">
					<rect width="20" height="20" fill="white" transform="translate(0 0.995117)"/>
				</clipPath>
			</defs>
		</symbol>

		<symbol id="linkedin" viewBox="0 0 20 21">
			<g clip-path="url(#clip0_613_114)">
				<path d="M18.5195 0.995117H1.47656C0.660156 0.995117 0 1.63965 0 2.43652V19.5498C0 20.3467 0.660156 20.9951 1.47656 20.9951H18.5195C19.3359 20.9951 20 20.3467 20 19.5537V2.43652C20 1.63965 19.3359 0.995117 18.5195 0.995117ZM5.93359 18.0381H2.96484V8.49121H5.93359V18.0381ZM4.44922 7.19043C3.49609 7.19043 2.72656 6.4209 2.72656 5.47168C2.72656 4.52246 3.49609 3.75293 4.44922 3.75293C5.39844 3.75293 6.16797 4.52246 6.16797 5.47168C6.16797 6.41699 5.39844 7.19043 4.44922 7.19043ZM17.043 18.0381H14.0781V13.3975C14.0781 12.292 14.0586 10.8662 12.5352 10.8662C10.9922 10.8662 10.7578 12.0732 10.7578 13.3193V18.0381H7.79688V8.49121H10.6406V9.7959H10.6797C11.0742 9.0459 12.043 8.25293 13.4844 8.25293C16.4883 8.25293 17.043 10.2295 17.043 12.7998V18.0381Z"/>
			</g>
			<defs>
				<clipPath id="clip0_613_114">
					<rect width="20" height="20" fill="white" transform="translate(0 0.995117)"/>
				</clipPath>
			</defs>
		</symbol>

		<symbol id="edit" viewBox="0 0 32 32">
			<path opacity="0.4" d="M22.219 29.3193H9.77967C7.85098 29.4392 5.95691 28.7705 4.5317 27.4679C3.22904 26.0414 2.56039 24.1473 2.68026 22.22V9.77948C2.56039 7.85214 3.2277 5.95809 4.53037 4.53156C5.95691 3.22891 7.85098 2.56026 9.77967 2.68014H22.219C24.145 2.56026 26.0377 3.22758 27.4629 4.53023C28.7643 5.95809 29.4342 7.8508 29.3197 9.77948V22.22C29.4382 24.1473 28.7709 26.0414 27.4683 27.4679C26.0417 28.7705 24.1476 29.4392 22.219 29.3193Z" fill="#716FE7"		/>
			<path d="M22.7392 13.8631L14.0022 22.6436C13.5478 23.0859 12.9506 23.333 12.3275 23.333H9.27667C9.1079 23.333 8.95211 23.268 8.83527 23.1509C8.71843 23.0339 8.6665 22.8778 8.6665 22.7087L8.7444 19.6257C8.75738 19.0143 9.00404 18.442 9.43246 18.0127L15.625 11.8078C15.7288 11.7038 15.9106 11.7038 16.0144 11.8078L18.1864 13.9711C18.3292 14.1129 18.5369 14.2052 18.7576 14.2052C19.2379 14.2052 19.6144 13.815 19.6144 13.3467C19.6144 13.1126 19.5235 12.9044 19.3807 12.7483C19.3418 12.6963 17.2737 10.6371 17.2737 10.6371C17.1439 10.507 17.1439 10.2859 17.2737 10.1558L18.1435 9.27126C18.9484 8.46476 20.2466 8.46476 21.0515 9.27126L22.7392 10.9623C23.5311 11.7558 23.5311 13.0566 22.7392 13.8631Z" fill="#716FE7"/>
		</symbol>

		<symbol id="category" viewBox="0 0 32 32">
			<path opacity="0.4" d="M21.434 2.66638H25.9486C27.8183 2.66638 29.3333 4.19418 29.3333 6.07967V10.6324C29.3333 12.5179 27.8183 14.0457 25.9486 14.0457H21.434C19.5643 14.0457 18.0493 12.5179 18.0493 10.6324V6.07967C18.0493 4.19418 19.5643 2.66638 21.434 2.66638Z" fill="#716FE7"/>
			<path fill-rule="evenodd" clip-rule="evenodd" d="M6.0512 2.66638H10.5658C12.4355 2.66638 13.9505 4.19418 13.9505 6.07967V10.6324C13.9505 12.5179 12.4355 14.0457 10.5658 14.0457H6.0512C4.18151 14.0457 2.6665 12.5179 2.6665 10.6324V6.07967C2.6665 4.19418 4.18151 2.66638 6.0512 2.66638ZM6.0512 17.9537H10.5658C12.4355 17.9537 13.9505 19.4815 13.9505 21.367V25.9197C13.9505 27.8039 12.4355 29.333 10.5658 29.333H6.0512C4.18151 29.333 2.6665 27.8039 2.6665 25.9197V21.367C2.6665 19.4815 4.18151 17.9537 6.0512 17.9537ZM25.9485 17.9537H21.4339C19.5642 17.9537 18.0492 19.4815 18.0492 21.367V25.9197C18.0492 27.8039 19.5642 29.333 21.4339 29.333H25.9485C27.8182 29.333 29.3332 27.8039 29.3332 25.9197V21.367C29.3332 19.4815 27.8182 17.9537 25.9485 17.9537Z" fill="#716FE7"/>
		</symbol>

		<symbol id="images" viewBox="0 0 32 32">
			<path opacity="0.4" d="M21.7769 29.333H10.2214C5.70236 29.333 2.6665 26.1636 2.6665 21.4454V10.5553C2.6665 5.8372 5.70236 2.66638 10.2214 2.66638H21.7783C26.2973 2.66638 29.3332 5.8372 29.3332 10.5553V21.4454C29.3332 26.1636 26.2973 29.333 21.7769 29.333Z" fill="#716FE7"/>
			<path fill-rule="evenodd" clip-rule="evenodd" d="M14.9931 11.5664C14.9931 13.393 13.5064 14.8797 11.6797 14.8797C9.85174 14.8797 8.3664 13.393 8.3664 11.5664C8.3664 9.73971 9.85174 8.25171 11.6797 8.25171C13.5064 8.25171 14.9931 9.73971 14.9931 11.5664ZM25.867 18.7832C26.1777 19.0845 26.4003 19.4285 26.547 19.7952C26.991 20.9045 26.7603 22.2378 26.2857 23.3365C25.723 24.6445 24.6457 25.6325 23.2883 26.0645C22.6857 26.2578 22.0537 26.3405 21.423 26.3405H10.2483C9.13634 26.3405 8.15234 26.0818 7.34567 25.5965C6.84034 25.2925 6.751 24.5925 7.12567 24.1365C7.75234 23.3765 8.371 22.6138 8.995 21.8445C10.1843 20.3725 10.9857 19.9458 11.8763 20.3205C12.2377 20.4752 12.6003 20.7085 12.9737 20.9538C13.9683 21.6125 15.351 22.5165 17.1723 21.5352C18.4173 20.8544 19.14 19.6895 19.769 18.6756L19.7817 18.6552C19.824 18.5873 19.866 18.5195 19.9078 18.4519C20.1217 18.1063 20.3324 17.7658 20.571 17.4525C20.867 17.0645 21.9657 15.8512 23.3857 16.7152C24.291 17.2592 25.0523 17.9952 25.867 18.7832Z" fill="#716FE7"/>
		</symbol>

		<symbol id="discovery" viewBox="0 0 32 32">
			<path opacity="0.4" d="M29.3332 15.9997C29.3332 23.3637 23.3638 29.333 15.9998 29.333C8.63584 29.333 2.6665 23.3637 2.6665 15.9997C2.6665 8.63705 8.63584 2.66638 15.9998 2.66638C23.3638 2.66638 29.3332 8.63705 29.3332 15.9997Z" fill="#716FE7"/>
			<path d="M21.1463 11.6063L18.9863 18.433C18.9063 18.713 18.6796 18.9397 18.3996 19.021L11.5996 21.153C11.1463 21.301 10.7063 20.8597 10.853 20.4063L12.9863 13.5663C13.0663 13.2863 13.293 13.073 13.573 12.9797L20.3996 10.8463C20.8663 10.6997 21.293 11.1397 21.1463 11.6063Z" fill="#716FE7"/>
		</symbol>

	</defs>
</svg>






