<svg width="21" height="21" viewBox="0 0 21 21" fill="none" xmlns="http://www.w3.org/2000/svg">
<g clip-path="url(#clip0)">
<path d="M20.4587 0.263708C16.5545 0.193708 12.102 2.23454 9.28366 5.40037C6.59033 5.45121 3.96783 6.55538 2.03699 8.48621C1.92449 8.59704 1.88449 8.76288 1.93366 8.91288C1.98366 9.06371 2.11366 9.17287 2.27033 9.19537L5.48199 9.65537L5.08533 10.0995C4.93783 10.2645 4.94533 10.5154 5.10199 10.672L10.4578 16.0279C10.5387 16.1087 10.6453 16.1495 10.7528 16.1495C10.852 16.1495 10.9512 16.1145 11.0303 16.0437L11.4745 15.647L11.9345 18.8587C11.957 19.0154 12.0803 19.1304 12.2295 19.1804C12.2678 19.1929 12.3078 19.1987 12.3487 19.1987C12.467 19.1987 12.5878 19.147 12.6712 19.0645C14.5753 17.1604 15.6795 14.5379 15.7303 11.8445C18.8995 9.02038 20.957 4.56954 20.8662 0.670375C20.8603 0.448708 20.6812 0.269542 20.4587 0.263708ZM16.6187 7.45704C16.2128 7.86288 15.6795 8.06621 15.1453 8.06621C14.6112 8.06621 14.0778 7.86288 13.672 7.45704C12.8603 6.64454 12.8603 5.32288 13.672 4.51038C14.4845 3.69787 15.8062 3.69787 16.6187 4.51038C17.4312 5.32288 17.4312 6.64538 16.6187 7.45704Z" fill="#00C365"/>
<path d="M3.1387 14.3488C2.24703 15.2404 1.02287 19.2688 0.8862 19.7246C0.842034 19.8713 0.882867 20.0305 0.990367 20.1388C1.07037 20.2188 1.1762 20.2613 1.28537 20.2613C1.32537 20.2613 1.36537 20.2555 1.40537 20.2438C1.8612 20.1071 5.88953 18.8829 6.7812 17.9913C7.78537 16.9871 7.78537 15.3529 6.7812 14.3488C5.7762 13.3446 4.14287 13.3454 3.1387 14.3488Z" fill="#00C365"/>
</g>
<defs>
<clipPath id="clip0">
<rect width="20" height="20" fill="white" transform="translate(0.868652 0.26123)"/>
</clipPath>
</defs>
</svg>
