<svg xmlns="http://www.w3.org/2000/svg" width="34" height="35" viewBox="0 0 34 35" fill="none">
<path opacity="0.3" d="M26 12.5278C25.3259 12.8134 24.611 13.0009 23.879 13.0841C24.6403 12.6462 25.226 11.9543 25.5016 11.1285C24.7767 11.5402 23.9837 11.8303 23.1567 11.9861C22.4587 11.2728 21.4826 10.8687 20.4615 10.8704C18.4229 10.8704 16.7684 12.4524 16.7684 14.4039C16.7684 14.6812 16.801 14.9514 16.8648 15.2095C13.7953 15.0619 11.0748 13.6556 9.25308 11.5173C8.93499 12.0386 8.75355 12.6462 8.75355 13.294C8.75355 14.5195 9.40524 15.6013 10.3959 16.2352C9.80938 16.218 9.23569 16.0664 8.723 15.7931V15.8382C8.723 17.5499 9.99607 18.9782 11.6846 19.3036C11.1408 19.4445 10.5706 19.4652 10.0172 19.364C10.4873 20.7682 11.8516 21.7897 13.4669 21.8193C12.2032 22.7656 10.6111 23.3317 8.88056 23.3317C8.58629 23.3313 8.29229 23.3148 8 23.2822C9.63411 24.2846 11.5756 24.8704 13.6609 24.8704C20.4534 24.8704 24.1672 19.4845 24.1672 14.8138C24.1672 14.6611 24.1672 14.5083 24.1557 14.3566C24.8784 13.8562 25.5024 13.237 25.9989 12.5278H26Z" fill="white"/>
</svg>