<svg width="25" height="25" viewBox="0 0 25 25" fill="none" xmlns="http://www.w3.org/2000/svg">
<path d="M12.5 25C19.4036 25 25 19.4036 25 12.5C25 5.59644 19.4036 0 12.5 0C5.59644 0 0 5.59644 0 12.5C0 19.4036 5.59644 25 12.5 25Z" fill="white"/>
<path d="M17.3928 10.4721C17.3853 10.0644 17.3084 9.6609 17.1656 9.27894C17.0387 8.95199 16.8451 8.65511 16.597 8.40729C16.3489 8.15947 16.0517 7.96616 15.7246 7.83974C15.3426 7.69702 14.9392 7.62017 14.5315 7.61246C14.0042 7.58576 13.8371 7.58008 12.5013 7.58008C11.1656 7.58008 10.9985 7.58576 10.4741 7.60906C10.0663 7.6166 9.66285 7.69345 9.28089 7.83633C8.95192 7.95958 8.654 8.15354 8.40817 8.40451C8.15801 8.65012 7.96415 8.94711 7.83999 9.27496C7.69728 9.65697 7.62043 10.0604 7.61271 10.4681C7.58771 10.9971 7.58203 11.1642 7.58203 12.5C7.58203 13.8358 7.58771 14.0005 7.61101 14.5272C7.61853 14.935 7.69538 15.3385 7.83828 15.7204C7.9649 16.0472 8.1583 16.344 8.40611 16.5918C8.65392 16.8396 8.9507 17.033 9.27749 17.1596C9.65949 17.3023 10.0629 17.3792 10.4707 17.3869C10.9951 17.4102 11.1627 17.4159 12.4979 17.4159C13.8332 17.4159 14.0008 17.4102 14.5252 17.3869C14.933 17.3794 15.3364 17.3025 15.7184 17.1596C16.0453 17.0332 16.3422 16.8399 16.59 16.592C16.8378 16.3442 17.0312 16.0473 17.1576 15.7204C17.3003 15.3384 17.3771 14.935 17.3849 14.5272C17.4082 14.0028 17.4138 13.8352 17.4138 12.5C17.4138 11.1647 17.4138 10.9971 17.3888 10.4727L17.3928 10.4721ZM16.5065 14.4892C16.5029 14.8011 16.4452 15.11 16.336 15.4022C16.254 15.6144 16.1286 15.8072 15.9677 15.968C15.8068 16.1289 15.6141 16.2543 15.4019 16.3363C15.1097 16.4454 14.8008 16.503 14.4888 16.5068C13.9701 16.5301 13.8144 16.5358 12.5002 16.5358C11.186 16.5358 11.0298 16.5301 10.5116 16.5068C10.1996 16.5032 9.8907 16.4456 9.59851 16.3363C9.38507 16.258 9.19204 16.1325 9.03374 15.9693C8.87094 15.8106 8.74555 15.6177 8.66669 15.4045C8.55768 15.1123 8.50001 14.8033 8.49624 14.4914C8.47294 13.9727 8.46726 13.817 8.46726 12.5028C8.46726 11.1886 8.47294 11.0324 8.49624 10.5142C8.49978 10.2022 8.55745 9.8933 8.66669 9.6011C8.74516 9.38716 8.87148 9.19399 9.03601 9.03633C9.1946 8.87347 9.38755 8.74808 9.60078 8.66928C9.89305 8.5603 10.2019 8.50263 10.5138 8.49883C11.0326 8.47553 11.1883 8.46985 12.5025 8.46985C13.8167 8.46985 13.9729 8.47553 14.4911 8.49883C14.803 8.50241 15.112 8.56008 15.4042 8.66928C15.6176 8.74762 15.8107 8.87308 15.969 9.03633C16.1318 9.19496 16.2572 9.3879 16.336 9.6011C16.445 9.89337 16.5027 10.2023 16.5065 10.5142C16.5298 11.0329 16.5354 11.1886 16.5354 12.5028C16.5354 13.817 16.5298 13.9693 16.5065 14.488V14.4892Z" fill="black"/>
<path d="M12.5038 9.97363C12.004 9.97363 11.5154 10.1219 11.0998 10.3996C10.6842 10.6773 10.3602 11.072 10.1689 11.5338C9.97766 11.9956 9.92761 12.5037 10.0251 12.994C10.1226 13.4842 10.3633 13.9345 10.7168 14.288C11.0702 14.6414 11.5205 14.8821 12.0108 14.9796C12.501 15.0771 13.0092 15.0271 13.471 14.8358C13.9328 14.6445 14.3275 14.3206 14.6052 13.905C14.8829 13.4894 15.0311 13.0008 15.0311 12.5009C15.031 11.8307 14.7646 11.1879 14.2907 10.714C13.8168 10.2401 13.1741 9.97378 12.5038 9.97363ZM12.5038 14.1401C12.1796 14.1401 11.8627 14.044 11.5931 13.8639C11.3236 13.6837 11.1135 13.4277 10.9894 13.1282C10.8653 12.8287 10.8329 12.4991 10.8961 12.1811C10.9594 11.8631 11.1155 11.5711 11.3447 11.3418C11.574 11.1126 11.8661 10.9564 12.184 10.8932C12.502 10.8299 12.8316 10.8624 13.1311 10.9865C13.4307 11.1105 13.6867 11.3206 13.8668 11.5902C14.0469 11.8598 14.143 12.1767 14.143 12.5009C14.1429 12.9356 13.9701 13.3525 13.6628 13.6598C13.3554 13.9672 12.9385 14.14 12.5038 14.1401Z" fill="black"/>
<path d="M15.7196 9.87298C15.7196 9.98962 15.685 10.1037 15.6202 10.2006C15.5554 10.2976 15.4633 10.3732 15.3555 10.4179C15.2477 10.4625 15.1292 10.4742 15.0148 10.4514C14.9004 10.4287 14.7953 10.3725 14.7128 10.29C14.6303 10.2075 14.5741 10.1024 14.5514 9.98804C14.5286 9.87363 14.5403 9.75505 14.5849 9.64728C14.6296 9.53951 14.7052 9.4474 14.8022 9.3826C14.8991 9.31779 15.0132 9.2832 15.1298 9.2832C15.2862 9.2832 15.4363 9.34534 15.5469 9.45594C15.6575 9.56655 15.7196 9.71656 15.7196 9.87298Z" fill="black"/>
</svg>
