<svg width="25" height="25" viewBox="0 0 25 25" fill="none" xmlns="http://www.w3.org/2000/svg">
<path d="M12.5 25C19.4036 25 25 19.4036 25 12.5C25 5.59644 19.4036 0 12.5 0C5.59644 0 0 5.59644 0 12.5C0 19.4036 5.59644 25 12.5 25Z" fill="white"/>
<path d="M18.3099 8.97967C17.8728 9.1703 17.4104 9.29698 16.9372 9.35581C17.436 9.06009 17.809 8.59168 17.9855 8.03933C17.5184 8.31632 17.0075 8.51137 16.4747 8.61604C16.148 8.26733 15.724 8.0249 15.2578 7.92026C14.7916 7.81562 14.3046 7.85359 13.8603 8.02924C13.4159 8.20489 13.0346 8.51011 12.7659 8.90525C12.4973 9.30039 12.3536 9.76719 12.3537 10.245C12.3523 10.4276 12.3714 10.6098 12.4105 10.7882C11.4628 10.7417 10.5355 10.4956 9.6894 10.0662C8.84327 9.63679 8.0973 9.03362 7.50025 8.29615C7.19429 8.82002 7.09965 9.44085 7.23564 10.0321C7.37162 10.6233 7.72798 11.1404 8.23207 11.478C7.85504 11.4679 7.48596 11.3674 7.15593 11.1848V11.2143C7.15655 11.7644 7.34666 12.2975 7.69427 12.7239C8.04187 13.1502 8.52575 13.4438 9.06445 13.5552C8.86052 13.609 8.65034 13.6353 8.43945 13.6337C8.28804 13.6363 8.13679 13.6226 7.98832 13.5927C8.14283 14.0645 8.43951 14.4768 8.83767 14.7733C9.23583 15.0697 9.71596 15.2357 10.2122 15.2484C9.36904 15.909 8.32872 16.2677 7.25763 16.2672C7.06773 16.2683 6.87795 16.2573 6.68945 16.2342C7.77869 16.9364 9.04807 17.3078 10.344 17.3035C11.2361 17.3098 12.1205 17.1388 12.9459 16.8003C13.7712 16.4619 14.5212 15.9628 15.152 15.3321C15.7829 14.7014 16.2822 13.9516 16.6208 13.1263C16.9595 12.301 17.1307 11.4166 17.1247 10.5246C17.1247 10.4194 17.1213 10.3177 17.1162 10.2166C17.586 9.88029 17.9905 9.46112 18.3099 8.97967Z" fill="black"/>
</svg>
