<svg width="25" height="25" viewBox="0 0 25 25" fill="none" xmlns="http://www.w3.org/2000/svg">
<path d="M12.5 25C19.4036 25 25 19.4036 25 12.5C25 5.59644 19.4036 0 12.5 0C5.59644 0 0 5.59644 0 12.5C0 19.4036 5.59644 25 12.5 25Z" fill="white"/>
<path d="M15.7272 7.98259C14.945 7.23169 13.8625 6.81812 12.6792 6.81812C10.8715 6.81812 9.75976 7.55909 9.14541 8.18066C8.38827 8.94667 7.9541 9.96377 7.9541 10.9712C7.9541 12.2362 8.4832 13.2071 9.36924 13.5683C9.42872 13.5926 9.48857 13.6049 9.54725 13.6049C9.73417 13.6049 9.88228 13.4826 9.93359 13.2864C9.9635 13.1739 10.0328 12.8962 10.0629 12.7756C10.1274 12.5376 10.0753 12.4231 9.93465 12.2573C9.67839 11.9541 9.55905 11.5956 9.55905 11.1289C9.55905 9.74284 10.5911 8.26972 12.504 8.26972C14.0218 8.26972 14.9647 9.13238 14.9647 10.521C14.9647 11.3973 14.7759 12.2088 14.4331 12.8062C14.1949 13.2213 13.7759 13.7161 13.1328 13.7161C12.8547 13.7161 12.6049 13.6018 12.4473 13.4027C12.2984 13.2144 12.2493 12.9712 12.3092 12.7177C12.3768 12.4313 12.4691 12.1326 12.5584 11.8438C12.7212 11.3163 12.8751 10.8181 12.8751 10.4206C12.8751 9.74071 12.4572 9.28389 11.8352 9.28389C11.0447 9.28389 10.4254 10.0868 10.4254 11.1117C10.4254 11.6144 10.559 11.9904 10.6194 12.1347C10.5199 12.5567 9.92802 15.0651 9.81576 15.5381C9.75085 15.8142 9.35982 17.9952 10.007 18.1691C10.7342 18.3645 11.3842 16.2404 11.4504 16.0004C11.504 15.8052 11.6916 15.067 11.8066 14.6133C12.1577 14.9514 12.7229 15.18 13.2729 15.18C14.3097 15.18 15.2421 14.7135 15.8984 13.8663C16.535 13.0447 16.8855 11.8995 16.8855 10.6419C16.8855 9.65865 16.4633 8.68937 15.7272 7.98259Z" fill="black"/>
</svg>
