<svg width="25" height="25" viewBox="0 0 25 25" fill="none" xmlns="http://www.w3.org/2000/svg">
<path d="M12.5 25C19.4036 25 25 19.4036 25 12.5C25 5.59644 19.4036 0 12.5 0C5.59644 0 0 5.59644 0 12.5C0 19.4036 5.59644 25 12.5 25Z" fill="white"/>
<path d="M14.3041 8.70495H15.3415V6.89813C15.1625 6.87351 14.547 6.81812 13.8301 6.81812C12.3344 6.81812 11.3097 7.75893 11.3097 9.4881V11.0795H9.65918V13.0994H11.3097V18.1818H13.3334V13.0998H14.9172L15.1686 11.08H13.3329V9.68838C13.3334 9.10457 13.4906 8.70495 14.3041 8.70495Z" fill="black"/>
</svg>
