<svg data-name="Layer 1" xmlns="http://www.w3.org/2000/svg" viewBox="0 0 10.93 11"><path d="M8.94 11a10 10 0 01-4.4-1.59 9.93 9.93 0 01-3-3A10 10 0 010 2.05 1.48 1.48 0 011.27.53h1.59a1.47 1.47 0 011.47 1.2A5.53 5.53 0 004.64 3a1.49 1.49 0 01-.31 1.5L4 4.84A7 7 0 006.13 7l.33-.33A1.49 1.49 0 018 6.32a5.3 5.3 0 001.26.32 1.49 1.49 0 011.25 1.44v1.44A1.48 1.48 0 019.05 11zm-.4-6.19a.49.49 0 01-.48-.4 1.91 1.91 0 00-1.5-1.55.47.47 0 01-.37-.56.48.48 0 01.56-.38A2.87 2.87 0 019 4.25a.48.48 0 01-.39.55zm1.91-.06a.49.49 0 01-.45-.43A3.79 3.79 0 006.6 1a.48.48 0 01-.42-.57.48.48 0 01.53-.43 4.74 4.74 0 014.21 4.22.48.48 0 01-.42.53z" fill="#fff"/></svg>