<svg data-name="Layer 1" xmlns="http://www.w3.org/2000/svg" viewBox="0 0 9.95 10"><path d="M0 10l.7-2.57A5 5 0 1110 5a5 5 0 01-5 4.91 4.87 4.87 0 01-2.36-.6zm2.75-1.59l.15.09a4.06 4.06 0 002.1.58 4.12 4.12 0 10-3.49-1.93l.1.15-.42 1.52z" fill="#fff"/><path d="M7.49 6.14A.59.59 0 007.26 6c-.13-.06-.74-.36-.85-.4s-.2-.06-.28.06a5.6 5.6 0 01-.39.49c-.07.08-.14.09-.27 0a3.23 3.23 0 01-1-.62 3.55 3.55 0 01-.69-.85c-.07-.13 0-.19 0-.26A2 2 0 004 4.23 1.13 1.13 0 004.15 4a.24.24 0 000-.22c0-.06-.28-.67-.38-.92s-.2-.21-.28-.21h-.25a.48.48 0 00-.33.15 1.39 1.39 0 00-.43 1A2.32 2.32 0 003 5.13 5.38 5.38 0 005.1 7c.23.1.47.19.71.27a1.71 1.71 0 00.78 0 1.23 1.23 0 00.83-.59 1 1 0 00.07-.54z" fill-rule="evenodd" fill="#fff"/></svg>