<?xml version="1.0" standalone="no"?>
<!DOCTYPE svg PUBLIC "-//W3C//DTD SVG 20010904//EN"
 "http://www.w3.org/TR/2001/REC-SVG-20010904/DTD/svg10.dtd">
<svg version="1.0" xmlns="http://www.w3.org/2000/svg"
 width="1280.000000pt" height="1280.000000pt" viewBox="0 0 1280.000000 1280.000000"
 preserveAspectRatio="xMidYMid meet">
<metadata>
Created by potrace 1.14, written by Peter Selinger 2001-2017
</metadata>
<g transform="translate(0.000000,1280.000000) scale(0.100000,-0.100000)"
fill="#000000" stroke="none">
<path d="M2778 10235 c-2 -2 -32 -6 -68 -9 -108 -9 -219 -26 -340 -52 -14 -3
-36 -7 -49 -10 -55 -11 -245 -65 -277 -79 -19 -8 -37 -14 -39 -14 -9 1 -96
-32 -153 -58 -29 -12 -59 -23 -67 -23 -8 0 -15 -4 -15 -10 0 -5 -6 -10 -12
-10 -16 0 -180 -83 -268 -135 -36 -21 -75 -43 -87 -49 -13 -6 -23 -14 -23 -18
0 -5 -7 -8 -15 -8 -8 0 -15 -4 -15 -10 0 -5 -7 -10 -15 -10 -8 0 -15 -4 -15
-10 0 -5 -7 -10 -15 -10 -8 0 -15 -4 -15 -8 0 -4 -12 -15 -27 -24 -72 -43
-279 -216 -391 -328 -53 -53 -161 -174 -194 -216 -12 -16 -25 -31 -28 -34 -27
-26 -177 -240 -214 -305 -9 -16 -26 -46 -37 -65 -58 -98 -88 -158 -82 -164 3
-3 2 -6 -4 -6 -6 0 -16 -15 -24 -32 -7 -18 -25 -60 -39 -93 -58 -129 -174
-476 -168 -503 1 -4 -4 -25 -10 -47 -6 -22 -14 -57 -18 -79 -3 -21 -8 -48 -10
-60 -4 -20 -7 -35 -20 -123 -14 -101 -18 -186 -18 -393 1 -204 4 -272 18 -380
6 -39 16 -105 22 -135 3 -11 7 -33 9 -50 3 -16 12 -57 21 -90 8 -33 16 -69 18
-80 2 -11 4 -20 5 -20 3 0 7 -17 16 -57 7 -34 72 -224 91 -265 7 -17 14 -34
14 -37 0 -19 151 -329 163 -334 4 -2 7 -8 7 -13 0 -24 209 -338 232 -347 4 -2
8 -10 8 -18 0 -7 9 -19 20 -26 11 -7 20 -17 20 -21 0 -5 6 -14 12 -22 7 -7 38
-41 68 -75 52 -60 1825 -1835 1926 -1931 27 -25 72 -63 99 -85 28 -21 52 -41
55 -44 23 -26 302 -220 315 -220 3 0 22 -11 43 -24 20 -12 40 -23 43 -22 4 1
15 -6 25 -15 21 -18 175 -93 274 -134 36 -14 79 -32 95 -39 17 -8 55 -21 85
-31 30 -9 62 -19 70 -22 25 -10 31 -12 170 -48 74 -20 149 -37 165 -40 17 -2
30 -5 30 -6 0 -1 16 -3 35 -4 19 -2 35 -4 35 -5 0 -4 98 -18 195 -28 36 -3
160 -6 275 -6 268 -1 370 9 624 59 72 14 296 75 341 92 8 4 17 7 20 8 13 3
179 68 210 82 138 62 287 140 362 189 21 13 42 24 47 24 5 0 11 3 13 8 4 10
65 52 76 52 6 0 33 -16 61 -35 28 -19 53 -35 56 -35 2 0 28 -15 57 -33 29 -18
64 -38 78 -45 14 -7 48 -25 75 -40 143 -78 515 -222 575 -222 9 0 21 -5 28
-12 7 -7 12 -9 12 -6 0 4 15 2 33 -3 17 -6 43 -12 57 -15 14 -2 45 -9 70 -14
51 -11 89 -18 140 -25 19 -3 51 -7 70 -10 19 -3 60 -8 90 -12 82 -8 495 -9
570 0 36 4 83 10 105 12 22 2 56 6 75 10 19 4 44 8 55 10 11 1 38 6 60 10 22
5 47 9 55 10 8 1 22 5 30 8 8 2 56 15 105 27 245 62 547 188 760 317 44 27 91
55 104 63 14 8 30 18 35 23 6 4 58 42 116 84 58 42 107 79 110 82 3 4 32 29
65 56 59 49 1926 1912 1975 1970 14 17 48 57 75 90 68 82 110 136 123 162 7
12 18 27 25 35 19 20 117 176 117 187 0 5 4 11 9 13 8 3 151 279 151 292 0 3
11 29 24 58 14 29 36 87 51 128 14 41 28 81 30 88 2 7 5 14 5 17 0 3 7 23 15
45 8 22 14 41 13 43 0 1 7 29 17 62 15 53 40 163 50 220 36 204 49 356 48 555
0 131 -8 264 -20 345 -2 17 -6 48 -8 70 -5 49 -14 105 -21 125 -3 8 -8 32 -11
53 -3 21 -18 86 -34 145 -16 59 -31 116 -34 127 -9 38 -78 230 -85 240 -5 6
-10 19 -12 30 -1 11 -5 22 -8 25 -11 11 -50 101 -50 115 0 8 -4 15 -8 15 -4 0
-13 14 -19 30 -12 31 -151 281 -162 290 -3 3 -10 12 -16 21 -50 81 -168 239
-212 285 -13 13 -23 25 -23 28 0 10 -181 196 -256 263 -36 32 -85 75 -108 95
-22 21 -45 38 -49 38 -4 0 -20 11 -35 25 -24 22 -134 102 -181 130 -9 6 -18
13 -21 16 -3 3 -57 35 -120 71 -231 131 -481 236 -702 294 -5 1 -10 3 -13 4
-3 1 -9 4 -15 5 -5 1 -11 3 -12 5 -2 1 -12 3 -23 5 -40 7 -71 14 -95 20 -14 3
-34 8 -45 9 -11 2 -36 7 -55 11 -19 4 -44 8 -55 10 -11 1 -20 3 -20 4 0 1 -20
4 -45 6 -25 3 -63 7 -85 10 -207 26 -536 21 -745 -10 -40 -6 -183 -32 -217
-40 -13 -3 -33 -7 -45 -10 -20 -4 -71 -16 -88 -20 -57 -15 -218 -66 -260 -83
-33 -14 -64 -25 -70 -26 -28 -5 -361 -165 -378 -183 -7 -7 -18 -13 -23 -13 -5
0 -52 -27 -104 -61 l-94 -61 -43 30 c-121 82 -334 198 -443 242 -11 4 -38 16
-60 26 -22 10 -44 19 -50 20 -5 1 -34 12 -64 23 -123 49 -382 119 -501 136
-25 3 -53 8 -63 11 -21 7 -49 10 -147 19 -41 4 -91 9 -110 11 -108 11 -421 4
-545 -12 -27 -4 -63 -8 -80 -9 -16 -1 -55 -7 -85 -14 -30 -6 -67 -13 -82 -16
-16 -3 -40 -7 -55 -11 -35 -7 -184 -43 -201 -49 -7 -3 -16 -5 -20 -7 -16 -4
-220 -76 -267 -94 -27 -11 -53 -23 -57 -29 -4 -5 -8 -7 -8 -2 0 4 -11 0 -25
-9 -14 -9 -25 -14 -25 -11 0 2 -55 -24 -121 -59 -67 -35 -126 -64 -130 -64 -5
0 -9 -4 -9 -10 0 -5 -4 -10 -10 -10 -5 0 -47 -24 -93 -54 l-85 -55 -111 70
c-160 100 -301 171 -516 259 -23 10 -174 62 -225 78 -55 17 -281 70 -325 76
-22 3 -51 8 -64 10 -14 3 -47 8 -75 12 -28 3 -67 8 -86 10 -41 6 -507 14 -512
9z m192 -1196 c0 10 198 0 285 -15 72 -13 122 -23 145 -29 14 -3 35 -8 48 -11
33 -7 192 -61 237 -81 22 -9 43 -16 48 -15 4 1 7 -3 7 -8 0 -5 9 -10 20 -10
11 0 20 -4 20 -10 0 -5 7 -10 16 -10 8 0 22 -7 30 -15 12 -12 13 -19 3 -37 -7
-13 -15 -25 -19 -28 -9 -6 -134 -241 -136 -255 -1 -6 -15 -40 -32 -75 -75
-159 -171 -464 -196 -620 -3 -19 -8 -46 -11 -60 -3 -14 -7 -41 -10 -60 -2 -19
-6 -48 -9 -65 -15 -88 -19 -171 -19 -380 0 -316 10 -403 78 -725 10 -43 35
-131 68 -230 17 -52 30 -98 29 -102 -1 -5 2 -8 8 -8 5 0 10 -7 10 -15 0 -21
76 -195 133 -305 84 -161 238 -399 319 -492 13 -14 32 -39 43 -55 11 -15 323
-333 695 -706 371 -373 675 -681 674 -685 -2 -15 -222 -94 -326 -118 -5 -1 -9
-2 -10 -4 -6 -4 -72 -18 -118 -25 -20 -3 -46 -7 -59 -10 -91 -17 -276 -22
-401 -10 -41 5 -90 8 -107 9 -18 1 -33 3 -33 6 0 3 -15 6 -33 7 -17 1 -48 6
-67 12 -101 28 -187 53 -200 58 -8 4 -17 7 -20 8 -71 17 -327 146 -374 187
-11 10 -28 20 -38 24 -10 3 -18 10 -18 15 0 5 -5 9 -11 9 -6 0 -17 6 -24 13
-8 6 -31 26 -52 42 -70 56 -136 121 -1021 1005 -487 487 -911 917 -942 957
-142 177 -245 367 -316 583 -14 41 -29 94 -35 118 -5 23 -14 63 -20 90 -5 26
-12 65 -14 87 -27 254 -23 415 16 600 6 28 13 64 16 80 3 17 9 38 14 48 5 9 7
17 3 17 -3 0 -1 7 6 15 7 8 10 15 7 15 -6 0 27 97 36 107 4 3 7 16 7 28 0 13
7 28 15 35 8 7 15 19 15 27 0 12 72 157 105 211 77 127 148 215 265 333 145
145 261 233 431 323 79 42 283 127 298 124 3 -1 13 1 21 5 27 10 95 31 110 33
8 1 26 5 40 8 51 13 144 26 214 31 32 3 61 6 63 9 2 2 20 0 39 -4 18 -4 34 -5
34 -1z m6990 -12 c177 -24 339 -64 460 -114 128 -53 390 -199 420 -233 3 -3
25 -21 50 -40 48 -37 195 -181 245 -240 123 -145 231 -328 314 -536 26 -66 66
-218 87 -336 19 -105 26 -381 12 -480 -4 -34 -10 -79 -13 -101 -3 -21 -7 -43
-10 -47 -3 -5 -7 -21 -9 -37 -4 -36 -34 -152 -45 -178 -5 -11 -17 -42 -26 -70
-21 -63 -126 -279 -137 -283 -4 -2 -8 -10 -8 -18 0 -8 -4 -14 -10 -14 -5 0
-10 -7 -10 -15 0 -8 -10 -23 -22 -35 -12 -11 -19 -20 -15 -20 8 0 -46 -71
-116 -154 -58 -68 -1820 -1830 -1886 -1886 -30 -25 -59 -50 -65 -55 -28 -27
-228 -155 -240 -155 -8 0 -16 -3 -18 -7 -3 -8 -63 -38 -83 -42 -5 -2 -14 -6
-20 -11 -10 -8 -159 -70 -180 -74 -27 -6 -102 -28 -115 -33 -8 -3 -18 -6 -21
-5 -4 1 -21 -3 -39 -8 -18 -5 -52 -12 -74 -15 -23 -3 -48 -8 -56 -10 -27 -7
-183 -17 -265 -17 -82 0 -270 15 -270 22 0 1 -16 3 -35 4 -19 2 -64 11 -100
21 -36 9 -77 19 -93 22 -15 3 -30 9 -33 14 -3 5 -13 9 -22 9 -26 0 -202 72
-202 83 0 5 278 287 618 627 658 659 683 684 757 776 26 32 51 61 54 64 3 3
24 31 45 63 22 31 43 57 48 57 4 0 8 5 8 11 0 5 19 38 43 72 24 34 56 87 73
117 16 30 32 57 35 60 21 18 189 386 189 416 0 8 5 14 12 14 6 0 9 3 5 6 -3 4
5 36 19 71 13 36 26 75 29 87 2 11 18 72 34 135 17 63 33 128 36 145 2 17 7
45 10 61 34 202 44 310 44 520 0 154 -3 226 -14 325 -13 124 -12 114 -41 268
-2 12 -6 32 -8 45 -8 41 -46 192 -53 207 -8 18 -7 17 -17 60 -5 19 -11 40 -15
45 -3 6 -6 12 -6 15 -1 13 -91 245 -104 265 -3 6 -6 12 -6 15 -1 7 -88 177
-115 225 -13 22 -34 58 -47 81 l-23 41 87 40 c84 39 219 91 254 98 9 2 33 8
52 13 20 6 38 7 41 4 3 -3 6 -1 6 4 0 5 8 10 18 11 10 1 45 6 78 12 32 6 86
14 119 17 33 4 61 7 62 8 4 3 295 -4 323 -7z m-3329 -13 c138 -22 228 -44 341
-84 367 -131 661 -357 891 -687 21 -29 37 -57 37 -63 0 -5 5 -10 10 -10 6 0
10 -5 10 -10 0 -6 10 -27 23 -48 48 -78 145 -313 162 -392 2 -8 4 -15 5 -15 3
0 29 -128 36 -175 2 -19 7 -51 10 -70 13 -78 20 -253 10 -269 -4 -6 -2 -11 4
-11 6 0 8 -5 4 -11 -3 -6 -8 -38 -9 -72 -2 -34 -6 -75 -9 -92 -3 -16 -8 -48
-11 -70 -40 -269 -186 -591 -374 -825 -48 -60 -1379 -1400 -1391 -1400 -7 0
-1349 1348 -1375 1380 -10 14 -41 54 -67 90 -26 36 -51 70 -56 75 -8 10 -71
122 -105 185 -10 19 -27 58 -38 85 -12 28 -27 64 -34 80 -14 32 -50 145 -59
185 -3 14 -11 45 -16 70 -6 25 -13 59 -15 75 -2 17 -7 50 -12 75 -9 56 -10
386 -1 460 5 44 31 168 53 260 10 42 61 182 83 230 14 30 26 57 27 60 1 13
130 231 147 249 10 11 18 23 18 26 0 27 227 268 311 331 18 13 35 28 38 32 9
13 223 152 233 152 6 0 21 9 35 20 14 11 29 18 33 15 4 -3 13 2 20 10 7 8 18
15 25 15 7 0 42 14 78 30 37 17 75 32 84 34 10 1 30 8 46 14 15 7 38 14 50 17
12 2 60 13 107 24 47 12 112 23 145 27 33 3 62 8 64 10 10 9 357 0 432 -12z"/>
</g>
</svg>
