<svg width="61" height="61" fill="none" xmlns="http://www.w3.org/2000/svg"><path d="M26.226 37.873a3.09 3.09 0 01-2.192-.907 14.556 14.556 0 010-20.557L35.472 4.971A14.446 14.446 0 0145.75.713a14.45 14.45 0 0110.279 4.258 14.556 14.556 0 010 20.558l-5.227 5.226a3.1 3.1 0 01-4.38-4.38l5.226-5.227a8.35 8.35 0 00-5.898-14.24c-2.226 0-4.323.87-5.898 2.444L28.415 20.79a8.35 8.35 0 000 11.795 3.1 3.1 0 01-2.192 5.288h.003z" fill="#fff"/><path d="M15.25 60.287A14.445 14.445 0 014.972 56.03a14.556 14.556 0 010-20.558l5.226-5.226a3.1 3.1 0 014.381 4.38l-5.227 5.227a8.35 8.35 0 005.898 14.24c2.23 0 4.323-.87 5.898-2.444L32.586 40.21a8.349 8.349 0 000-11.795 3.1 3.1 0 014.38-4.381 14.556 14.556 0 010 20.557L25.53 56.029a14.447 14.447 0 01-10.279 4.258z" fill="#fff"/></svg>