<svg width="15" height="15" fill="none" xmlns="http://www.w3.org/2000/svg"><path d="M10 7.5c0-.69-.244-1.28-.732-1.768A2.409 2.409 0 007.5 5c-.69 0-1.28.244-1.768.732A2.409 2.409 0 005 7.5c0 .69.244 1.28.732 1.768A2.409 2.409 0 007.5 10c.69 0 1.28-.244 1.768-.732A2.409 2.409 0 0010 7.5zm1.348 0c0 1.068-.375 1.976-1.123 2.725-.75.748-1.657 1.123-2.725 1.123s-1.976-.375-2.725-1.123c-.748-.75-1.123-1.657-1.123-2.725s.375-1.976 1.123-2.725c.75-.748 1.657-1.123 2.725-1.123s1.976.375 2.725 1.123c.748.75 1.123 1.657 1.123 2.725zm1.054-4.004a.865.865 0 01-.263.635.865.865 0 01-.635.264.865.865 0 01-.635-.264.866.866 0 01-.264-.635c0-.247.088-.459.264-.635a.865.865 0 01.635-.263.87.87 0 01.635.263.865.865 0 01.263.635zM7.5 1.348l-.747-.005a53.063 53.063 0 00-1.03 0 32.67 32.67 0 00-.943.03 7.74 7.74 0 00-1.006.097 4.006 4.006 0 00-.698.18c-.325.13-.612.32-.86.567a2.534 2.534 0 00-.566.86 3.915 3.915 0 00-.18.697 7.74 7.74 0 00-.098 1.006c-.016.394-.026.708-.03.943-.002.234-.002.577 0 1.03l.006.747-.005.747c-.003.453-.003.796 0 1.03.003.235.013.549.03.943.015.394.048.729.097 1.006.049.276.109.509.18.698a2.552 2.552 0 001.427 1.426c.188.071.42.131.697.18.277.05.612.082 1.006.098s.708.026.943.03c.234.003.577.003 1.03 0l.747-.006.747.005a32.67 32.67 0 001.973-.03 7.51 7.51 0 001.006-.097c.276-.049.509-.109.698-.18a2.552 2.552 0 001.426-1.427c.071-.188.131-.42.18-.697.05-.277.082-.612.098-1.006s.026-.708.03-.943c.003-.234.003-.577 0-1.03a291.82 291.82 0 01-.006-.747l.005-.747c.004-.453.004-.796 0-1.03a35.83 35.83 0 00-.03-.943 7.732 7.732 0 00-.097-1.006 3.923 3.923 0 00-.18-.698 2.533 2.533 0 00-.567-.86 2.534 2.534 0 00-.86-.566 3.915 3.915 0 00-.697-.18 7.74 7.74 0 00-1.006-.098 36.179 36.179 0 00-.943-.03 53.063 53.063 0 00-1.03 0l-.747.006zM15 7.5c0 1.49-.016 2.523-.049 3.096-.065 1.354-.469 2.402-1.21 3.144-.743.742-1.791 1.146-3.145 1.211-.573.033-1.605.049-3.096.049-1.49 0-2.523-.016-3.096-.049-1.354-.065-2.402-.469-3.144-1.21C.518 12.997.114 11.95.049 10.595.016 10.023 0 8.99 0 7.5c0-1.49.016-2.523.049-3.096.065-1.354.469-2.402 1.21-3.144C2.003.518 3.05.114 4.405.049 4.977.016 6.01 0 7.5 0c1.49 0 2.523.016 3.096.049 1.354.065 2.402.469 3.144 1.21.742.743 1.146 1.791 1.211 3.145.033.573.049 1.605.049 3.096z" fill="#fff"/></svg>