<svg width="153" height="21" fill="none" xmlns="http://www.w3.org/2000/svg"><g clip-path="url(#clip0_2:178)" fill="#fff"><path d="M27.702 11.224h6.412V7.726h-6.412V3.499h8.5V0H23.674v20.41h12.824v-3.5h-8.796v-5.687zM48.507 0h-4.026v20.41h12.825v-3.5h-8.799V0zm18.935 0h-4.025v20.41h4.025V0zM81.76 0l-8.95 20.41h4.207l1.968-4.52h8.382l1.977 4.52h4.207L84.594 0H81.76zm-1.255 12.392l2.653-6.035 2.655 6.035h-5.308zm30.069-3.442a5.268 5.268 0 001.34-3.41 5.341 5.341 0 00-.511-2.262 5.467 5.467 0 00-1.426-1.85C108.973.554 107.65 0 105.294 0h-7.1v20.41h8.144c2.685 0 4.294-.7 5.458-1.838a6.15 6.15 0 001.408-2.012 6.053 6.053 0 00.5-2.39c0-2.274-1.27-4.315-3.13-5.22zm-8.352-5.451h2.833c1.255 0 1.82.291 2.236.736.384.393.597.915.597 1.458 0 .543-.213 1.065-.597 1.459-.416.436-.983.736-2.236.736h-2.833v-4.39zm6.711 12.512c-.502.554-1.283.905-2.686.905h-4.015v-5.545h4.015c1.403 0 2.179.349 2.686.903a2.72 2.72 0 01.745 1.866 2.72 2.72 0 01-.745 1.866v.005zM125.266 0h-4.026v20.41h12.825v-3.5h-8.799V0zm18.938 16.911v-5.687h6.412V7.726h-6.412V3.499h8.5V0h-12.528v20.41H153v-3.5h-8.796zM9.198 11.259a5.715 5.715 0 002.971-1.404 5.718 5.718 0 001.367-1.898 5.606 5.606 0 000-4.545 5.718 5.718 0 00-1.367-1.898C11.125.584 9.753 0 7.604 0H0v20.41h4.015v-9.04h1.022a11.926 11.926 0 004.305 6.622 12.405 12.405 0 007.578 2.586v-3.925a8.322 8.322 0 01-4.741-1.494 8.03 8.03 0 01-2.981-3.901zm-5.183-7.76h3.35c1.165 0 1.672.262 2.029.64a2.341 2.341 0 010 3.12c-.357.38-.864.614-2.028.614h-3.35V3.499z"/></g><defs><clipPath id="clip0_2:178"><path fill="#fff" d="M0 0h153v20.579H0z"/></clipPath></defs></svg>