<svg width="1440" height="678" fill="none" xmlns="http://www.w3.org/2000/svg"><mask id="a" style="mask-type:alpha" maskUnits="userSpaceOnUse" x="0" y="0" width="1440" height="678"><path fill="#C4C4C4" d="M0 0h1440v678H0z"/></mask><g opacity=".01" fill-rule="evenodd" clip-rule="evenodd" fill="#fff" mask="url(#a)"><path d="M87.112 388.437c0 25.048 20.253 45.56 45.422 45.56 24.972 0 45.422-20.709 45.422-45.757 0-25.047-20.253-45.559-45.422-45.559-25.169 0-45.422 20.709-45.422 45.756zm-30.48-45.748H.002v213.004h56.63V342.689zm121.324 120.967h-91.04c0 50.293 40.899 91.316 91.04 91.316v-91.316zm180.843 275.087c0-25.048-20.253-45.559-45.422-45.559-24.972 0-45.422 20.709-45.422 45.756 0 25.048 20.253 45.56 45.422 45.56 25.169 0 45.422-20.709 45.422-45.757zm30.48 45.749h56.63V571.488h-56.63v213.004zM267.955 663.525h91.041c0-50.293-40.9-91.316-91.041-91.316v91.316zM45.756 697.389c25.048 0 45.56-20.253 45.56-45.422 0-24.973-20.71-45.422-45.757-45.422C20.512 606.545 0 626.798 0 651.967c0 25.169 20.709 45.422 45.756 45.422zM.008 727.869v56.63h213.004v-56.63H.008zm120.967-121.325v91.041c50.293 0 91.316-40.899 91.316-91.041h-91.316zm279.178-176.753c-25.048 0-45.559 20.253-45.559 45.422 0 24.973 20.708 45.423 45.756 45.423 25.048 0 45.559-20.254 45.559-45.423s-20.708-45.422-45.756-45.422zm45.749-30.479v-56.631H232.898v56.631h213.004zM324.934 520.636v-91.041c-50.292 0-91.315 40.899-91.315 91.041h91.315zM87.112-92.244c0 25.048 20.253 45.56 45.422 45.56 24.973 0 45.423-20.71 45.423-45.757 0-25.047-20.254-45.559-45.423-45.559s-45.422 20.709-45.422 45.756zm-30.48-45.748H.003V75.012h56.63v-213.004zM177.958-17.025H86.916c0 50.293 40.899 91.316 91.041 91.316v-91.316zm180.841 275.087c0-25.048-20.253-45.559-45.422-45.559-24.973 0-45.422 20.709-45.422 45.756 0 25.048 20.253 45.559 45.422 45.56 25.169 0 45.422-20.709 45.422-45.757zm30.48 45.749h56.63V90.807h-56.63V303.81zM267.954 182.844h91.041c0-50.293-40.899-91.316-91.041-91.316v91.316zM45.757 216.708c25.048 0 45.56-20.253 45.56-45.422 0-24.972-20.71-45.422-45.757-45.422-25.048 0-45.56 20.253-45.56 45.422 0 25.169 20.71 45.422 45.757 45.422zM.008 247.188v56.63h213.004v-56.63H.008zm120.968-121.324v91.041c50.292 0 91.315-40.9 91.315-91.041h-91.315zM400.153-50.89c-25.048 0-45.559 20.253-45.559 45.422 0 24.973 20.708 45.423 45.756 45.423 25.048 0 45.559-20.254 45.559-45.423S425.201-50.89 400.153-50.89zm45.749-30.48V-138H232.898v56.63h213.004zM324.934 39.956v-91.041c-50.292 0-91.315 40.9-91.315 91.04h91.315zM897.255-50.89c-25.047 0-45.559 20.253-45.559 45.422 0 24.973 20.709 45.423 45.756 45.423 25.048 0 45.56-20.254 45.56-45.423S922.303-50.89 897.255-50.89zm45.749-30.48V-138H730v56.63h213.004zM822.037 39.956v-91.041c-50.293 0-91.316 40.9-91.316 91.04h91.316zM584.158 388.437c0 25.048 20.253 45.56 45.422 45.56 24.972 0 45.422-20.709 45.422-45.757 0-25.047-20.253-45.559-45.422-45.559-25.169 0-45.422 20.709-45.422 45.756zm-30.48-45.748h-56.63v213.004h56.63V342.689zm121.324 120.967h-91.041c0 50.293 40.9 91.316 91.041 91.316v-91.316zm180.843 275.087c0-25.048-20.253-45.56-45.422-45.56-24.973 0-45.422 20.709-45.422 45.757s20.253 45.559 45.422 45.559c25.169 0 45.422-20.709 45.422-45.756zm30.479 45.749h56.631V571.487h-56.63l-.001 213.005zM765 663.524h91.041c0-50.292-40.899-91.315-91.041-91.315v91.315zm-222.198 33.865c25.048 0 45.56-20.253 45.56-45.422 0-24.973-20.709-45.422-45.757-45.422s-45.559 20.253-45.559 45.422c0 25.169 20.709 45.422 45.756 45.422zm-45.749 30.48v56.63h213.005v-56.63H497.053zm120.968-121.325v91.041c50.292 0 91.315-40.899 91.315-91.041h-91.315zm279.178-176.753c-25.048 0-45.56 20.253-45.56 45.422 0 24.973 20.709 45.422 45.757 45.422s45.559-20.253 45.559-45.422c0-25.169-20.709-45.422-45.756-45.422zm45.749-30.479v-56.631H729.943v56.631h213.005zM821.98 520.636v-91.041c-50.293 0-91.316 40.899-91.316 91.041h91.316zM584.156-92.243c0 25.047 20.253 45.559 45.422 45.559C654.55-46.684 675-67.393 675-92.441 675-117.488 654.747-138 629.578-138c-25.169 0-45.422 20.709-45.422 45.757zm-30.48-45.749h-56.63V75.012h56.63v-213.004zM675-17.025h-91.041c0 50.293 40.9 91.316 91.041 91.316v-91.316zm180.845 275.087c0-25.048-20.253-45.559-45.422-45.559-24.973 0-45.423 20.708-45.423 45.756 0 25.048 20.254 45.559 45.423 45.559s45.422-20.708 45.422-45.756zm30.479 45.749h56.631V90.807h-56.631V303.81zM765 182.843h91.041c0-50.292-40.899-91.315-91.041-91.315v91.315zm-222.198 33.866c25.048 0 45.56-20.253 45.56-45.422 0-24.972-20.709-45.422-45.757-45.422s-45.559 20.253-45.559 45.422c0 25.169 20.709 45.422 45.756 45.422zm-45.749 30.48v56.63h213.005v-56.63H497.053zm120.968-121.324v91.041c50.292 0 91.315-40.9 91.315-91.041h-91.315zM1081.2 388.437c0 25.048 20.25 45.56 45.42 45.56 24.98 0 45.43-20.709 45.43-45.757 0-25.047-20.26-45.559-45.43-45.559-25.17 0-45.42 20.709-45.42 45.756zm-30.48-45.748h-56.628v213.004h56.628V342.689zm121.33 120.967h-91.04c0 50.293 40.89 91.316 91.04 91.316v-91.316zm180.84 275.087c0-25.048-20.25-45.56-45.42-45.56-24.98 0-45.43 20.709-45.43 45.757s20.26 45.559 45.43 45.559c25.17 0 45.42-20.709 45.42-45.756zm30.48 45.749H1440V571.487h-56.63v213.005zm-121.33-120.968h91.05c0-50.292-40.9-91.315-91.05-91.315v91.315zm-222.19 33.865c25.04 0 45.56-20.253 45.56-45.422 0-24.973-20.71-45.422-45.76-45.422-25.05 0-45.56 20.253-45.56 45.422 0 25.169 20.71 45.422 45.76 45.422zm-45.753 30.48v56.63H1207.1v-56.63H994.097zm120.963-121.325v91.041c50.3 0 91.32-40.899 91.32-91.041h-91.32zm279.18-176.753c-25.04 0-45.56 20.253-45.56 45.422 0 24.973 20.71 45.422 45.76 45.422 25.05 0 45.56-20.253 45.56-45.422 0-25.169-20.71-45.422-45.76-45.422zm45.75-30.479v-56.631h-213v56.631h213zm-120.97 121.324v-91.041c-50.29 0-91.31 40.899-91.31 91.041h91.31zM1081.2-92.243c0 25.047 20.25 45.559 45.42 45.559 24.97 0 45.42-20.709 45.42-45.757 0-25.047-20.25-45.559-45.42-45.559s-45.42 20.709-45.42 45.757zm-30.48-45.749h-56.63V75.012h56.63v-213.004zm121.32 120.967H1081c0 50.293 40.9 91.316 91.04 91.316v-91.316zm180.85 275.087c0-25.048-20.25-45.559-45.42-45.559-24.98 0-45.43 20.708-45.43 45.756 0 25.048 20.26 45.559 45.43 45.559 25.17 0 45.42-20.708 45.42-45.756zm30.48 45.749H1440V90.807h-56.63V303.81zm-121.33-120.968h91.05c0-50.292-40.9-91.315-91.05-91.315v91.315zm-222.19 33.867c25.04 0 45.56-20.254 45.56-45.423 0-24.972-20.71-45.422-45.76-45.422-25.05 0-45.559 20.253-45.559 45.422 0 25.169 20.709 45.423 45.759 45.423zm-45.752 30.479v56.63H1207.1v-56.63H994.098zm120.972-121.324v91.041c50.29 0 91.31-40.9 91.31-91.041h-91.31zm279.17-176.754c-25.04 0-45.56 20.254-45.56 45.423 0 24.972 20.71 45.422 45.76 45.422 25.05 0 45.56-20.253 45.56-45.422 0-25.17-20.71-45.422-45.76-45.422zm45.75-30.479v-56.63h-213v56.63h213zM1319.03 39.956v-91.04c-50.3 0-91.32 40.899-91.32 91.04h91.32z"/></g></svg>