<svg width="15" height="15" fill="none" xmlns="http://www.w3.org/2000/svg"><path d="M7.5 0C3.375 0 0 3.375 0 7.5S3.375 15 7.5 15 15 11.625 15 7.5 11.662 0 7.5 0zm3.45 10.837c-.15.225-.412.3-.638.151C8.548 9.9 6.336 9.674 3.71 10.274c-.261.077-.487-.11-.562-.337-.076-.263.112-.486.338-.562 2.849-.638 5.325-.375 7.274.826.263.111.3.411.189.636zm.9-2.062c-.188.262-.525.375-.788.187C9.037 7.726 5.962 7.349 3.6 8.1c-.298.076-.638-.075-.712-.374-.076-.301.075-.64.375-.714C6 6.187 9.376 6.6 11.7 8.026c.225.112.338.486.15.75zm.075-2.101c-2.4-1.424-6.413-1.574-8.7-.86a.704.704 0 01-.863-.45.703.703 0 01.45-.865c2.663-.787 7.05-.638 9.826 1.014.337.187.45.638.262.975-.187.262-.637.374-.975.186z" fill="#fff"/></svg>