<svg width="31" height="31" version="1.1" id="Layer_1" xmlns="http://www.w3.org/2000/svg" x="0" y="0" viewBox="0 0 32 31" xml:space="preserve"><style>.st0{fill-rule:evenodd;clip-rule:evenodd;fill:#00ac4e}</style><path class="st0" d="M21.9 18h-9.8L10 10.3h15.8L21.9 18zM28 8.9c-.5-.8-1.3-1.2-2.2-1.2H9.3l-.8-2.9c-.2-.6-.7-.9-1.3-.9H4.6c-.7 0-1.3.6-1.3 1.3s.6 1.3 1.3 1.3h1.6l3.6 13.2c.2.6.7.9 1.2.9h11.6c.5 0 .9-.3 1.2-.7l4.2-8.4c.5-.9.5-1.8 0-2.6zM10.4 23.2c-1.1 0-1.9.9-1.9 1.9 0 1.1.9 1.9 1.9 1.9 1.1 0 1.9-.9 1.9-1.9.1-1.1-.8-1.9-1.9-1.9zm11 1.9c0-1.1.9-1.9 1.9-1.9s1.9.9 1.9 1.9c0 1.1-.9 1.9-1.9 1.9s-1.9-.8-1.9-1.9z"/><path class="st0" d="M21.9 18h-9.8L10 10.3h15.8L21.9 18zM28 8.9c-.5-.8-1.3-1.2-2.2-1.2H9.3l-.8-2.9c-.2-.6-.7-.9-1.3-.9H4.6c-.7 0-1.3.6-1.3 1.3s.6 1.3 1.3 1.3h1.6l3.6 13.2c.2.6.7.9 1.2.9h11.6c.5 0 .9-.3 1.2-.7l4.2-8.4c.5-.9.5-1.8 0-2.6zM10.4 23.2c-1.1 0-1.9.9-1.9 1.9 0 1.1.9 1.9 1.9 1.9 1.1 0 1.9-.9 1.9-1.9.1-1.1-.8-1.9-1.9-1.9zm11 1.9c0-1.1.9-1.9 1.9-1.9s1.9.9 1.9 1.9c0 1.1-.9 1.9-1.9 1.9s-1.9-.8-1.9-1.9z"/></svg>