<svg xmlns="http://www.w3.org/2000/svg" viewBox="0 0 17 17"><path d="M4.7 2.8c-1 0-1.8.8-1.8 1.8 0 5.2 4.3 9.5 9.5 9.5 1 0 1.8-.8 1.8-1.8v-.2l-3.3-.8c-.1.1-.1.3-.2.4-.3.6-.6 1.1-1.2.8-2.3-.8-4.3-2.7-5.1-5.1-.2-.5.3-.8.9-1.1.1-.1.3-.1.4-.2l-.8-3.3h-.2zm7.6 12.8c-6 0-10.9-4.9-10.9-10.9 0-1.8 1.5-3.3 3.3-3.3h.5c.2 0 .3.1.5.1.3.2.4.4.5.6l1 4.2c0 .3-.1.5-.2.7-.1.1-.1.1-1 .5.7 1.6 2 2.8 3.5 3.5.5-.9.5-.9.6-1 .2-.2.4-.2.6-.2l4.2 1c.2.1.4.2.5.5.1.2.1.3.1.5v.5c.1 1.8-1.4 3.3-3.2 3.3z" fill-rule="evenodd" clip-rule="evenodd" fill="#00ac4e"/></svg>