<svg width="13" height="13" fill="none" xmlns="http://www.w3.org/2000/svg"><path fill-rule="evenodd" clip-rule="evenodd" d="M8.937 10.906a.504.504 0 01-.232-.057L6.138 9.51l-2.564 1.34a.504.504 0 01-.729-.532l.489-2.831-2.073-2.005a.504.504 0 01.278-.86l2.867-.416L5.69 1.627c.17-.343.731-.343.901 0l1.282 2.578 2.867.417a.502.502 0 01.278.86L8.944 7.485l.489 2.831a.503.503 0 01-.496.589z" fill="#000"/><mask id="a" style="mask-type:alpha" maskUnits="userSpaceOnUse" x="1" y="1" width="11" height="10"><path fill-rule="evenodd" clip-rule="evenodd" d="M8.937 10.906a.504.504 0 01-.232-.057L6.138 9.51l-2.564 1.34a.504.504 0 01-.729-.532l.489-2.831-2.073-2.005a.504.504 0 01.278-.86l2.867-.416L5.69 1.627c.17-.343.731-.343.901 0l1.282 2.578 2.867.417a.502.502 0 01.278.86L8.944 7.485l.489 2.831a.503.503 0 01-.496.589z" fill="#fff"/></mask><g mask="url(#a)"><path fill="#00AC4E" d="M.103.341h12.074v12.074H.103z"/></g></svg>