<svg width="128" height="104" viewBox="0 0 128 104" fill="none" xmlns="http://www.w3.org/2000/svg">
<path d="M112.98 56.0006C105.417 57.9678 95.9657 61.0583 88.1349 61.486C89.5812 64.1586 90.5948 68.4234 90.7726 71.6781C90.9668 75.2334 91.6108 79.2745 92.5314 82.7133C93.1119 84.8815 93.6828 86.8614 93.8066 89.1267C93.8332 89.6137 94.5479 93.3793 94.4498 93.4952C93.0115 95.1937 69.5521 67.7499 68.5977 65.7334C66.3628 61.0115 66.9951 64.2636 65.9555 67.101C64.183 71.9388 63.1729 77.9107 60.5405 82.2588C56.6947 88.6113 52.8062 94.8212 48.7928 101.065C47.8698 102.501 48.1526 100.984 48.0989 100.002L47.8292 95.0629L46.7501 75.3058C46.5928 72.4261 46.5315 69.5196 46.2771 66.6467C46.163 65.3573 45.0064 65.5259 44.1124 65.1136C31.1063 59.1167 17.4639 54.9358 4.79506 47.9954C4.48288 47.8244 0.955162 46.4997 2.62368 46.3403C4.65535 46.1463 6.70846 46.2413 8.72612 45.8847C16.1985 44.5643 23.9189 43.5259 31.4943 43.1121C34.0018 42.9752 38.1063 41.8876 40.5288 42.8939C42.1142 43.5525 40.4416 41.7402 40.2083 41.2601C38.264 37.258 37.0867 33.7665 36.1436 29.2805C35.1115 24.3717 34.1555 19.7079 34.1018 14.6523C34.071 11.7542 33.8099 8.05461 34.6008 5.2674C35.1083 3.47884 39.2009 6.81503 40.1515 7.41066C48.0869 12.3831 53.8977 18.9813 59.1977 26.9816C59.8766 28.0064 63.774 34.5673 63.5288 30.0783C63.2847 25.609 70.4909 20.3382 73.026 17.6944C76.4525 14.1208 79.9147 10.8074 83.9428 8.01573C86.2489 6.41748 88.5729 5.05207 91.0523 3.77429C91.269 3.66259 92.7053 2.39963 92.9707 2.38513C93.0933 2.37844 92.7907 3.85255 92.8129 4.25915C92.8549 5.02742 92.5754 6.24035 92.4136 7.00261C91.7993 9.8965 91.1943 12.9477 90.5624 15.972C88.7965 24.4252 83.1317 31.3084 81.0374 39.4888C80.55 41.3925 86.4698 41.2817 87.6188 41.4534C92.4743 42.179 97.2941 43.6507 102.079 44.792C107.72 46.1375 113.133 48.1444 118.659 49.9107C119.253 50.1003 124.993 51.5758 125.049 52.5892C125.058 52.7594 113.971 55.743 112.98 56.0006Z" fill="#FF5555"/>
<path d="M56.8084 51.9646C56.8084 50.8114 56.8084 49.5814 56.4241 48.4666C56.2703 48.1975 56.2319 47.8516 56.155 47.5825C56.0397 47.2366 55.9243 46.9291 55.7322 46.6984C54.6174 45.4299 53.2336 44.6227 51.427 44.5074C51.1195 44.5074 50.812 44.3152 50.5044 44.2768C50.1201 44.1614 49.7357 44.0461 49.3128 44.0461C48.1212 44.0461 47.5062 43.6617 47.0449 42.547C46.5452 41.3938 46.5068 40.1253 46.6605 38.8953C46.8143 38.2418 46.8912 37.5884 47.1602 36.9349C47.4293 36.0124 48.0828 35.7433 48.8131 36.3968C49.5819 37.0502 50.4276 37.1271 51.2732 37.0887C52.9645 37.0118 54.5021 37.5884 55.9243 38.434C56.1165 38.5878 56.2319 38.78 56.3856 38.9722C57.3466 40.2791 57.9232 41.4323 58.0769 43.0852C58.1538 44.6612 57.9232 46.1603 57.9232 48.1975C57.9616 48.3129 57.9232 48.4282 57.9232 48.5819C58.1154 50.1195 58.0769 52.349 57.9616 53.8865C57.9232 54.5015 58.0385 54.54 58.6151 54.6937C59.3454 54.8859 59.8836 55.5778 59.6145 56.2697C59.3454 56.8463 59.1532 57.692 58.8842 58.2686C58.6535 58.8836 58.4613 59.6908 58.2691 60.3443C58.0001 61.1899 57.1928 61.8434 56.2703 61.7665C54.2715 61.6512 51.3885 61.5743 49.3897 61.6897L47.66 61.805C47.0834 61.8434 46.5452 61.8434 46.1224 61.4206C45.738 61.1131 45.5458 60.7287 45.6996 60.1905C45.8918 59.6139 46.0455 58.9989 46.353 58.3839C46.7374 57.5767 47.1602 56.9232 47.5062 56.0391C47.8521 55.2703 48.3134 54.8091 49.1975 54.7706C50.3507 54.7322 51.5423 54.8475 52.3495 54.8475C53.3105 54.8475 53.8871 54.6937 54.7712 54.8475C55.1556 54.8859 55.54 54.8475 55.8475 54.8091C56.4241 54.6937 56.6931 54.3094 56.6931 53.7712C56.77 53.1946 56.8084 52.5796 56.8084 51.9646ZM50.5044 48.2744C50.1201 48.5435 50.0432 48.8894 50.0047 49.197C49.9663 49.5045 50.0816 49.8504 50.3891 50.1579C50.6966 50.5039 51.081 50.6192 51.3501 50.5423C51.6961 50.427 52.0036 50.3117 52.2342 49.9273C52.5802 49.3507 52.4648 48.8894 52.0036 48.4666C51.6192 48.0438 50.9273 48.0054 50.5044 48.2744Z" fill="#EAEAE8"/>
<path d="M78.6144 39.7659C78.7681 40.9191 78.4606 42.1107 78.1531 43.1101C77.7687 44.3017 77.3843 44.417 76.5002 43.4561C75.1549 41.9569 75.3086 42.9948 74.5783 43.9558C73.9248 44.8014 73.9248 44.9552 74.5014 45.5318C75.1933 46.2237 75.8468 46.6465 76.5002 47.5306C76.7693 47.915 77.0384 48.3378 77.269 48.6453C78.1531 49.8369 78.5375 51.1823 78.5759 52.7967C78.5759 54.4496 78.3069 56.3716 77.8456 57.9091C77.7687 58.1782 77.6918 58.3704 77.6149 58.5242C77.4228 58.8317 77.1537 59.0623 76.8462 59.0623C76.4233 59.0623 76.3465 58.7548 76.2311 58.4088C76.1543 57.9476 76.1543 57.4094 76.0389 56.9097C75.8852 55.9103 75.1164 54.8724 74.2323 53.6808C73.7326 53.0658 72.4641 51.6436 71.9644 51.067C71.9644 51.067 70.2731 48.4147 68.774 46.7234C68.1974 46.0699 67.8899 45.6855 67.5055 45.8008C67.0058 45.993 66.9673 46.1852 66.852 46.9924C66.6983 47.9534 67.6977 49.2988 68.1589 50.106C68.5433 50.7979 69.1968 52.5661 69.6965 53.2964C70.619 54.6418 70.7728 56.2178 70.3115 57.7554C70.1578 58.3704 69.7349 58.7164 69.1199 58.7548C68.5049 58.7932 67.8899 58.7932 67.2748 58.7932C66.8905 58.7932 65.5067 58.7932 65.1223 58.8701C64.8147 58.9085 64.5072 58.9085 64.2382 58.6779C63.8153 58.3704 63.8538 58.1782 64.1997 57.7554C64.315 57.5247 64.5072 57.2941 64.5457 57.025C64.661 56.2947 64.8147 55.6028 64.8147 54.8724C64.8147 54.6803 64.7763 53.3733 64.6994 52.9505C64.315 50.8363 63.9691 48.7991 64.3535 47.569C64.5457 46.9924 65.0069 46.4543 65.5451 45.8393C65.891 45.4549 66.1601 45.1858 66.2754 44.9552C66.5445 44.6477 66.4676 44.3402 66.237 43.9558C65.622 42.8795 65.4682 42.841 64.8532 42.0722C64.315 41.4188 64.1228 40.6116 63.9307 39.9197C63.6616 38.9587 63.6231 38.113 63.7 37.2674C63.7 36.6908 63.7769 36.1142 64.4688 34.9226C64.7379 34.4229 65.0454 34.1922 65.5067 34.0001C65.9679 33.8079 66.3139 33.8079 66.3523 34.346C66.4676 34.7304 66.3907 35.2301 66.5061 35.6145C66.6598 36.2295 67.3133 37.0367 67.6592 37.5364C68.3896 38.9202 69.6965 40.4578 70.7344 41.8801L71.0419 42.226C71.3878 42.5335 71.7722 42.9179 72.1182 43.3792C72.8101 44.3017 73.1176 44.1864 73.4635 43.6867C74.1939 42.8026 74.4629 41.9185 73.6942 40.8422C73.3867 40.4194 73.1176 40.3041 72.7716 39.9581C71.8875 39.1509 71.4647 38.2283 71.3494 37.0752C71.3109 36.0758 72.5026 34.4229 73.1945 33.9232C73.7326 33.5388 74.117 33.5003 74.4629 34.0385C74.8089 34.5382 75.347 35.2685 75.8852 35.6914C77.4612 36.9599 78.4606 38.3052 78.6144 39.7659Z" fill="#EAEAE8"/>
</svg>
