<svg width="83" height="85" fill="none" xmlns="http://www.w3.org/2000/svg"><g clip-path="url(#clip0_5:1760)" fill="#46A358"><path d="M44.3 44.027c.02.484.16.942.418 1.355.221.36.787.016.565-.34a2.059 2.059 0 01-.317-1.025c-.02-.422-.682-.409-.665.01zm8.51-.043c-.034.183-.07.363-.103.547-.033.173.06.353.238.399.166.042.37-.062.404-.236.033-.183.07-.363.102-.546.033-.174-.06-.354-.238-.4-.165-.042-.37.063-.404.236zm4.53.651c.427-.01.414-.664-.013-.654-.427.01-.414.664.013.654zm-24.858 1.159c.427-.01.414-.664-.013-.655-.427.01-.414.664.013.655z"/><path d="M44.589 4.387a75.815 75.815 0 00-4.101 23.121 75.29 75.29 0 001.658 17.222c.301 1.394.457 2.987 1.503 4.05.446.455 1.131-.255.688-.706-1.129-1.148-1.244-3.576-1.536-5.078a72.691 72.691 0 01-.873-5.735 74.862 74.862 0 01-.414-10.96c.261-7.381 1.642-14.68 4.038-21.672.205-.598-.762-.837-.963-.242zm3.851.134c1.338 7.444 1.37 15.05 1.639 22.585.126 3.54.34 7.09.268 10.633-.076 3.677-.8 7.135-1.777 10.669-.169.612.794.85.963.242.917-3.308 1.645-6.573 1.784-10.015.155-3.844-.106-7.708-.242-11.545-.271-7.627-.328-15.312-1.681-22.847-.113-.621-1.066-.34-.953.278zm7.189 12.789c.453 10.185.864 20.494-1.651 30.47-.156.615.807.853.963.242 2.535-10.06 2.14-20.461 1.68-30.731-.029-.632-1.022-.615-.992.02z"/><path d="M52.823 17.46c-1.407 1.627-2.347 3.518-2.76 5.621-.123.619.84.864.962.243a11.04 11.04 0 012.512-5.183c.414-.48-.297-1.161-.714-.68zm9.782 6.256a82.955 82.955 0 01-2.981 21.796c-.17.612.794.851.963.242a84.089 84.089 0 003.011-22.057c0-.632-.992-.612-.992.02zm-1.885-2.195c-2.57 2.941-3.83 6.563-4.737 10.29-.149.615.814.857.963.242.867-3.55 2.039-7.041 4.491-9.851.414-.478-.3-1.162-.718-.68zM36.755 10.417A58.778 58.778 0 0140.6 23.2c.113.621 1.063.337.954-.282a58.962 58.962 0 00-3.846-12.782c-.248-.573-1.201-.301-.953.281zm-1.84.357c-.52 6.245-1.03 12.57.023 18.792 1.102 6.491 3.81 12.825 5.89 19.058.2.598 1.153.32.954-.282-2.015-6.042-4.62-12.187-5.785-18.455-1.172-6.311-.619-12.786-.09-19.133.054-.628-.94-.605-.992.02z"/><path d="M28.597 25.863a36.82 36.82 0 018.009 10.623c.285.566 1.128.049.847-.514a37.57 37.57 0 00-8.168-10.82c-.466-.428-1.155.279-.688.71zm-2.274 1.259A100.74 100.74 0 0036.626 48.71c.337.536 1.188.026.847-.514a99.607 99.607 0 01-10.197-21.354c-.201-.596-1.155-.32-.953.281z"/><path d="M32.069 46.762c-1.463-2.585-3.608-4.734-6.275-6.102-.543-.278-1.063-.206-.01-.31.384-.04.78-.056 1.165-.05 1.25.013 2.383.236 3.458.907 1.251.778 2.343 1.897 3.462 2.85.483.411 1.172-.295.688-.707-1.416-1.211-2.82-2.723-4.557-3.475-.97-.422-2.019-.546-3.071-.55-.669-.003-2.059-.127-2.618.435-1.092 1.093 1 1.738 1.651 2.12 2.238 1.303 3.998 3.174 5.26 5.405.31.544 1.158.03.847-.523zm30.212-7.97c.97-2.136 3.224-2.807 5.368-3.252.315-.065.44-.477.281-.726-1.164-1.82-3.286-2.006-5.275-1.826-.632.056-.619 1.037.02.982 1.605-.144 3.442-.154 4.408 1.358l.282-.727c-2.39.494-4.882 1.348-5.95 3.714-.262.572.605 1.053.866.477zm-33.85-13.878c-.436.569-.926 1.279-1.651 1.508-.715.226-1.48-.098-1.423-.952.043-.668.622-1.155 1.185-1.433.655-.324 2.452-.478 1.975.765-.225.593.739.825.964.243.46-1.201-.646-2.251-1.817-2.274-1.232-.023-2.665.785-3.128 1.94-.433 1.07.02 2.408 1.225 2.712 1.472.37 2.588-.785 3.389-1.825.38-.504-.331-1.188-.719-.684zM36.996 9.68c-.618.115-1.515.514-2.134.187-.619-.33-.507-1.151-.15-1.626.375-.494.964-.674 1.56-.51.483.134 1.989 1.384.94 1.816-.583.238-.308 1.184.284.942 1.241-.51 1.198-1.93.4-2.843-.804-.923-2.243-1.273-3.319-.602-.94.589-1.463 1.871-.953 2.898.721 1.46 2.41.91 3.657.681.626-.118.338-1.06-.285-.942zm11.796-5.986c-.86.219-1.864.477-2.75.265-1.248-.295-1.295-1.708-.418-2.441.702-.586 1.778-.651 2.628-.396.536.16 1.165.507 1.31 1.09.14.546-.128 1.086-.684 1.22-.62.15-.338 1.093.284.942 1.48-.36 1.804-2.182.894-3.255C49.03-.088 46.97-.294 45.59.373c-1.297.628-2.088 2.316-1.224 3.605 1 1.495 3.253 1.024 4.706.651.619-.153.337-1.096-.281-.935zm7.078 9.648c-1.426-.252-2.988.157-3.64 1.554-.53 1.132-.03 2.6 1.202 3.026 1.24.429 3.124-.101 3.812-1.24.659-1.096.182-2.486-.857-3.14-.54-.34-1.02.52-.483.857.668.418.887 1.37.34 1.982-.486.547-1.525.779-2.23.655-.907-.16-1.258-1.1-.804-1.875.496-.847 1.519-1.024 2.419-.867.626.111.87-.84.242-.952zm7.695 5.424c-1.254-.082-2.991.095-3.27 1.613-.228 1.243 1.202 2.886 2.297 3.327 3.128 1.26 3.796-5.022 1.099-4.855-.635.04-.619 1.021.02.982.877-.056.662 1.995.463 2.401-.466.965-1.36.612-1.95-.003-.452-.475-1.267-1.315-.797-1.996.454-.654 1.466-.53 2.158-.487.639.042.612-.94-.02-.982zM45.638 6.177l-.302.991c-.122.406.52.563.642.16l.302-.991c.122-.406-.52-.563-.642-.16zm1.412.056l.014.654c.01.422.672.409.662-.013-.003-.22-.01-.435-.013-.655-.007-.422-.669-.408-.662.014zm-.47 3.935c.428-.01.415-.664-.012-.654-.424.006-.41.66.013.654zm-1.975.367c-.03.363-.06.73-.086 1.092-.013.177.172.324.338.321.195-.003.31-.157.324-.334.03-.363.06-.73.086-1.092.013-.177-.172-.324-.338-.321-.195.003-.31.157-.324.334zm1.565 1.06c.01.399.017.798.027 1.2.01.422.672.41.662-.013-.01-.399-.017-.798-.027-1.2-.01-.423-.672-.41-.662.013zm1.172-2.317l.13.979c.022.176.145.324.337.32.162-.003.347-.157.324-.334l-.13-.978c-.022-.176-.145-.324-.337-.32-.165.003-.35.157-.324.333zm.096 4.908l.01.546c.01.422.672.41.662-.013l-.01-.546c-.01-.422-.672-.41-.662.013z"/><path d="M46.005 8.87c-.033.323.04.628.175.922.073.16.318.193.457.108.169-.101.182-.288.11-.451a1.143 1.143 0 01-.08-.596c.016-.177-.175-.324-.338-.32-.195.006-.307.16-.324.337zm-2.31 5.195l-.199 1.096c-.076.412.566.576.642.16l.199-1.096c.073-.412-.566-.576-.642-.16zm1.824 2.257c-.03.256-.063.51-.093.766-.02.177.05.35.238.4.156.038.38-.06.404-.236.03-.256.063-.51.093-.766.02-.177-.05-.35-.239-.4-.155-.042-.38.06-.403.236zm-.583 4.656c.053.278.02.55-.07.815-.135.399.507.559.642.16.13-.38.14-.769.063-1.162-.033-.173-.251-.268-.41-.219-.189.056-.261.233-.225.406zm-2.022-2.64l-.093.765c-.02.177.05.35.239.4.155.039.38-.06.403-.236.03-.255.063-.51.093-.766.02-.176-.05-.35-.238-.399-.16-.04-.384.059-.404.236zm4.507.52c.08.363.156.726.235 1.086.09.412.725.223.636-.186-.08-.363-.156-.727-.235-1.087-.09-.412-.722-.225-.636.187zm.434 4.809c.007.363.017.727.023 1.09.01.422.672.409.662-.013-.007-.363-.017-.727-.023-1.09-.007-.422-.669-.409-.662.013zm-.781 4.797l.126.762c.03.173.255.265.41.22.189-.057.252-.233.222-.407l-.126-.762c-.03-.173-.255-.265-.41-.22-.189.053-.252.23-.222.407zm-2.701-2.434l.014.654c.01.422.671.409.661-.013-.003-.22-.01-.435-.013-.655-.006-.422-.668-.409-.662.014zm-1.823-2.801c.023.271-.003.527-.083.788-.122.406.52.563.642.16.096-.31.13-.637.103-.961-.037-.416-.699-.406-.662.013zm.83 7.531c-.033.255-.062.51-.096.766-.023.177.05.35.239.399.155.04.38-.059.404-.236l.096-.765c.023-.177-.05-.35-.239-.4-.159-.039-.38.06-.404.236zm3.376 3.707c.043.216.083.435.126.651.033.174.252.268.41.22.186-.056.255-.233.222-.406-.043-.216-.083-.435-.126-.651-.033-.174-.251-.269-.41-.22-.185.056-.255.233-.222.406zm-1.79 3.746c.08.363.162.723.241 1.086.093.413.725.223.636-.186l-.242-1.086c-.093-.413-.728-.226-.635.186zm3.694 2.369c-.07.255-.136.51-.206.769-.11.409.533.569.642.16.07-.255.136-.51.205-.769.11-.409-.533-.57-.642-.16zm-.494-28.395l.13.762c.029.174.254.265.41.22.188-.056.251-.233.221-.406L48.798 12c-.03-.174-.255-.265-.41-.22-.185.056-.252.232-.222.406zm.079 4.492l.14.978c.026.174.142.324.337.32.162-.002.348-.156.324-.333l-.139-.978c-.026-.174-.142-.324-.337-.32-.162.003-.351.16-.325.333zm4.965 3.631l-.272 1.538c-.072.413.57.576.642.16.09-.513.183-1.023.272-1.537.073-.412-.57-.576-.642-.16zm1.287-.922c.007.255.01.51.017.762.01.422.672.41.662-.013-.007-.255-.01-.51-.017-.762-.01-.422-.668-.409-.662.013zm-.361 3.497c-.062.547-.122 1.093-.185 1.64-.046.418.616.399.662-.014.063-.546.123-1.092.185-1.639.047-.415-.615-.399-.662.013zm-1.714.959c-.142.294-.281.589-.423.88-.183.38.397.7.579.317.142-.294.281-.589.423-.88.182-.38-.397-.7-.579-.317zm-.996-1.75l-.255.664c-.063.167.08.357.238.399.189.05.338-.072.404-.235l.255-.665c.063-.167-.08-.356-.238-.399-.189-.049-.338.069-.404.236zm1.89 4.298c-.014.292-.024.583-.037.874-.016.422.646.406.662-.013.013-.291.023-.582.037-.874.016-.422-.646-.405-.662.013zm1.357 1.718l-.04.818c-.01.177.169.324.337.32.19-.003.315-.156.325-.333l.04-.818c.01-.177-.17-.324-.338-.32-.189.003-.315.156-.324.333zm-.523 2.925l-.093.71c-.023.173.053.35.238.4.16.038.38-.06.404-.237l.093-.71c.023-.173-.053-.35-.239-.399-.158-.042-.38.06-.403.236zm-2.47-2.022c-.032.2-.065.403-.099.602-.03.174.057.35.239.4.162.039.374-.063.404-.236l.099-.602c.03-.174-.056-.35-.239-.4-.162-.042-.373.06-.403.236zm.477 5.202l.01.435c.01.422.672.41.662-.013l-.01-.435c-.01-.422-.672-.409-.662.013zm2.138 1.921l.01.435c.01.422.672.409.662-.013l-.01-.435c-.01-.422-.672-.41-.662.013zm-1.906 3.965c.026.255 0 .49-.083.733-.056.167.076.356.239.399.185.046.344-.069.403-.236.1-.29.136-.602.103-.906-.02-.177-.149-.324-.338-.32-.168 0-.344.153-.324.33zm.817-21.449c-.086.166-.175.333-.261.497-.195.373.38.694.58.317.085-.167.175-.333.26-.497.196-.373-.38-.694-.578-.317zm-17.166-6.22c.06.344.123.69.182 1.034.03.174.255.265.41.22.19-.056.255-.233.222-.406l-.182-1.034c-.03-.174-.255-.265-.41-.22-.189.056-.255.233-.222.406zm.986 2.163l.46 1.083c.07.163.229.275.41.22.156-.047.292-.243.222-.407l-.46-1.082c-.07-.164-.228-.275-.41-.22-.156.046-.291.242-.222.406zm-.903 1.207a4.44 4.44 0 00.02 1.482c.072.412.704.226.635-.186a3.53 3.53 0 01-.01-1.136c.056-.412-.586-.575-.645-.16zm1.257 1.891c.113.308.222.618.335.926.142.396.777.213.635-.186-.113-.308-.222-.619-.334-.926-.142-.396-.778-.213-.636.186zm-1.539 1.309c.007.363.017.726.024 1.09.01.421.671.408.661-.014-.006-.363-.016-.726-.023-1.09-.006-.421-.668-.408-.662.014zm1.242 1.23l.02.982c.01.422.671.409.661-.013l-.02-.982c-.01-.422-.671-.409-.661.013zm1.849.648c.133.38.269.759.401 1.138.139.396.774.213.635-.186-.132-.38-.268-.76-.4-1.139-.139-.396-.774-.212-.636.187zm.725 3.258c.04.2.083.4.123.599.036.173.251.268.41.22.186-.056.258-.233.222-.407l-.123-.598c-.036-.174-.251-.269-.41-.22-.182.053-.258.233-.222.406zm-1.817.036c.11.308.189.622.225.946.02.177.15.324.338.32.166-.003.344-.157.324-.333a4.981 4.981 0 00-.251-1.12c-.142-.395-.778-.212-.636.187zm-1.697-1.304l.016.761c.01.422.672.41.662-.013-.007-.255-.01-.51-.017-.762-.01-.422-.668-.409-.661.013zm.797 3.909c.027.327.09.648.199.955.142.396.777.213.635-.187a2.904 2.904 0 01-.172-.781c-.03-.42-.692-.406-.662.013zm1.45 2.784l.178.596c.12.402.755.219.636-.187-.06-.2-.12-.396-.179-.596-.119-.402-.754-.219-.635.187zm.777-2.526l.12.435c.112.406.748.22.635-.186l-.12-.435c-.112-.406-.747-.22-.635.186zm-1.876 5.441c.083.324.162.651.245.975.102.409.738.222.635-.187-.082-.323-.162-.65-.245-.975-.102-.409-.738-.222-.635.187zm1.645 4.764c.06.143.116.287.175.431.066.164.229.275.41.22.16-.046.289-.243.222-.406-.06-.144-.116-.288-.175-.432-.066-.164-.228-.275-.41-.22-.16.047-.288.243-.222.407zM60.48 23.684c-.175.35-.353.696-.529 1.046-.192.377.388.697.58.318.175-.35.354-.697.529-1.047.192-.376-.387-.694-.58-.317zm.927.821c-.082.33-.168.657-.251.988-.106.409.536.57.642.16.083-.33.169-.657.252-.988.102-.406-.54-.566-.642-.16zm-.814 3.128c-.082.274-.165.55-.251.824-.123.406.52.563.642.16.083-.274.165-.55.251-.824.12-.403-.523-.563-.642-.16zm-.556-1.325l-.212.386c-.205.37.374.69.58.317l.212-.386c.205-.366-.374-.687-.58-.317zm1.635.157l-.09.765c-.019.177.05.35.24.4.155.039.38-.06.403-.236l.09-.766c.02-.177-.05-.35-.239-.399-.159-.04-.384.059-.404.236zm-3.117 1.698a2.382 2.382 0 01-.285.582c-.232.353.347.67.58.317a2.96 2.96 0 00.347-.74c.053-.166-.073-.356-.239-.398a.34.34 0 00-.403.239zm-.02 2.813a1.34 1.34 0 00-.199.769c.02.419.682.409.662-.013a.698.698 0 01.116-.435c.222-.363-.357-.68-.58-.32zm1.724-.72c-.066.22-.132.442-.195.661-.12.406.523.563.642.16.066-.219.132-.441.195-.66.12-.406-.523-.563-.642-.16zm-.546 3.226c-.07.24-.136.475-.205.714-.116.405.526.566.642.16.07-.239.136-.474.205-.713.116-.403-.526-.563-.642-.16zm2.098-4.646l-.046.439c-.02.177.175.324.337.32.199-.003.305-.157.325-.333l.046-.439c.02-.176-.175-.323-.337-.32-.199.006-.305.157-.325.333zm-4.157 6.544c-.033.111-.069.22-.102.33-.126.403.516.563.642.16.033-.11.07-.219.102-.33.126-.402-.516-.56-.642-.16zm-.532 3.34c-.07.183-.143.367-.212.55-.063.163.08.356.238.399.192.049.338-.072.404-.236l.212-.55c.063-.163-.08-.356-.239-.398-.192-.05-.337.068-.403.235zm2.604-1.331c.004.108.004.219.007.327.01.422.672.409.662-.013-.004-.108-.004-.22-.007-.327-.01-.422-.672-.41-.662.013zm-1.234 4.335c-.017.147-.03.29-.047.438-.02.177.176.324.338.32.199-.003.304-.156.324-.333.017-.147.03-.291.047-.438.02-.177-.176-.324-.338-.321-.195.003-.304.157-.324.334zM28.26 28.08l.171.544c.126.402.762.216.636-.187l-.172-.543c-.13-.402-.765-.216-.636.187zm.681-.742c.222.272.447.543.669.811.112.138.354.108.466-.01.136-.14.103-.323-.01-.46a111.22 111.22 0 00-.668-.812c-.113-.137-.354-.108-.467.01-.136.137-.102.324.01.461zm1.271 2.304l.573.801c.244.344.81.003.565-.34l-.572-.802c-.248-.343-.814-.006-.566.34zm-.814.781l.457.756c.218.36.784.02.566-.34l-.457-.756c-.222-.363-.785-.023-.566.34zm1.482 2.699c.192.34.388.68.58 1.021.208.367.774.026.566-.34-.192-.34-.388-.68-.58-1.02-.211-.367-.774-.027-.566.34zm.586-.991c.133.196.265.396.397.592.235.35.801.01.566-.34-.132-.196-.264-.396-.397-.592-.238-.35-.804-.013-.566.34zm.308-1.374c.11.232.295.412.516.543.371.213.692-.36.321-.572a.647.647 0 01-.274-.311c-.076-.16-.315-.193-.457-.108-.162.101-.182.288-.106.448zm-2.482 1.717c.043.18.083.36.126.544.04.173.248.268.41.219.182-.053.262-.236.222-.406-.043-.18-.083-.36-.126-.543-.04-.173-.248-.268-.41-.22-.182.053-.262.236-.222.407zm2.088 3.42c.152.307.305.615.454.919.08.16.314.193.456.108.166-.098.189-.291.11-.452-.153-.307-.305-.615-.454-.919-.08-.16-.314-.193-.457-.108-.165.102-.188.295-.109.452zm2.472-.926l.345.648c.198.373.76.03.566-.34-.116-.217-.229-.433-.345-.648-.201-.373-.764-.033-.566.34zm.755 4.678c.096.18.192.36.291.537.202.373.765.03.566-.34-.096-.18-.192-.36-.291-.537-.202-.373-.768-.033-.566.34zm1.175-1.659c.112.18.228.36.34.54.226.357.792.017.567-.34-.113-.18-.229-.36-.341-.54-.229-.356-.794-.016-.566.34zm1.318 5.045c.092.164.188.324.28.488.212.366.775.023.566-.34-.092-.164-.188-.324-.281-.488-.212-.366-.778-.026-.566.34zM26.426 41.01c.222.105.447.207.668.311.384.18.709-.392.321-.572-.221-.105-.446-.206-.668-.311-.38-.177-.705.392-.321.572zm2.108.952c.245.174.49.35.731.524.146.105.371.016.45-.128.096-.17.017-.34-.128-.445-.245-.173-.49-.35-.732-.523-.146-.105-.37-.017-.45.127-.093.17-.013.34.129.445zm-.324-1.001c.168.036.324.092.476.177.374.203.695-.37.321-.572a2.44 2.44 0 00-.635-.24c-.414-.091-.58.544-.162.635zm1.94 1.397c.148.105.297.213.446.318.145.101.37.016.45-.128.096-.17.017-.343-.13-.445l-.446-.317c-.145-.102-.37-.017-.45.127-.093.17-.017.34.13.445zm-.047.979l.228.323c.242.344.808.007.566-.34l-.228-.324c-.242-.346-.811-.006-.566.34zm1.499.526c.149.125.298.25.45.373.136.115.338.125.467-.01.119-.12.129-.35-.01-.46a53.758 53.758 0 00-.45-.374c-.136-.114-.338-.124-.467.01-.12.118-.129.347.01.461zm34.161-9.638a2.446 2.446 0 00-1.056.03c-.414.104-.225.732.189.628.231-.06.466-.069.701-.023.42.078.583-.556.166-.635zm-2.283.677c-.127.095-.256.187-.381.282-.143.104-.209.287-.11.451.086.14.312.216.457.108.126-.095.255-.187.38-.281.143-.105.21-.288.11-.452-.086-.14-.311-.213-.457-.108zm.105-.32c.427-.01.414-.665-.013-.655-.427.01-.414.665.013.655z"/></g><g clip-path="url(#clip1_5:1760)" fill="#727272"><path d="M30.386 47.616c-2.341 6.015-3.989 12.3-4.53 18.755-.46 5.517-.32 11.467 2.702 16.28.347.552 1.2.024.854-.531-3.032-4.827-3.025-10.882-2.498-16.396.587-6.143 2.214-12.13 4.442-17.857.234-.606-.737-.85-.97-.25zm30.402-.931c5.327 4.062 5.333 11.508 5.907 17.621.29 3.084.69 6.177.83 9.274.13 2.83-.103 5.835-2.31 7.839-.481.437.242 1.137.72.704 1.944-1.764 2.544-4.288 2.61-6.85.097-3.65-.513-7.359-.853-10.984-.597-6.37-.67-14.107-6.213-18.335-.507-.389-1.204.339-.69.731z"/><path d="M28.758 82.854c2.825 1.032 5.713 1.29 8.685 1.544 3.288.28 6.607.704 9.912.585 3.355-.118 6.72-.602 10.055-.968 2.918-.321 5.813-.728 8.534-1.906.584-.253.307-1.231-.286-.974-2.822 1.222-5.817 1.6-8.842 1.926-3.148.338-6.316.795-9.481.907-3.102.111-6.21-.271-9.299-.532-3.078-.264-6.1-.494-9.03-1.563-.608-.227-.848.761-.248.981zm1.868-34.669c2.328.965 4.706 1.817 7.217 2.119 2.611.311 5.273-.136 7.9-.068 1.458.037 2.769.237 4.24.024a28.56 28.56 0 003.765-.8c2.551-.737 5.023-1.766 7.527-2.653.604-.213.324-1.188-.286-.974-4.903 1.736-9.499 3.763-14.791 3.415-2.202-.146-4.393.182-6.587.162-2.955-.03-5.797-.992-8.505-2.112-.583-.244-1.077.64-.48.887zM.664 51.241c5.603.894 10.815 3.585 14.72 7.778 3.78 4.059 5.904 9.406 10.026 13.173.477.437 1.174-.294.694-.73-4.37-3.995-6.554-9.772-10.756-13.925-3.935-3.89-9.025-6.418-14.438-7.28-.633-.102-.883.883-.246.984zm.873-1.817c5.086-1.178 10.493-.478 15.062 2.118 3.645 2.072 6.636 5.345 10.989 5.792.64.064.613-.952-.02-1.016-4.883-.5-8.405-4.965-12.807-6.8-4.292-1.787-8.998-2.112-13.507-1.07-.63.146-.344 1.121.283.976z"/><path d="M.724 48.743a4.029 4.029 0 00-.717 1.814c-.037.275.08.542.363.616.237.065.57-.094.607-.369.077-.582.28-1.093.62-1.57.16-.223.02-.565-.193-.69-.257-.146-.524-.02-.68.2zm64.086.927c2.068-4.017 8.638-4.535 12.347-2.693 4.019 1.997 5.873 6.833 4.225 11.064-1.434 3.686-5.119 5.49-8.15 7.616-1.278.897-2.698 1.905-3.582 3.229-.924 1.384-.804 3.144-1.718 4.525-.36.545.517 1.032.874.494.577-.87.744-1.797 1-2.792.364-1.391 1.091-2.285 2.135-3.195 1.797-1.568 3.905-2.701 5.82-4.106 3.388-2.488 5.766-6.021 5.136-10.448-.577-4.032-3.772-7.365-7.718-8.1-3.975-.741-9.215-.027-11.246 3.916-.296.575.577 1.07.878.49z"/><path d="M65.824 52.226c1.384-2.802 4.536-3.526 7.398-3.303 1.907.149 3.085.91 4.082 2.572 1.104 1.835 1.05 3.388.427 5.345-.98 3.066-2.748 4.488-5.467 5.926-1.78.941-4.499 2.173-5.209 4.255-.21.62.76.863.97.25.647-1.895 3.822-3.127 5.457-4.004 1.417-.758 2.745-1.594 3.702-2.931 1.514-2.112 2.758-5.561 1.66-8.062-1.34-3.06-3.391-4.417-6.666-4.394-2.915.02-5.853 1.077-7.224 3.852-.29.582.584 1.077.87.494zM47.308 59.57c-2.941.444-5.426 2.665-5.723 5.768-.283 2.959 1.684 6.81 5.026 6.584 3.048-.207 5.756-3.206 6.037-6.205.31-3.3-2.128-6.177-5.44-6.031-.644.027-.624 1.042.02 1.015 2.905-.128 4.906 2.566 4.362 5.402-.44 2.295-2.621 4.61-4.999 4.806-2.922.24-4.412-3.513-3.949-5.95.444-2.335 2.415-4.028 4.686-4.37.627-.097.617-1.116-.02-1.018z"/><path d="M47.882 60.014c-.177-2.152 3.155-5.425 4.822-2.934.517.772 1.017 2.142.804 3.093-.23 1.02-1.214 1.78-1.968 2.407-.497.413.23 1.113.72.704 1.188-.985 2.409-2.166 2.295-3.855-.093-1.381-.847-3.202-2.034-3.96-2.535-1.622-5.843 2.091-5.64 4.569.053.646 1.054.63 1-.024z"/><path d="M52.527 63.51c1.254-.754 4.5-.554 4.163 1.625-.32 2.078-2.972 2.163-4.543 2.183-.643.007-.623 1.023.02 1.016 2.205-.027 6.06-.731 5.51-3.896-.434-2.484-3.889-2.87-5.673-1.794-.554.335-.033 1.202.523.867z"/><path d="M51.52 68.52c1.755.785 3.729 3.117 2.061 4.999-1.95 2.2-4.772.024-5.493-2.099-.21-.615-1.17-.331-.96.292.934 2.741 4.299 5.11 6.894 2.785 2.52-2.257.517-5.73-2.015-6.867-.584-.26-1.074.626-.487.89z"/><path d="M46.648 71.675c.09 1.706-.38 4.244-2.642 3.94-1.027-.14-1.817-1.077-1.77-2.14.04-.954.703-2.068 1.067-2.941.246-.596-.624-1.097-.874-.494-.53 1.28-1.45 2.772-1.11 4.217.276 1.171 1.186 2.102 2.354 2.335 2.978.6 4.102-2.518 3.975-4.941-.033-.65-1.034-.633-1 .024z"/><path d="M43.166 69.272c-1.864.781-4.743.582-5.393-1.791-.283-1.042.033-2.274.997-2.84.937-.548 2.148-.403 3.169-.277.63.078.883-.907.246-.985-1.414-.173-3.018-.325-4.235.596-1.01.764-1.42 2.105-1.228 3.34.5 3.192 4.18 3.994 6.727 2.928.594-.244.314-1.222-.283-.971z"/><path d="M42.545 63.494c-1.684-.914-2.564-4.272-1.087-5.724 1.941-1.905 4.326.796 5.5 2.258.407.504 1.094-.23.694-.731-1.535-1.91-4.853-4.83-7.12-2.078-1.668 2.027-.671 5.97 1.527 7.165.567.308 1.057-.579.486-.89zm1.608 7.463c-.79.772-1.304 2.86-.09 3.493 1.454.761 2.098-1.828 2.291-2.762.087-.427-.56-.592-.647-.166-.087.423-.197.84-.35 1.246-.077.2-.16.4-.26.589-.154.294-.244.484-.597.443-.954-.118-.3-1.95.137-2.373.306-.304-.174-.771-.484-.47zm4.299.047c-.17.975.917 1.74 1.694 2.089.787.352 1.885.47 2.621-.082.704-.528.594-1.486.29-2.217-.413-.995-1.263-1.665-2.247-2.017-.407-.145-.567.515-.164.657.594.213 1.128.572 1.505 1.093.13.183.23.376.313.586.194.494.224.717-.12 1.147-.294.365-.447.45-.894.453-.28 0-.57-.057-.834-.152-.403-.145-1.62-.788-1.517-1.384.073-.433-.57-.603-.647-.173zm3.868-4.379c.838.213 1.672-.153 2.375-.603.514-.328 1.19-.927 1.13-1.621-.05-.579-.616-.853-1.123-.914-.874-.108-1.731.274-2.441.755-.357.24-.01.822.346.579.37-.254.764-.478 1.201-.59.404-.104 1.578-.273 1.22.576-.313.755-1.834 1.34-2.544 1.161-.417-.105-.58.552-.163.657zm-3.111-6.319c-.053-.515.053-1.026.42-1.405.267-.28.914-.653 1.294-.437.337.193.314 1.006.314 1.381a4.752 4.752 0 01-.294 1.554c-.143.41.504.572.647.166.287-.82.387-1.68.25-2.542-.093-.593-.193-1.181-.85-1.27-1.454-.2-2.585 1.172-2.441 2.57.036.426.703.416.66-.017z"/><path d="M43.016 62.57c-.517-.66-.96-1.858-.787-2.708.103-.515.223-.663.75-.718.527-.054.657.105 1.037.417.387.315.764.64 1.148.958.33.274.793-.21.46-.488-.94-.785-2.452-2.596-3.649-1.218-.927 1.07-.303 3.127.47 4.112.264.335.838-.013.57-.355zm-1.197 2.637c-1.301-.528-2.999.646-2.799 2.128.187 1.405 2.418 1.926 3.422 1.134.334-.264-.01-.846-.347-.578-.547.433-1.907.318-2.308-.329-.587-.937.844-2.119 1.711-1.763.39.159.717-.43.32-.593z"/></g><defs><clipPath id="clip0_5:1760"><path fill="#fff" transform="translate(24)" d="M0 0h44v49H0z"/></clipPath><clipPath id="clip1_5:1760"><path fill="#fff" transform="translate(0 45)" d="M0 0h83v40H0z"/></clipPath></defs></svg>