<svg width="83" height="90" fill="none" xmlns="http://www.w3.org/2000/svg"><circle cx="37" cy="53" r="37" fill="#46A358" fill-opacity=".13"/><g clip-path="url(#clip0_33805:302)" fill="#727272"><path d="M22.249 40.777c16.773-1.753 33.69.937 50.42-1.487.782-.115.45-1.298-.328-1.184-16.613 2.404-33.435-.299-50.092 1.442-.782.082-.79 1.31 0 1.229z"/><path d="M22.084 39.573c-1.637.508-1.431 2.637-.563 3.767 1.423 1.851 4.62 1.892 6.706 1.696.785-.074.79-1.303 0-1.229-1.35.127-2.749.115-4.061-.27-.683-.2-1.403-.483-1.794-1.122-.201-.332-.588-1.462.041-1.655.757-.237.432-1.425-.329-1.187zm47.698.102c.868-.053 1.707-.2 2.571-.315 1.37-.184 2.074.184 2.312 1.617.198 1.192-.555 1.54-1.617 1.876-.502.16-1.028.258-1.547.36a26.63 26.63 0 01-4.188.455c-.79.029-.794 1.257 0 1.229 2.407-.086 9.166-.176 8.903-3.965-.066-.946-.983-2.252-1.843-2.678-1.284-.639-3.283.11-4.595.193-.786.049-.79 1.277.004 1.228z"/><path d="M24.055 44.774c-.169 2.6-3.13 4.07-4.702 5.856a16.793 16.793 0 00-2.909 4.746c-1.514 3.694-1.802 7.835-1.033 11.73 1.584 7.989 7.648 14.582 15.222 17.412.745.279 1.066-.909.33-1.183-7.867-2.94-13.98-10.308-14.663-18.757-.325-4.013.527-8.19 2.777-11.569 1.868-2.801 5.978-4.595 6.212-8.235.05-.787-1.185-.787-1.234 0zm46.768-.524c0 3.23 2.357 5.258 4.755 7.064 2.061 1.548 3.658 3.055 4.674 5.483.884 2.11 1.374 4.387 1.485 6.668.403 8.39-4.492 16.18-12.017 19.845-.712.348-.09 1.41.621 1.061 6.99-3.403 11.919-10.32 12.577-18.068.333-3.92-.35-8.236-2.35-11.672-2.2-3.788-8.511-5.525-8.515-10.382.004-.79-1.23-.79-1.23 0z"/><path d="M30.267 83.617c-.798 1.765.634 3.289 2.41 3.37 1.93.095 3.967-.352 5.9-.433 2.242-.099 4.485-.103 6.727-.07 8.367.127 16.731.762 25.062-.369.284-.036.428-.348.453-.593a4.286 4.286 0 00-.194-1.843c-.234-.754-1.423-.43-1.189.327.21.496.26 1.004.148 1.516.153-.197.3-.394.453-.594-6.496.88-13.05.66-19.583.454-3.168-.098-6.34-.188-9.507-.135a85.477 85.477 0 00-4.345.18c-.79.054-1.575.127-2.36.205-.581.057-3.798.553-2.914-1.405.325-.708-.736-1.33-1.061-.61zM22.08 51.224c-5.027 6.155-5.418 14.747-.905 21.3.222.323.757.016.535-.312-4.349-6.31-4.048-14.608.81-20.558.243-.3-.189-.737-.44-.43zm.333 23.58c.404.582.864 1.118 1.379 1.606.288.27.724-.16.436-.434a9.775 9.775 0 01-1.284-1.479c-.222-.323-.757-.02-.53.307zm3.452 3.535c.4 0 .4-.615 0-.615-.399 0-.399.615 0 .615zM69.63 44.282c-.317 1.18-.589 2.367-.124 3.547.432 1.093 1.308 2.08 2.053 2.985 1.785 2.163 5.439 4.345 5.612 7.36.02.393.637.397.617 0-.128-2.257-1.798-3.703-3.337-5.169a30.289 30.289 0 01-2.78-3.022c-.577-.725-1.227-1.49-1.56-2.363-.407-1.06-.173-2.105.111-3.17.103-.385-.494-.549-.592-.168zm7.808 15.317l.26 2.359c.04.389.661.393.616 0l-.259-2.36c-.041-.388-.658-.392-.617 0zm.058 3.976c.045.23.008.447-.079.66-.061.155.07.335.214.376.177.05.317-.061.379-.213a1.72 1.72 0 00.078-.987c-.07-.385-.666-.22-.592.164zm-26.754-4.492c1.473-2.785 4.246-4.608 7.467-4.448 3.834.188 7.866 3.51 5.18 7.433-1.576 2.297-4.406 3.784-6.492 5.594-2.316 2.01-4.435 4.226-6.39 6.593-.501.607.367 1.479.873.869 2.978-3.608 6.348-6.66 10.05-9.51 2.473-1.908 5.209-4.803 3.707-8.157-1.242-2.777-4.673-4.14-7.566-4.059-3.406.098-6.327 2.097-7.898 5.062-.367.7.699 1.323 1.07.623z"/><path d="M50.45 58.129c-2.637-2.953-5.928-5.996-10.198-5.775-3.168.164-5.896 2.556-6.352 5.705-.564 3.837 2.316 7.204 5.122 9.427 3.447 2.732 8.647 3.678 11.227 7.38.448.647 1.518.033 1.065-.618-1.608-2.31-3.95-3.498-6.434-4.694-3.16-1.519-6.274-3.399-8.306-6.331-2.267-3.264-1.893-8.256 2.501-9.452 4.3-1.167 7.92 2.338 10.499 5.226.53.593 1.403-.279.876-.868z"/></g><g clip-path="url(#clip1_33805:302)" fill="#46A358"><path d="M46.472 12.629c-1.189 2.153-3.003 3.878-5.332 4.771-.909.35-2.106.33-1.986-.913.073-.775.913-1.448 1.522-1.811 1.036-.62 2.365-.824 3.48-1.305.724-.314.099-1.37-.621-1.056-1.991.86-4.172 1.064-5.303 3.152-.605 1.117-.802 2.671.56 3.307 1.476.69 3.508-.424 4.734-1.207 1.703-1.084 3.04-2.565 4.007-4.322.387-.69-.678-1.31-1.061-.616z"/><path d="M43.897 12.119c-1.498.163-2.983.171-4.468-.106a13.645 13.645 0 01-1.608-.408 9.893 9.893 0 01-1.296-.48c-.63-.792-.568-1.232.193-1.33 2.23-1.705 5.714.085 7.903.913.744.281 1.065-.901.329-1.178-1.905-.722-3.995-1.807-6.089-1.574-1.2.13-3.97.648-4.29 2.144-.74 3.467 7.536 3.442 9.326 3.247.781-.09.79-1.314 0-1.228z"/><path d="M45.353 9.55c-1.872-1.472-3.534-3.764-3.443-6.247.04-1.105.748-1.574 1.773-1.077.563.273.954.97 1.263 1.497.715 1.231 1.016 2.638 1.28 4.02.147.771 1.336.445 1.188-.326-.395-2.063-.959-4.212-2.497-5.754-.91-.909-2.423-1.953-3.493-.73-2.5 2.859.774 7.683 3.057 9.481.617.486 1.497-.375.872-.864z"/><path d="M47.385 7.756c.272-1.966 1.136-5.705 3.415-6.341 2.118-.587 1.908 2.79 1.316 3.906-.596 1.126-1.769 2.182-2.62 3.124-.527.583.341 1.452.872.865 1.221-1.354 3.048-2.908 3.311-4.812.206-1.476.095-3.707-1.547-4.36-1.497-.595-2.978.759-3.83 1.823-1.254 1.566-1.838 3.507-2.11 5.46-.107.78 1.082 1.114 1.193.335z"/><path d="M50.454 9.465c1.436-1.191 4.101-2.019 5.854-.946 2.27 1.394-.946 2.23-2.008 2.3-1.135.077-2.27.008-3.398-.123-.785-.09-.781 1.134 0 1.223 1.843.213 4.332.486 6.048-.42 1.065-.562 1.83-1.924 1.176-3.07-.732-1.285-2.793-1.594-4.13-1.558-1.658.05-3.151.685-4.41 1.73-.613.505.263 1.37.868.864z"/><path d="M50.586 11.879c1.27.465 2.534 1.166 3.258 2.348.905 1.485.925 4.217-1.707 3.707-2.316-.448-3.99-2.887-4.464-5.003-.173-.767-1.361-.445-1.189.326.42 1.884 1.469 3.548 3.04 4.702 1.234.909 3.402 1.994 4.855.962 1.493-1.06 1.493-3.254.818-4.763-.798-1.778-2.497-2.81-4.274-3.462-.757-.27-1.078.914-.337 1.183zm-12.481 3.368c-3.604 2.153-6.262 4.55-6.891 8.865-.687 4.685.411 9.583 1.415 14.146.169.77 1.358.444 1.189-.327-.889-4.036-1.798-8.22-1.522-12.376.3-4.53 2.67-7.005 6.425-9.248.683-.408.066-1.468-.616-1.06z"/><path d="M54.008 13.864c5.04.392 8.606 4.404 9.96 9 1.472 5.004.65 10.272-.152 15.312-.124.771 1.065 1.101 1.188.326.938-5.912 1.88-12.192-.543-17.893-1.834-4.318-5.644-7.593-10.453-7.968-.794-.061-.79 1.162 0 1.223zm-14.682 3.919c-6.026 4.347-4.072 14.175-2.855 20.283.153.77 1.346.445 1.19-.326-.639-3.197-1.23-6.43-1.17-9.701.063-3.18.667-7.19 3.456-9.2.638-.46.025-1.52-.62-1.056zm6.767-3.955c-2.242 3.421-3.69 7.246-4.216 11.3a25.878 25.878 0 00-.041 6.406c.275 2.324 1.028 4.559 1.308 6.883.09.77 1.329.783 1.234 0-.485-4.058-1.736-7.793-1.407-11.944.342-4.31 1.823-8.412 4.192-12.03.428-.66-.638-1.272-1.07-.615zm3.016 3.78c1.839 3.01 2.225 6.414 2.546 9.852.334 3.576.605 7.156.835 10.74.05.784 1.284.788 1.234 0-.259-4.057-.55-8.114-.97-12.16-.33-3.176-.885-6.287-2.58-9.052-.411-.669-1.48-.057-1.065.62z"/><path d="M54.724 18.179c4.595 5.73 4.747 13.045 4.583 20.026-.017.787 1.218.787 1.234 0 .173-7.365-.123-14.876-4.945-20.89-.493-.616-1.361.256-.872.864zm-7.771 1.492c-.07.273-.136.543-.206.816-.094.383.498.546.597.163.07-.273.136-.542.206-.816.094-.379-.498-.542-.597-.163zm1.333 2.125v.917c0 .396.617.396.617 0v-.917c0-.396-.617-.396-.617 0zm-2.978 1.937c-.033.44-.07.885-.103 1.325-.029.392.588.392.617 0 .033-.44.07-.885.103-1.325.029-.392-.588-.392-.617 0zm4.007 2.14v1.224c0 .395.617.395.617 0v-1.224c0-.395-.617-.395-.617 0zm-2.365 2.243v1.326c0 .395.616.395.616 0v-1.326c0-.395-.617-.395-.617 0zm-1.338 4.486v1.835c0 .395.617.395.617 0v-1.835c0-.396-.617-.396-.617 0zm-1.83-4.001c.07.408.144.816.213 1.224.066.387.663.224.597-.163-.07-.408-.144-.816-.214-1.224-.07-.383-.666-.22-.596.163zM48.5 34.64c.033.409.07.816.103 1.224.033.392.65.392.617 0-.033-.408-.07-.815-.103-1.223-.033-.392-.654-.396-.617 0zm1.847-4.587c.033.408.07.816.103 1.223.033.388.65.392.617 0-.033-.407-.07-.815-.103-1.223-.033-.391-.65-.395-.617 0zM57.431 16.4c.477.413.954.825 1.432 1.232.3.257.736-.175.436-.432-.478-.412-.955-.824-1.432-1.231-.296-.257-.736.17-.436.432z"/><path d="M57.69 19.806c.268.477.54.958.806 1.435.194.343.729.037.535-.31l-.806-1.435c-.197-.343-.728-.033-.535.31zm2.473.2c.304.411.608.823.913 1.23.23.315.77.01.535-.309-.305-.412-.61-.824-.914-1.232-.234-.31-.769-.008-.535.31zm1.522 5.334c.102.713.21 1.427.312 2.14.058.387.65.224.597-.163-.103-.714-.21-1.427-.313-2.14-.062-.388-.654-.221-.596.162zm-2.074-1.832l.309 1.02c.115.375.707.216.596-.163l-.308-1.02c-.115-.375-.712-.216-.597.163zm3.271 7.667c.045.485.037.97-.041 1.451-.062.384.53.55.596.163a6.434 6.434 0 00.066-1.614c-.041-.388-.658-.392-.621 0zm-1.432 1.937v1.121c0 .396.617.396.617 0v-1.121c0-.396-.617-.396-.617 0zm.638-10.219c.169.408.341.815.51 1.223.066.155.206.261.378.212.144-.037.28-.224.214-.375-.168-.408-.341-.816-.51-1.223-.066-.155-.206-.261-.378-.212-.144.036-.276.224-.214.375zm-1.152 7.058v.714c0 .395.617.395.617 0v-.714c0-.395-.617-.395-.617 0zm1.234 6.831c-.016.29-.086.567-.193.836-.062.155.07.334.214.375.176.049.316-.061.378-.212.132-.322.198-.653.218-1 .025-.395-.592-.39-.617 0zM36.29 18.884c-.21.302-.42.604-.633.905-.226.327.308.632.535.31.21-.302.42-.603.633-.905.222-.326-.313-.632-.535-.31zm-1.76 4.461c-.079.371-.153.742-.23 1.118-.079.383.514.55.596.163.078-.371.152-.742.23-1.118.078-.383-.518-.546-.596-.163zm-.198-2.222a4.713 4.713 0 00-.732 1.41c-.123.376.473.535.596.164a4.35 4.35 0 01.67-1.264c.24-.318-.3-.62-.534-.31zm-1.255 4.057c-.074.51-.152 1.016-.226 1.525-.057.384.54.55.597.164.074-.51.152-1.016.226-1.526.057-.387-.539-.554-.597-.163zm.617 2.936c-.053.51-.02 1.012.079 1.513.074.387.67.224.596-.163a4.502 4.502 0 01-.053-1.35c.033-.391-.585-.387-.622 0zm.506 3.874c.033.306.07.612.103.918.017.163.128.306.309.306.152 0 .329-.14.308-.306-.032-.306-.07-.612-.102-.918-.017-.163-.128-.306-.309-.306-.152 0-.325.139-.309.306zm-1 2.3c.24.388.412.795.52 1.24.094.383.686.22.596-.163a4.89 4.89 0 00-.58-1.387c-.21-.334-.74-.024-.535.31zm1.317 2.573l.206.51c.062.15.206.26.378.212.148-.04.28-.22.214-.375-.07-.171-.135-.339-.205-.51-.062-.15-.206-.26-.379-.212-.144.037-.276.22-.214.375z"/></g><defs><clipPath id="clip0_33805:302"><path fill="#fff" transform="translate(15 38)" d="M0 0h68v49H0z"/></clipPath><clipPath id="clip1_33805:302"><path fill="#fff" transform="translate(31)" d="M0 0h35v39H0z"/></clipPath></defs></svg>