<svg width="64" height="64" fill="none" xmlns="http://www.w3.org/2000/svg"><path d="M41.966 5.109l-4.446 6.327m-6.409-2.738L29.864.496m12.203 16.463l7.919-1.292" stroke="#0D8570" stroke-width=".868" stroke-linecap="round" stroke-linejoin="round"/><path d="M63.471 47.007c-3.602-1.24-15.474-4.56-22.948-6.692-2.644-.744-5.554-1.041-8.12-.035-1.414.555-2.632 1.534-3.812 2.506-.981.8-1.766 1.373-2.74 2.18a6.655 6.655 0 01-2.62 1.251 6.535 6.535 0 01-2.884.007c-.977-.226-3.166-1.103-4.162-1.212a1.257 1.257 0 00-.993.215c-.263.233-.294.744.014.912-.825-.352-5.164-1.71-6.026-1.955-2-.56-2.802.06-3.003.679-.139.431 1.457 1.185 1.833 1.41-1.254-.558-4.068-1.376-5.234-1.618-2-.414-3.45.622-2.45 1.239 2.943 1.83 9.395 5.897 12.324 7.753-3.537-.017-6.552.045-9.141.535-1.786.347-2.384 1.106-2.585 1.587a.381.381 0 00.127.433.349.349 0 00.143.062c2.171.385 13.32 2.353 17.032 2.76 3.712.406 5.064.413 7.536-.09 5.026-1.026 10.176-4.648 14.599-8.197 8.438 5.099 14.971 9.082 22.179 13.25.493-7.021.531-9.244.931-16.98z" fill="#DCE9E2"/><path d="M25.286 45.901c-2.953 2.71-5.743 4.923-8.701 7.632-.46.421-.957 1.066-.656 1.616.128.199.317.346.536.419.845.324 1.786 0 2.602-.404 2.311-1.128 4.355-2.806 6.712-3.83 2.915-1.266 6.371-1.581 8.616-3.891m-18.914-.972c1.694.776 3.887 1.887 5.581 2.662M8.137 46.677c3.95 2.02 6.368 3.222 10.12 4.803m-5.947 2.457a37.212 37.212 0 013.488-.074" stroke="#70B3A7" stroke-width=".868" stroke-linecap="round" stroke-linejoin="round"/><path d="M16.48 15.068c-4.275-1.148-9.178 1.735-10.428 6.112-1.249 4.377.94 9.131 3.83 12.64 2.888 3.51 7.827 7.734 11.515 10.56 3.425-3.153 5.452-4.663 8.89-8.18 3.255-3.329 6.13-7.337 6.802-12.024.383-2.666 0-5.626-1.79-7.587-2.006-2.205-5.438-2.61-8.137-1.42-2.455 1.086-4.188 3.14-4.75 5.505a9.01 9.01 0 00-2.302-3.557 8.592 8.592 0 00-3.63-2.05z" fill="#70B3A7"/></svg>