<svg width="64" height="64" fill="none" xmlns="http://www.w3.org/2000/svg"><path d="M61.685 23.28C58.53 13.067 49.15 6.912 34.86 4.967 22.98 3.347 8.824 7.43 2.514 21.166c-6.45 14.04.19 27.447 12.228 33.11 9.052 4.26 25.435 7.039 36.686.352 13.017-7.751 13.457-22.022 10.257-31.347z" fill="#DCE9E2"/><path d="M39.888 63.987l-27.797-3.88a1.225 1.225 0 01-.777-.425.983.983 0 01-.216-.792l8.237-47.005a1.06 1.06 0 01.477-.694c.256-.167.574-.237.887-.195l27.797 3.88c.312.045.591.198.777.426a.983.983 0 01.216.791L41.252 63.09a1.06 1.06 0 01-.475.7 1.311 1.311 0 01-.889.197z" fill="#70B3A7"/><path d="M39.478 55.401l6.828-38.928-24.422-3.415-6.828 38.929L39.478 55.4z" fill="#fff"/><path d="M26.471 59.102c.974 0 1.764-.705 1.764-1.575s-.79-1.575-1.764-1.575-1.764.705-1.764 1.575.79 1.575 1.764 1.575z" fill="#00856F"/><path d="M20.938 37.28a.796.796 0 00-.541.113.67.67 0 00-.191.187.57.57 0 00-.077.491c.024.083.067.16.125.227a.696.696 0 00.215.165.778.778 0 00.27.077 5.67 5.67 0 002.255-.175 5.246 5.246 0 001.947-1.03 4.794 4.794 0 01-.496-1.4c-.392.487-.926.87-1.543 1.107a4.106 4.106 0 01-1.961.239h-.003zm4.152-3.975c.081.37.094.751.038 1.126a4.128 4.128 0 00.339 2.378c.047.107.105.219.163.32.059.102.117.201.178.295.198.297.432.575.698.826.46.43 1.01.776 1.618 1.017a5.613 5.613 0 003.88.083 5.183 5.183 0 001.67-.946 4.78 4.78 0 01-.49-1.4 3.637 3.637 0 01-1.543 1.11 4.089 4.089 0 01-1.964.235 3.917 3.917 0 01-1.816-.706 3.322 3.322 0 01-1.145-1.444 2.884 2.884 0 01-.146-.483 3.042 3.042 0 01-.037-1.126 4.183 4.183 0 00-.503-2.696 7.798 7.798 0 00-.18-.297 4.815 4.815 0 00-1.558-1.464 5.474 5.474 0 00-2.113-.718.778.778 0 00-.528.123.628.628 0 00-.276.42.587.587 0 00.137.472.734.734 0 00.471.247 3.928 3.928 0 011.815.707c.522.378.918.877 1.146 1.441.065.158.117.32.155.485l-.009-.005zm14.348-.456a.775.775 0 00.511-.134.625.625 0 00.265-.412.586.586 0 00-.129-.461.727.727 0 00-.451-.253 5.672 5.672 0 00-2.252.173 5.25 5.25 0 00-1.947 1.027c.237.444.403.916.49 1.402a3.665 3.665 0 011.545-1.104 4.114 4.114 0 011.96-.238h.008zm-5.623 1.564c.084.37.097.751.038 1.126a4.153 4.153 0 00.508 2.698c.053.101.113.2.178.295.388.587.92 1.088 1.556 1.466a5.461 5.461 0 002.114.719.775.775 0 00.515-.13.625.625 0 00.268-.414.585.585 0 00-.13-.464.728.728 0 00-.454-.252 3.945 3.945 0 01-1.818-.709 3.349 3.349 0 01-1.149-1.444 3.507 3.507 0 01-.149-.485 2.984 2.984 0 01-.038-1.126 4.178 4.178 0 00-.339-2.378c-.052-.107-.105-.219-.163-.32a4.803 4.803 0 00-1.74-1.759 5.462 5.462 0 00-2.113-.717 5.663 5.663 0 00-2.252.173 5.24 5.24 0 00-1.945 1.028c.236.444.403.915.496 1.4a3.648 3.648 0 011.544-1.108 4.093 4.093 0 011.963-.235 3.92 3.92 0 011.815.706c.522.378.918.877 1.146 1.442.061.16.111.323.149.488z" fill="#008071"/><path d="M31.015 0H5.46c-.566 0-1.109.2-1.51.558a1.81 1.81 0 00-.624 1.348v13.676c0 .506.225.99.625 1.348.4.357.943.558 1.51.558h10.274l7.008 5.996-.999-5.996h9.28c.566 0 1.108-.2 1.509-.558.4-.357.625-.842.625-1.348V1.906c0-.251-.056-.5-.163-.731a1.91 1.91 0 00-.465-.62 2.17 2.17 0 00-.696-.412 2.358 2.358 0 00-.82-.143z" fill="#00856F"/><path d="M11.008 9.117l3.652 3.261 8.46-7.552" stroke="#fff" stroke-width=".912" stroke-linecap="round" stroke-linejoin="round"/></svg>