<svg width="64" height="64" fill="none" xmlns="http://www.w3.org/2000/svg"><path d="M51.975 58.83V0H0v58.83h51.975z" fill="#DCE9E1"/><path d="M46.973 51.115V7.712H5.006v43.403h41.967z" stroke="#70B2A6" stroke-width="1.051" stroke-miterlimit="10"/><path d="M5.2 25.67h41.256M5.229 38.537h41.255M15.565 7.877v43.076M25.987 7.877v43.076M36.41 7.877v43.076" stroke="#70B2A6" stroke-width="1.051" stroke-linecap="round" stroke-linejoin="round"/><path d="M47.576 6.418H4.358v8.043h43.218V6.418z" fill="#70B2A6"/><path d="M63.614 46.072c-7.774-11.447-21.876-6.004-29.306-17.805l-5.574 16.784a8.21 8.21 0 00.459 2.481 6.408 6.408 0 001.141 2.022c3.114 2.783 6.904 4.08 10.48 5.305 6.113 1.312 12.997 1.843 17.078 9.156a221.506 221.506 0 015.851-16.685.979.979 0 00.123-.314c.024-.115.03-.236.018-.355a1.072 1.072 0 00-.089-.334.79.79 0 00-.18-.255z" fill="#00856F"/><path d="M61.328 46.831c-6.956-9.26-19.138-4.575-26.385-13.809l-4.028 12.609c6.203 8.78 16.05 6.079 23.58 11.134 1.052.6 2.163 1.387 2.663 2.804l4.275-11.62c.083-.173.118-.381.099-.586a.996.996 0 00-.204-.532z" fill="#70B3A7"/><path d="M50.261 44.058c-.37-2.837-2.678-3.137-4.397-2.867-2.452.054-4.79 3.407-4.266 6.835 1.282 7.085 10.122 2.576 8.663-3.968z" fill="#DCE9E2"/></svg>