<svg width="196" height="30" fill="none" xmlns="http://www.w3.org/2000/svg"><path d="M0 0h14.37c2.736 0 4.789.559 6.31 1.49 1.672 1.117 2.585 2.73 2.585 4.716 0 2.297-1.14 3.724-3.422 4.593v.124c3.041.807 4.79 3.041 4.79 5.71 0 2.545-1.216 4.53-3.193 5.772-1.673.993-3.802 1.427-6.69 1.427H0V0zm12.925 9.31c1.52 0 2.66-.683 2.66-2.11 0-1.366-1.14-2.049-2.736-2.049H7.907v4.096h5.018v.063zm.684 9.247c1.749 0 3.041-.869 3.041-2.42 0-1.676-1.368-2.42-3.041-2.42H7.983v4.902h5.626v-.062zM25.925 0h7.527v23.895h-7.527V0zm9.048 15.392c0-5.4 4.258-9 10.872-9s10.796 3.662 10.796 9c0 5.4-4.182 9-10.796 9-6.614 0-10.872-3.6-10.872-9zm14.141 0c0-2.98-1.14-4.841-3.421-4.841-2.281 0-3.345 1.862-3.345 4.84 0 2.98 1.064 4.904 3.345 4.904 2.28-.062 3.421-1.924 3.421-4.903zm8.363 0c0-5.4 4.258-9 10.873-9 6.614 0 10.72 3.6 10.72 9s-4.182 9-10.797 9c-6.538 0-10.795-3.6-10.795-9zm14.142 0c0-2.98-1.14-4.841-3.422-4.841-2.28 0-3.345 1.862-3.345 4.84 0 2.98 1.065 4.904 3.345 4.904 2.281-.062 3.422-1.924 3.422-4.903zm8.971-8.565h6.994V9.37h.152c1.369-1.986 3.27-3.04 6.31-3.04 2.662 0 4.638 1.054 5.627 2.916h.152c1.672-2.234 3.877-2.917 6.462-2.917 4.866 0 6.919 2.917 6.919 6.827v10.675h-7.299v-9.62c0-1.738-.684-2.855-2.509-2.855-1.824 0-2.737 1.366-2.737 3.228v9.247h-7.299v-9.62c0-1.738-.684-2.855-2.508-2.855-1.825 0-2.737 1.366-2.737 3.228v9.247H80.59V6.827zm41.815 14.771h-.076v2.234h-6.995V0h7.298v8.565h.153c1.369-1.49 3.269-2.297 5.931-2.297 5.245 0 8.287 3.848 8.287 9 0 5.772-3.27 9.123-8.744 9.123-2.281 0-4.638-.869-5.854-2.793zm7.07-6.392c0-2.731-1.216-4.531-3.421-4.531-2.281 0-3.649 1.8-3.649 4.53 0 2.731 1.445 4.531 3.649 4.531 2.205 0 3.421-1.738 3.421-4.53zm8.363.124c0-5.338 4.334-9 10.568-9 3.118 0 5.475.807 7.299 2.234 2.433 1.924 3.497 4.903 3.421 8.379h-13.988c.304 2.11 1.52 3.227 3.725 3.227 1.293 0 2.433-.496 2.889-1.613h7.071c-1.217 3.91-4.942 5.834-10.188 5.834-6.463-.062-10.797-3.662-10.797-9.062zm7.3-1.8h6.69c-.152-2.049-1.52-3.104-3.27-3.104-2.052-.062-3.192 1.117-3.42 3.104zm22.275-3.786h.152c1.521-2.358 3.498-3.29 6.006-3.29.609 0 .989.063 1.217.187v5.213h-.152c-4.334-.62-6.843 1.055-6.843 4.903v7.137h-7.374V6.827h6.994v2.917zm8.136 14.151h7.07c.304.744 1.217 1.427 2.965 1.427 2.357 0 3.193-1.18 3.193-2.979v-1.241h-.151c-1.141 1.117-2.737 1.924-5.018 1.924-4.486 0-8.439-2.731-8.439-8.069 0-4.903 3.192-8.688 8.058-8.688 2.814 0 4.486.93 5.626 2.358h.152V6.765H196v14.771c0 2.731-1.14 4.841-2.889 6.082-1.825 1.304-4.41 1.862-7.375 1.862-5.625.062-9.503-1.8-10.187-5.585zm13.532-9.186c0-2.11-1.216-3.848-3.345-3.848-2.052 0-3.345 1.49-3.345 3.848 0 2.297 1.293 3.91 3.345 3.91 2.053 0 3.345-1.675 3.345-3.91z" fill="#64726F"/></svg>