<svg width="196" height="30" fill="none" xmlns="http://www.w3.org/2000/svg"><g clip-path="url(#clip0)"><path fill-rule="evenodd" clip-rule="evenodd" d="M109.876.141c-9.152.985-13.306 1.449-13.457 1.502-.175.062-.174.645.002.804.073.066.6.183 1.17.26 1.964.262 2.519.559 3.106 1.658.49.917.647 5.464.527 15.279l-.109 8.864.83.107c4.55.584 7.152.758 11.308.757 4.356-.001 5.676-.11 8.332-.681 3.982-.858 7.315-2.533 9.107-4.578.706-.805 1.636-2.4 1.976-3.39.374-1.087.322-4.456-.084-5.469-1.641-4.089-6.349-6.701-12.405-6.882-2.868-.086-5.569.186-7.692.775-.377.105-.748.19-.825.19-.078 0-.141-2.103-.141-4.674 0-3.678-.046-4.671-.217-4.663-.119.006-.761.07-1.428.141zM.19.578c-.182.066-.217.228-.14.655.056.312.13.584.166.604.036.02.605.081 1.266.136 2.498.205 3.573.59 4.353 1.564C6.879 4.839 7.1 6.765 7.098 14.507c-.002 9.07-.315 10.98-1.983 12.113-.65.441-1.219.594-3.085.828-.871.11-1.685.246-1.807.305-.123.058-.223.3-.223.538 0 .325.083.457.335.534.512.158 24.985.142 25.26-.016.283-.163.263-.924-.028-1.063-.13-.061-1.074-.198-2.099-.304-2.16-.224-2.96-.473-3.63-1.13-1.084-1.063-1.453-2.8-1.604-7.552l-.1-3.158.414.003c1.608.01 5.607.201 6.233.298 1.66.255 2.863 1.166 3.676 2.786l.422.842 1.073.05c.59.027 1.106.03 1.146.008.04-.023.072-2.205.072-4.848V9.934h-1.018c-.605 0-1.088.05-1.192.124-.096.069-.345.482-.552.919-.609 1.285-1.652 2.15-3.12 2.585-.623.185-3.134.346-5.444.348l-1.716.002.13-4.848c.073-2.667.183-5.184.245-5.594l.113-.746 4.589.03c5.077.032 5.994.098 7.57.545 2.473.701 4.442 2.125 5.947 4.298 1.035 1.495.959 1.46 2.53 1.175l.924-.167-.11-3.637c-.06-2-.16-3.815-.221-4.034l-.112-.398-19.65-.023C8.838.499.329.527.19.578zm49.15 7.614c-7.079.685-12.233 3.508-13.858 7.59-.491 1.236-.627 3.905-.267 5.253.358 1.341 1.303 2.977 2.316 4.013 1.476 1.509 4.322 2.946 7.234 3.654 2.515.612 6.577.871 9.917.634 7.442-.529 12.802-3.476 14.515-7.982.403-1.058.424-4.232.035-5.304-1.653-4.564-6.088-7.18-13.313-7.853-1.931-.18-4.752-.182-6.58-.005zm27.833.721c-6.813.786-7.435.874-7.598 1.08-.277.35-.033.724.518.794 3.101.393 3.392.527 3.986 1.832.32.702.495 8.896.244 11.387-.275 2.732-.783 3.242-3.542 3.562l-1.08.125-.052.563-.052.562.572.059c.314.032 5.051.046 10.528.03l9.957-.028v-1.187l-1.558-.112c-1.957-.14-2.31-.204-2.9-.521-1.27-.682-1.567-2.244-1.58-8.284-.012-4.964-.093-4.696 1.555-5.13a15.246 15.246 0 012.126-.348c1.896-.162 3.229.012 6.713.877.123.031.541-.452 1.1-1.275 1.567-2.3 2.596-3.951 2.596-4.163 0-.601-4.166-.92-6.56-.503-2.442.426-4.863 1.62-6.508 3.208-.445.429-.852.78-.906.78-.053 0-.049-.48.01-1.069.183-1.822.189-3.043.016-3.07-.09-.013-3.504.361-7.585.831zm73.239-.758c-7.757.65-13.303 4.03-14.489 8.833-.326 1.316-.115 3.801.423 5 .783 1.743 2.214 3.249 4.264 4.488 2.164 1.308 4.729 2.162 8.025 2.67 2.012.31 6.832.314 8.781.007 2.031-.32 3.959-.78 5.19-1.236 1.087-.404 4.156-2.053 4.156-2.232-.002-.194-.704-.735-.954-.735-.147 0-.869.2-1.604.443-1.927.638-3.441.85-6.072.85-3.445 0-5.549-.444-7.683-1.622-1.788-.986-2.722-1.93-3.463-3.5-.376-.796-.777-2.811-.608-3.063.104-.156.889-.168 10.427-.168 9.153 0 10.326-.018 10.417-.154.056-.085.015-.683-.091-1.328-.555-3.355-2.651-5.744-6.246-7.116-2.71-1.035-6.624-1.46-10.473-1.137zm30.478-.007c-6.38.578-10.612 2.914-10.958 6.048-.25 2.25 1.303 4.076 4.449 5.232 1.155.424 1.387.486 5.754 1.542 4.727 1.142 6.058 1.874 6.068 3.334.008 1.148-.74 1.99-2.259 2.543-1.146.418-1.971.52-3.769.467-1.314-.039-1.759-.1-2.771-.375-2.182-.596-3.849-1.782-5.538-3.942-.833-1.064-.992-1.136-2.065-.932l-.589.112.081 2.605c.095 3.04.154 3.417.552 3.54.464.142 3.411.584 5.49.824 1.655.19 2.414.217 5.8.205 3.298-.011 4.103-.044 5.237-.214 2.822-.422 4.746-1.005 6.384-1.936 1.957-1.11 3.022-2.483 3.208-4.134.211-1.874-.488-3.167-2.316-4.287-1.282-.786-2.986-1.388-6.179-2.184-3.92-.976-5.421-1.466-6.71-2.187-1.337-.749-1.628-1.173-1.471-2.147.117-.73.339-1.047 1.132-1.62 1.352-.978 3.869-1.188 6.324-.529 2.071.557 3.52 1.616 4.968 3.633.35.487.734.92.855.962.119.043.545.014.945-.065l.727-.142-.062-1.811c-.034-.996-.106-2.221-.16-2.722l-.098-.911-1.476-.27a52.163 52.163 0 00-3.319-.459c-2.125-.217-6.717-.318-8.234-.18zM53.597 9.82c.969.253 2.4 1.191 3.106 2.036 1.236 1.479 1.797 3.261 1.948 6.194.178 3.436-.416 6.262-1.644 7.817-1.665 2.109-5.023 2.672-7.487 1.257-1.427-.82-2.438-2.23-3.232-4.512-.457-1.313-.45-6.993.01-8.452.747-2.369 2.073-3.868 3.834-4.337.91-.242 2.544-.243 3.465-.003zm100.45.219c1.455.808 2.351 2.67 2.532 5.264l.052.746-2.251.063c-1.238.035-3.557.069-5.153.075l-2.902.011.105-.572c.438-2.371 1.761-4.464 3.392-5.364.93-.513 1.492-.642 2.612-.601.859.031 1.083.084 1.613.378zm-36.968 1.001c2.047.626 3.506 1.918 4.422 3.915.399.87.467 1.246.54 2.994.09 2.192-.066 3.186-.743 4.74-1.122 2.572-2.889 4.198-5.249 4.83-.836.223-1.201.26-2.51.253-1.051-.006-1.576-.048-1.67-.136-.076-.07-.185-.738-.241-1.482-.179-2.347-.285-12.027-.15-13.633l.129-1.538.693-.12c.381-.065 1.383-.123 2.227-.127 1.4-.007 1.623.02 2.552.304z" fill="#64726F"/></g><defs><clipPath id="clip0"><path fill="#fff" d="M0 0h196v30H0z"/></clipPath></defs></svg>