<svg width="196" height="30" fill="none" xmlns="http://www.w3.org/2000/svg"><path d="M172.413 3.857c0-2.034.598-2.735 1.595-2.735.996 0 1.794.421 2.724 2.735l5.648 13.536v8.557c0 2.034-.798 2.595-2.99 2.875v.561h10.431v-.56c-2.259-.281-2.99-.913-2.99-2.876v-8.557l5.448-13.045c1.063-2.525 2.127-3.086 3.721-3.366V.42h-7.641v.56c2.591.281 3.522 1.053 2.791 2.876l-4.784 11.573-4.916-11.853c-.664-1.613-.267-2.104 2.591-2.525v-.56H167.63v.561c2.591.42 3.388.912 3.388 2.876v15.85L158.992.49h-5.913v.561c1.927.28 2.525.912 2.525 2.876V26.02c0 2.034-.532 2.735-1.196 2.735-.598 0-.93-.28-1.794-2.735L143.711.35h-.531l-8.571 24.548c-.93 2.735-2.392 3.647-3.853 3.997v.561h7.84v-.56c-2.725-.281-3.588-1.403-2.99-3.227l1.926-5.61h8.106l1.86 5.26c.798 2.384.332 3.085-1.992 3.506v.561h14.882v-.56c-2.591-.422-3.389-.913-3.389-2.876V6.172l14.551 23.284h.863V3.857zM67.503 14.868c0-8.977 4.054-13.676 8.77-13.676 2.791 0 4.585.631 5.648 1.824.798.841 1.396 2.034 2.06 3.927h.532V.912C81.788.35 79.33 0 76.872 0c-7.11 0-14.484 4.84-14.484 14.868 0 10.03 7.375 14.869 14.019 14.869 2.923 0 5.514-.49 7.973-1.262l.797-5.681-.465-.14a15.046 15.046 0 01-2.126 3.155c-1.728 1.824-4.053 2.806-6.379 2.806-4.517-.07-8.703-4.63-8.703-13.746zm58.934.842c-.598 0-1.396-.07-2.193-.21V1.473h2.193c3.654 0 5.249 2.034 5.249 7.083 0 5.12-1.662 7.154-5.249 7.154zM41.06.42v6.944h.532c.797-4.418 2.458-5.821 5.249-5.821h1.328V25.95c0 2.034-.797 2.595-2.99 2.875v.561h10.432v-.56c-2.26-.281-2.99-.913-2.99-2.876V1.473h1.329c2.79 0 4.451 1.403 5.249 5.821h.531V.351H41.06v.07zm-8.305 29.317c4.518 0 9.302-2.735 9.302-8.346 0-3.296-1.661-6.031-4.584-7.715L32.29 10.66c-2.724-1.613-3.521-3.085-3.521-5.19 0-2.384 1.66-4.278 4.784-4.278 1.528 0 2.657.421 3.587 1.333.798.841 1.595 2.244 2.326 4.769h.465V.912C38.07.35 36.144 0 33.885 0c-4.452 0-7.774 2.946-7.774 7.925 0 3.156 1.661 6.032 4.385 7.715l4.784 2.805c2.724 1.613 3.588 3.156 3.588 5.47 0 2.736-2.658 4.7-5.581 4.7-1.927 0-3.522-.701-4.651-1.894-.73-.771-1.528-1.964-2.06-3.506H29.7v-.562c-.864-.21-1.395-.35-2.126-2.174L21.46 5.12h-.531l-5.98 15.01c-.797 2.033-1.329 2.384-2.259 2.524v.562h5.315v-.562c-1.926-.21-2.458-1.192-1.993-2.454l.93-2.385h5.382l1.196 2.946c.532 1.332-.266 1.683-2.193 1.823v.561h4.253v5.541c2.126.631 4.85 1.052 7.175 1.052zm67.504-.28l7.907-23.215.597 19.778c.067 1.964-.664 2.525-2.923 2.805v.561h21.792v-.56c-2.591-.422-3.388-.913-3.388-2.876v-9.328a15.7 15.7 0 002.392.21c5.248 0 9.766-2.034 9.766-8.205 0-6.172-4.518-8.206-9.766-8.206h-9.368v.56c1.926.281 2.524.913 2.524 2.876V25.95c0 2.034-.796 2.875-2.99 2.875h-.065c-2.326 0-3.323-.911-3.389-2.805l-.798-22.092c-.066-2.034.599-2.666 2.658-2.946V.42h-6.445l-7.042 20.83L94.678.42h-6.91v.56c2.06.281 2.724.983 2.658 2.947l-.731 21.18c-.067 2.104-1.13 3.367-3.056 3.717v.561h7.308v-.56c-1.86-.281-2.923-1.544-2.857-3.718l.598-19.287 8.04 23.565.531.07zm-21.195-6.102c3.522 0 8.04-3.297 8.04-8.487 0-5.12-4.452-8.486-8.04-8.486-3.521 0-8.039 3.297-8.039 8.486 0 5.12 4.452 8.487 8.04 8.487zm0-15.78c2.26 0 3.788 1.963 3.788 7.293 0 5.4-1.595 7.294-3.788 7.294-2.259 0-3.787-1.963-3.787-7.293 0-5.4 1.528-7.294 3.787-7.294zm66.242 11.291h-7.375l3.655-10.66 3.72 10.66zM21.992 16.692h-4.518l2.259-5.821 2.259 5.821zm-8.637 1.473h.531V9.468h-.531c-.864 3.086-1.728 3.787-3.322 3.787H6.976V1.473h4.85c2.791 0 4.452 1.403 5.25 5.821h.53V.351H0v.56c1.927.281 2.525.912 2.525 2.876V25.88c0 2.034-.598 2.595-2.525 2.875v.561h10.365v-.56c-2.591-.422-3.389-.913-3.389-2.876V14.307h3.057c1.528.07 2.458.772 3.322 3.858z" fill="#64726F"/></svg>