<svg width="196" height="30" fill="none" xmlns="http://www.w3.org/2000/svg"><path d="M17.589.781h2.931v11.08h7.505V.782h2.228v27.312h-2.228v-14.67H20.52v14.67h-2.93V.781zm32.54 27.39h1.641V6.243l12.957 22.318V.86h-1.583v17.792L52.65.859h-2.521v27.312zm17.354 0h12.078l1.524-4.136s-2.11 2.263-6.214 2.263h-4.222V13.657h3.049c1.7 0 2.404 1.404 2.404 1.404v-4.057c-.587.78-.821 1.014-2.404 1.014h-3.049V2.42h1.818c2.345 0 3.576 1.638 3.576 1.638L74.988.86h-7.505v27.312zm104.068 0h8.091l1.818-3.277s-1.408 1.482-4.984 1.482h-1.993V13.501h3.342c1.7 0 2.052.936 2.052.936v-3.2c-.469.625-.821.781-2.052.781h-3.342V2.42h2.756c2.579 0 3.751 1.638 3.751 1.638L179.936.86h-8.326l-.059 27.312zm-138.542-.078h8.09l1.818-3.277s-1.407 1.482-4.983 1.482H35.94V13.501h3.342c1.7 0 2.052.936 2.052.936V11.16c-.469.624-.82.78-2.052.78H35.94V2.342h2.756c2.58 0 3.752 1.638 3.752 1.638L41.393.781h-8.326l-.058 27.312zM9.264 2.576h2.58c2.755 0 3.986 1.639 3.986 1.639L14.716.859H1.114L0 4.215s1.231-1.64 3.987-1.64h2.462v25.518h2.932L9.264 2.576zm76.922 25.83l3.107-8.975 3.166 8.896L101.606.781h-1.817l-6.625 20.055-2.228-6.477L95.274.781h-1.525l-3.635 10.69-3.81-10.69h-3.05l5.219 15.841-1.407 4.214L80.264.78H77.1l9.087 27.624zm32.364-13.657c0 7.335 4.338 14.67 11.667 14.67s11.199-6.008 11.199-15.45C141.416 6.634 137.135 0 130.041 0c-6.86-.078-11.491 6.477-11.491 14.748zm11.374-13.266c5.57 0 8.443 7.18 8.443 12.798 0 7.023-2.287 13.188-7.915 13.188-6.157 0-8.854-7.023-8.854-13.422 0-8.428 4.456-12.564 8.326-12.564zm13.895 26.688h2.991V2.341h1.348c.762 0 2.639.625 2.639 4.76 0 4.37-2.697 5.151-2.697 5.151v.546c1.289 0 2.872.156 2.872 7.96 0 5.384 1.407 7.725 3.284 7.725 1.876 0 2.697-1.716 2.814-1.95l-.411-.39c-.176.39-.703 1.014-1.406 1.014-.88 0-1.877-1.951-1.877-7.102 0-5.228-1.056-7.1-3.987-7.725 1.583-.702 3.987-1.795 3.987-6.009 0-3.59-2.111-5.54-4.632-5.54h-4.807l-.118 27.39zm38.93 0h2.99V2.341h1.349c.762 0 2.639.625 2.639 4.76 0 4.37-2.697 5.151-2.697 5.151v.546c1.29 0 2.872.156 2.872 7.96 0 5.384 1.408 7.725 3.283 7.725 1.877 0 2.697-1.716 2.815-1.95l-.411-.39c-.175.39-.703 1.014-1.407 1.014-.879 0-1.876-1.951-1.876-7.102 0-5.228-1.055-7.1-3.986-7.725 1.582-.702 3.986-1.795 3.986-6.009 0-3.59-2.111-5.54-4.631-5.54h-4.808l-.118 27.39zm-16.005-9.052c0-6.243-.997-9.13-3.929-9.832l5.687-8.428h-1.934l-5.394 8.038V.859h-2.931l-.059 27.312h2.99V10.145h.645c.528 0 1.7.937 1.993 2.263.411 1.639.528 4.136.528 7.413v1.093c0 5.384 1.407 7.725 3.283 7.725s2.697-1.716 2.815-1.95l-.411-.39c-.176.39-.704 1.014-1.407 1.014-.879 0-1.876-1.951-1.876-7.101v-1.093zm-52.415 9.052V14.047L120.016.859h-1.877l-5.452 12.564L107.235.859h-1.877l5.687 13.188V28.17h3.284z" fill="#64726F"/></svg>