<svg width="32" height="32" fill="none" xmlns="http://www.w3.org/2000/svg"><path d="M1.778 30.167l3.276-1.392c1.672.632 3.422.956 5.184.959l8.35-.279a8.603 8.603 0 003.772-1.028 9.792 9.792 0 003.105-2.653l4.697-6.064c1.19-1.361 1.11-.836-.217-2.243-.502-.54-1.165-.84-1.854-.84-.69 0-1.352.3-1.854.84L22.08 22.2h-.325a2.863 2.863 0 00-.729-1.753c-.425-.461-.986-.724-1.572-.737h-5.671a4.05 4.05 0 01-2.382-.65 4.303 4.303 0 00-3.477-.416c-1.164.36-2.168 1.204-2.817 2.365a3.941 3.941 0 01-1.358 1.41 3.342 3.342 0 01-1.782.493h-.19" stroke="#0D8570" stroke-width="1.445" stroke-linecap="round" stroke-linejoin="round"/><path d="M11.997 23.995h9.76v-1.454a3.053 3.053 0 00-.16-1.04 2.782 2.782 0 00-.496-.893 2.397 2.397 0 00-.757-.607 2.125 2.125 0 00-.902-.229h-5.644a4.06 4.06 0 01-2.396-.65 4.292 4.292 0 00-3.046-.526c-1.269.263-2.397 1.085-3.14 2.29M21.607 2.895c-1.461-.913-3.492 0-4.778 1.965-1.313-1.965-3.343-2.862-4.805-1.965a3.93 3.93 0 00-1.065 1.174 4.517 4.517 0 00-.57 1.56c-.096.56-.09 1.136.017 1.692a4.49 4.49 0 00.603 1.545c1.354 2.63 5.17 5.693 5.888 6.188.704-.557 4.535-3.682 5.807-6.343.267-.462.451-.98.541-1.525a4.745 4.745 0 00-.019-1.646 4.484 4.484 0 00-.576-1.51 3.905 3.905 0 00-1.043-1.135z" stroke="#0D8570" stroke-width="1.445" stroke-linecap="round" stroke-linejoin="round"/></svg>