<svg width="56" height="59" fill="none" xmlns="http://www.w3.org/2000/svg"><path d="M36.55 1.021H12.047c-2.805 0-5.078 2.267-5.078 5.063v34.94c0 2.796 2.273 5.063 5.078 5.063H36.55a5.07 5.07 0 005.077-5.063V6.084a5.07 5.07 0 00-5.077-5.063z" fill="#DCE9E1"/><path d="M13.798 10.688h21.2m-21.2 7.955h21.2m-21.2 7.956h21.2m-21.2 7.955h21.2" stroke="#70B2A6" stroke-width=".867" stroke-linecap="round" stroke-linejoin="round"/><path d="M33.265 0h-16.1v3.571h16.1V0z" fill="#0B8470"/><path d="M54.86 21.612l-22.335-.054-.074 30.002 22.335.055.074-30.003z" fill="#70B3A7"/><path d="M54.86 21.612l-22.335-.054-.018 7.215 22.335.054.018-7.215z" stroke="#00856F" stroke-width=".867" stroke-linecap="round" stroke-linejoin="round"/><path d="M50.23 32.86l-.044 13.849" stroke="#0D8570" stroke-width=".867" stroke-linecap="round" stroke-linejoin="round"/><path d="M37.332 21.785v6.557m6.521-6.617v6.754m6.773-6.754v6.502" stroke="#0E8671" stroke-width=".867" stroke-linecap="round" stroke-linejoin="round"/><path d="M6.718 40.02c-2.502-.328-5.249.935-6.26 3.238-.801 1.828-.458 3.98.436 5.755.894 1.776 2.291 3.245 3.666 4.686 2.117 2.221 7.772 5.3 7.772 5.3s3.991-2.556 5.669-3.98c2.236-1.9 4.543-3.897 5.728-6.58 1.184-2.681.864-6.264-1.512-7.995-1.543-1.122-3.685-1.237-5.463-.542-1.331.537-3.286 3.279-4.477 3.246-1.508-.04-3.54-2.86-5.559-3.127z" fill="#0B8470"/><path d="M12.415 45.56s-1.542-5.434 1.968-9.304" stroke="#0E8671" stroke-width=".867" stroke-linecap="round" stroke-linejoin="round"/><path d="M21.096 43.437s2.275 5.179-8.746 11.978" stroke="#fff" stroke-width=".867" stroke-linecap="round" stroke-linejoin="round"/></svg>