<svg width="56" height="44" fill="none" xmlns="http://www.w3.org/2000/svg"><path d="M54.573 7.194H11.11c-.573 0-1.037.469-1.037 1.048v31.177c0 .579.464 1.048 1.037 1.048h43.464c.573 0 1.038-.469 1.038-1.048V8.242c0-.579-.465-1.048-1.038-1.048z" fill="#70B3A7"/><path d="M26.382 6.824c.05-1.169.197-2.33.439-3.474.173-.796.413-1.637 1.037-2.15a4.017 4.017 0 012.384-.823c2.182-.068 4.381 0 6.57 0 1.665 0 2.496 1.694 2.572 2.51l.396 4.246" stroke="#0D8570" stroke-width=".889" stroke-linecap="round" stroke-linejoin="round"/><path d="M19.587 43.268h-8.02a3.991 3.991 0 01-2.711-1.065 4.07 4.07 0 01-1.287-2.637L6.117 22.704h18.971l-1.505 16.878a4.068 4.068 0 01-1.29 2.626 3.988 3.988 0 01-2.706 1.06z" fill="#00856F"/><path d="M24.499 22.96c0 .823-3.989 1.475-8.902 1.454-1.493 0-2.9-.075-4.135-.189-2.83-.262-4.758-.768-4.754-1.341 0-.824 3.988-1.476 8.901-1.455 4.914.021 8.893.708 8.89 1.53z" fill="#70B2A6" stroke="#0D8570" stroke-width="1.556" stroke-linecap="round" stroke-linejoin="round"/><path d="M7.299 27.374c-.145-3.208-5.375-4.151-6.426-.733-1.533 4.995 7.128 5.744 7.394 11.64" stroke="#0D8570" stroke-width="1.778" stroke-linecap="round" stroke-linejoin="round"/><path d="M40.48 38.2s-9.89-10.68-10.585-11.376c-.938 1.075-1.98 2.13-2.919 3.206a.175.175 0 00-.057.115.175.175 0 00.057.098l1.06 1.128 5.221 5.565c1.247 1.329 3.956 4.352 4.01 4.355.053.004 2.28-1.949 3.213-3.09z" fill="#DCE9E2"/><path d="M25.391 25.271l.804 2.564a35.085 35.085 0 001.803-1.65l-2.607-.913z" fill="#00856F"/><path d="M29.872 26.841l-1.865-.656a38.504 38.504 0 01-1.803 1.65l.724 2.31a18.546 18.546 0 002.944-3.304z" fill="#fff"/><path d="M40.48 38.2c-1.037 1.048-2.247 1.995-3.214 3.091a22.198 22.198 0 002.67 2.71 54.313 54.313 0 003.21-2.931L40.48 38.2z" fill="#00856F"/><path d="M41.025 37.647l-4.526 4.394M11.583 14.477H54.21m-25.654.301v2.306h7.688v-2.428" stroke="#0D8570" stroke-width=".889" stroke-linecap="round" stroke-linejoin="round"/></svg>