<svg width="55" height="68" fill="none" xmlns="http://www.w3.org/2000/svg"><path d="M6.01 1.618s.822 26.39 1.026 60.092l47.357-1.989s-2.33-34.184-2.33-59.07l-46.054.967z" fill="#70B3A7" stroke="#fff" stroke-width="1.089" stroke-linecap="round" stroke-linejoin="round"/><path d="M.526 7.498S-1.12 32.794 1.413 68l47.093-.875S46.41 32.598 46.724 7.918L.526 7.498z" fill="#DCE9E2"/><path d="M34.386 36.076l-26.959.057m32.971 3.237l-32.91.535m31.696 3.281l-31.634.492m15.321 3.474l-15.259.298m32.97 3.237l-32.91.535m30.69 3.176l-30.628.595m32.41 3.371l-32.347.403m27.548 3.289l-27.489.482" stroke="#70B3A7" stroke-width=".819" stroke-linecap="round" stroke-linejoin="round"/><path d="M7.931 22.972a.576.576 0 00-.587.558.571.571 0 00.56.585 4.055 4.055 0 003.2-1.444 4.672 4.672 0 01-.536-1.193 2.934 2.934 0 01-2.637 1.494zm2.88-3.889c.102.322.15.658.144.995a4.09 4.09 0 001.47 3.254 4.045 4.045 0 005.686-.497 4.69 4.69 0 01-.521-1.206 2.931 2.931 0 01-2.64 1.504 2.94 2.94 0 01-2.56-1.633 3.177 3.177 0 01-.177-.423 3.048 3.048 0 01-.142-.994 4.12 4.12 0 00-.673-2.34 14.811 14.811 0 00-.172-.248 4.053 4.053 0 00-3.12-1.584.57.57 0 00-.582.553.566.566 0 00.554.581 2.943 2.943 0 012.732 2.046v-.008zm11.308-1.695a.569.569 0 00.447-.968.569.569 0 00-.42-.163 4.063 4.063 0 00-3.203 1.434c.235.373.415.779.534 1.204a2.947 2.947 0 012.642-1.492v-.015zm-4.293 1.867c.106.32.155.657.145.995a4.09 4.09 0 00.675 2.339 4.036 4.036 0 003.288 1.842.573.573 0 00.565-.327.563.563 0 00-.31-.766.57.57 0 00-.228-.038 2.956 2.956 0 01-2.731-2.051 2.977 2.977 0 01-.145-.994 4.116 4.116 0 00-.498-2.071c-.053-.09-.107-.184-.162-.269-.055-.084-.115-.164-.177-.249a4.043 4.043 0 00-3.578-1.583 4.052 4.052 0 00-2.746 1.427c.236.373.418.778.539 1.203a2.934 2.934 0 012.638-1.505 2.942 2.942 0 012.561 1.632 3.1 3.1 0 01.167.415" fill="#008071"/></svg>