<svg width="32" height="31" fill="none" xmlns="http://www.w3.org/2000/svg"><path d="M16 2.793c4.272 0 4.779.015 6.465.09 1.822.08 3.511.434 4.811 1.693 1.3 1.26 1.665 2.896 1.748 4.66.077 1.635.093 2.125.093 6.264s-.016 4.63-.093 6.263c-.083 1.765-.448 3.401-1.748 4.66-1.3 1.26-2.99 1.614-4.81 1.694-1.687.075-2.194.09-6.466.09s-4.779-.015-6.465-.09c-1.82-.08-3.511-.434-4.811-1.693-1.3-1.26-1.665-2.896-1.748-4.66-.077-1.635-.093-2.125-.093-6.264s.016-4.63.093-6.263c.083-1.763.448-3.401 1.748-4.66 1.3-1.26 2.99-1.614 4.81-1.694 1.687-.075 2.194-.09 6.466-.09zM16 0c-4.345 0-4.89.017-6.597.093-2.6.116-4.884.732-6.718 2.508C.852 4.377.213 6.588.096 9.11.019 10.762 0 11.292 0 15.5c0 4.21.017 4.738.096 6.391.12 2.519.756 4.732 2.59 6.508 1.833 1.776 4.115 2.393 6.717 2.508 1.706.075 2.253.093 6.597.093 4.345 0 4.89-.018 6.597-.093 2.6-.116 4.884-.732 6.718-2.508 1.833-1.777 2.47-3.99 2.589-6.508.077-1.653.096-2.183.096-6.391 0-4.21-.019-4.738-.096-6.391-.12-2.519-.756-4.732-2.59-6.508C27.482.825 25.198.207 22.598.093 20.891.018 20.344 0 16 0z" fill="#00856F"/><path d="M16 7.75c-1.093 0-2.174.2-3.184.59a8.39 8.39 0 00-2.7 1.68 7.74 7.74 0 00-1.803 2.514A7.292 7.292 0 007.68 15.5c0 1.018.215 2.026.633 2.966a7.738 7.738 0 001.804 2.514 8.38 8.38 0 002.7 1.68c1.009.39 2.09.59 3.183.59 2.207 0 4.323-.817 5.883-2.27 1.56-1.453 2.437-3.425 2.437-5.48 0-2.055-.877-4.027-2.437-5.48-1.56-1.453-3.676-2.27-5.883-2.27zm0 12.78c-1.432 0-2.806-.53-3.819-1.473-1.013-.943-1.582-2.223-1.582-3.557s.57-2.614 1.582-3.557c1.013-.944 2.387-1.474 3.82-1.474 1.431 0 2.805.53 3.818 1.474 1.013.943 1.582 2.223 1.582 3.557s-.57 2.614-1.582 3.557c-1.013.944-2.386 1.474-3.819 1.474zm8.96-11.489c1.06 0 1.92-.867 1.92-1.937s-.86-1.938-1.92-1.938-1.92.868-1.92 1.938c0 1.07.86 1.937 1.92 1.937z" fill="#00856F"/></svg>