<svg width="162" height="22" fill="none" xmlns="http://www.w3.org/2000/svg"><g clip-path="url(#clip0)" fill="#0B8470"><path d="M43.15 18.704a9.741 9.741 0 01-4.486-1.096c-1.353-.71-2.456-1.728-3.19-2.94a11.492 11.492 0 01-1.66 3.027c1.118 1.212 2.538 2.191 4.154 2.865a13.532 13.532 0 005.179 1.027 1.8 1.8 0 001.132-.448c.297-.27.463-.628.463-1a1.35 1.35 0 00-.463-1 1.8 1.8 0 00-1.132-.449l.004.014zM34.938 8.572a6.9 6.9 0 01.537-1.053c.734-1.213 1.836-2.23 3.19-2.941a9.738 9.738 0 014.486-1.095 1.8 1.8 0 001.133-.448c.297-.27.463-.628.463-1 0-.373-.166-.73-.463-1A1.8 1.8 0 0043.15.586a13.525 13.525 0 00-5.18 1.027c-1.615.675-3.035 1.655-4.153 2.868a10.36 10.36 0 00-1.03 1.288c-1.09 1.619-1.66 3.459-1.653 5.332a6.87 6.87 0 01-1.03 3.582c-.735 1.212-1.838 2.228-3.192 2.936a9.708 9.708 0 01-4.487 1.083 9.709 9.709 0 01-4.488-1.083c-1.353-.709-2.457-1.724-3.191-2.936a11.38 11.38 0 01-1.66 3.028c1.118 1.212 2.538 2.19 4.154 2.863a13.51 13.51 0 005.179 1.022c1.793 0 3.563-.35 5.179-1.022 1.616-.673 3.035-1.651 4.154-2.863a12.027 12.027 0 001.027-1.292c1.09-1.611 1.663-3.445 1.66-5.312 0-.86.166-1.716.494-2.53l.004-.006zM1.683 3.496a9.75 9.75 0 014.482 1.091C7.517 5.296 8.62 6.31 9.356 7.52c.387-1.071.946-2.09 1.66-3.027C9.899 3.279 8.479 2.3 6.864 1.626A13.526 13.526 0 001.683.6a1.8 1.8 0 00-1.132.448c-.297.27-.463.628-.463 1 0 .373.166.73.463 1a1.8 1.8 0 001.132.448zm12.523 5.076a7.24 7.24 0 01.532-1.053c.733-1.213 1.837-2.23 3.19-2.938a9.704 9.704 0 014.489-1.084c1.582 0 3.135.375 4.488 1.084 1.354.709 2.457 1.725 3.19 2.938a11.217 11.217 0 011.661-3.027c-1.118-1.213-2.538-2.193-4.153-2.866a13.5 13.5 0 00-5.18-1.023 13.5 13.5 0 00-5.18 1.023c-1.616.673-3.036 1.653-4.154 2.866a10.31 10.31 0 00-1.027 1.288c-1.089 1.613-1.662 3.447-1.66 5.315a6.66 6.66 0 01-.498 2.526 6.684 6.684 0 01-.548 1.063c-.735 1.213-1.838 2.23-3.19 2.94a9.752 9.752 0 01-4.487 1.097 1.8 1.8 0 00-1.132.448c-.297.27-.463.627-.463 1 0 .372.166.73.463 1a1.8 1.8 0 001.132.448 13.534 13.534 0 005.18-1.027c1.615-.674 3.035-1.653 4.154-2.865a10.78 10.78 0 001.03-1.292c1.087-1.612 1.659-3.445 1.657-5.311a6.662 6.662 0 01.498-2.53m130.103 10.623a.455.455 0 00.164.325.605.605 0 00.377.14h2.571c.07 0 .141-.012.206-.035a.554.554 0 00.176-.1.466.466 0 00.117-.152.413.413 0 00.041-.178V8.673h.027l11.85 11.252h.68a.573.573 0 00.358-.133.433.433 0 00.156-.308V2.988a.452.452 0 00-.162-.325.598.598 0 00-.375-.142h-2.606a.586.586 0 00-.382.137.439.439 0 00-.158.33v10.125h-.027L145.53 2.282h-.707a.575.575 0 00-.36.13.437.437 0 00-.162.307v16.496zm-18.647 0c0 .123.057.241.157.328a.584.584 0 00.38.136h11.499a.583.583 0 00.38-.136.437.437 0 00.157-.328v-2.018a.435.435 0 00-.163-.32.582.582 0 00-.374-.13h-8.376v-4.3h7a.58.58 0 00.379-.136.433.433 0 00.157-.328V9.948a.455.455 0 00-.163-.323.606.606 0 00-.373-.141h-7V5.447h8.376a.583.583 0 00.38-.136.437.437 0 00.157-.328V2.965a.44.44 0 00-.165-.316.584.584 0 00-.372-.128h-11.519a.582.582 0 00-.379.136.433.433 0 00-.157.328l.019 16.23zm-14.031.44a.454.454 0 00.191.2.56.56 0 00.287.07h.284a.565.565 0 00.29-.07.464.464 0 00.193-.2l8.788-16.482a.386.386 0 00.061-.224.394.394 0 00-.082-.22.483.483 0 00-.199-.152.571.571 0 00-.262-.043h-2.928a.584.584 0 00-.288.074.477.477 0 00-.194.199l-5.445 10.538h-.198l-5.445-10.538a.47.47 0 00-.194-.199.581.581 0 00-.288-.074h-2.893a.571.571 0 00-.262.043.483.483 0 00-.199.152.385.385 0 00-.021.444l8.804 16.483zm-20.455-5.832l2.776-5.382h.086l2.835 5.382h-5.697zM85.1 19.679h2.466a.949.949 0 00.5-.13.76.76 0 00.32-.357l1.388-2.651h8.478l1.388 2.65a.721.721 0 00.314.366.909.909 0 00.507.122h2.466c.09.008.18-.007.261-.04a.484.484 0 00.201-.152.399.399 0 00.081-.22.392.392 0 00-.061-.223L94.68 2.56a.435.435 0 00-.19-.203.541.541 0 00-.293-.066h-.28a.562.562 0 00-.29.069.455.455 0 00-.192.2l-8.816 16.483a.384.384 0 00.02.443c.05.065.119.118.2.151a.566.566 0 00.262.041zm-27.07-.561a.389.389 0 00-.006.211c.017.07.054.136.107.19.053.056.12.099.197.127a.59.59 0 00.242.033h2.551a.6.6 0 00.326-.109.47.47 0 00.183-.257l1.645-9.294h.086l5.017 9.633a.456.456 0 00.192.2.562.562 0 00.29.07h.51a.545.545 0 00.291-.067.44.44 0 00.19-.203l4.959-9.634h.085l1.673 9.291c.037.1.108.189.204.254a.67.67 0 00.332.113h2.583a.56.56 0 00.24-.032.488.488 0 00.192-.128.398.398 0 00.098-.193.37.37 0 00-.021-.209L76.853 2.632a.406.406 0 00-.176-.262.531.531 0 00-.334-.088h-.455a.553.553 0 00-.285.056.454.454 0 00-.197.186l-6.222 11.571h-.086l-6.222-11.57a.48.48 0 00-.211-.19.581.581 0 00-.299-.053h-.45a.53.53 0 00-.34.095.4.4 0 00-.17.272L58.03 19.117z"/></g><defs><clipPath id="clip0"><path fill="#fff" transform="translate(.024 .6)" d="M0 0h161.008v21H0z"/></clipPath></defs></svg>