<svg width="32" height="24" fill="none" xmlns="http://www.w3.org/2000/svg"><path d="M32 2.862c-1.197.46-2.392.83-3.789.923A6.078 6.078 0 0031.104.462c-1.297.737-2.693 1.2-4.188 1.476A6.665 6.665 0 0022.231 0c-3.589 0-6.58 2.678-6.58 6.092 0 .462.099.923.199 1.383C10.367 7.2 5.583 4.8 2.293 1.108a5.486 5.486 0 00-.898 3.046c0 2.122 1.196 3.969 2.891 5.077a6.467 6.467 0 01-2.99-.739v.093c0 2.953 2.293 5.353 5.284 5.906-.6.093-1.097.186-1.696.186-.398 0-.798 0-1.197-.093.798 2.399 3.29 4.154 6.082 4.245-2.193 1.663-5.085 2.586-8.175 2.586-.497 0-1.096 0-1.594-.093C2.99 22.985 6.48 24 10.168 24 22.231 24 28.81 14.768 28.81 6.74V6c1.196-.923 2.292-1.939 3.19-3.138z" fill="#00856F"/></svg>