<svg width="16" height="14" fill="none" xmlns="http://www.w3.org/2000/svg"><path d="M15.792 2.134a6.346 6.346 0 01-1.837.507A3.224 3.224 0 0015.361.86a6.375 6.375 0 01-2.03.78A3.184 3.184 0 0010.997.625C9.23.625 7.8 2.066 7.8 3.844c0 .252.028.498.083.733a9.055 9.055 0 01-6.59-3.363A3.222 3.222 0 00.86 2.832c0 1.117.565 2.102 1.422 2.68a3.158 3.158 0 01-1.448-.404v.041c0 1.56 1.102 2.86 2.565 3.156a3.166 3.166 0 01-1.444.056 3.203 3.203 0 002.987 2.235 6.388 6.388 0 01-4.734 1.333 9 9 0 004.9 1.446c5.881 0 9.097-4.905 9.097-9.158a9.6 9.6 0 00-.009-.417 6.508 6.508 0 001.596-1.666z" fill="#fff"/></svg>