<svg width="20" height="14" fill="none" xmlns="http://www.w3.org/2000/svg"><path d="M.223 6.962C.104 3.76 2.854.802 5.998.763c1.602-.139 3.16.495 4.373 1.53a27.93 27.93 0 01-1.544 1.624c-1.068-.66-2.353-1.165-3.6-.717-2.012.584-3.23 3.006-2.486 5.013.617 2.096 3.117 3.246 5.077 2.365 1.014-.37 1.683-1.325 1.977-2.35-1.163-.024-2.326-.01-3.49-.042-.002-.705-.005-1.408-.002-2.113 1.94-.003 3.881-.01 5.824.008.119 1.729-.131 3.578-1.233 4.966-1.51 1.98-4.297 2.561-6.566 1.784C1.921 12.025.171 9.553.223 6.961zm15.684-2.668h1.73l.011 1.772c.579.006 1.16.01 1.739.012v1.767l-1.739.009c-.006.593-.008 1.182-.012 1.775-.578-.003-1.157 0-1.732 0-.006-.593-.006-1.182-.012-1.772-.578-.006-1.16-.01-1.739-.012V6.078c.579-.003 1.158-.006 1.739-.012.003-.59.009-1.182.015-1.772z" fill="#666"/></svg>