<svg width="18" height="18" fill="none" xmlns="http://www.w3.org/2000/svg"><path fill-rule="evenodd" clip-rule="evenodd" d="M5.813.5h6.375A5.313 5.313 0 0117.5 5.813v6.375a5.313 5.313 0 01-5.313 5.312H5.814A5.313 5.313 0 01.5 12.187V5.814A5.313 5.313 0 015.813.5zm6.375 15.406a3.723 3.723 0 003.718-3.719V5.814a3.723 3.723 0 00-3.719-3.72H5.814a3.723 3.723 0 00-3.72 3.72v6.375a3.723 3.723 0 003.72 3.718h6.375z" fill="#666"/><path fill-rule="evenodd" clip-rule="evenodd" d="M4.75 9a4.25 4.25 0 118.5 0 4.25 4.25 0 01-8.5 0zm1.594 0A2.66 2.66 0 009 11.656 2.66 2.66 0 0011.656 9 2.66 2.66 0 009 6.344 2.66 2.66 0 006.344 9z" fill="#666"/><path d="M13.604 5.458a1.063 1.063 0 100-2.125 1.063 1.063 0 000 2.125z" fill="#666"/></svg>