<svg width="20" height="12" fill="none" xmlns="http://www.w3.org/2000/svg"><path fill-rule="evenodd" clip-rule="evenodd" d="M8.225 5.399s1.74-.124 1.74-2.112c0-1.981-1.423-2.954-3.23-2.954H.792v11.098h5.943s3.63.108 3.63-3.278c0 0 .156-2.754-2.14-2.754zm2.59 2.02c0-.022.006-4.261 4.387-4.261 4.625 0 3.975 4.817 3.975 4.817h-5.915c0 2.058 2.007 1.928 2.007 1.928 1.9 0 1.834-1.194 1.834-1.194h2.007c0 3.17-3.908 2.955-3.908 2.955-4.687 0-4.387-4.245-4.387-4.245zm4.431-2.636c-1.762 0-2.007 1.707-2.007 1.707h3.747s.028-1.707-1.74-1.707zM6.735 2.304H3.41v2.479h3.12c.54 0 1.012-.168 1.012-1.323 0-1.156-.806-1.156-.806-1.156zM6.568 9.46H3.41V6.49h3.325s1.206-.011 1.2 1.528c0 1.296-.894 1.431-1.367 1.442zm6.176-7.107V.987h4.715v1.366h-4.715z" fill="#666"/></svg>