<?xml version="1.0" standalone="no"?>
<!DOCTYPE svg PUBLIC "-//W3C//DTD SVG 20010904//EN"
 "http://www.w3.org/TR/2001/REC-SVG-20010904/DTD/svg10.dtd">
<svg version="1.0" xmlns="http://www.w3.org/2000/svg"
 width="260.000000pt" height="260.000000pt" viewBox="0 0 260.000000 260.000000"
 preserveAspectRatio="xMidYMid meet">
<metadata>
Created by potrace 1.11, written by Peter Selinger 2001-2013
</metadata>
<g transform="translate(0.000000,260.000000) scale(0.100000,-0.100000)"
fill="#000000" stroke="none">
<path d="M142 2591 c-11 -7 -10 -10 3 -15 24 -9 32 -7 15 4 -8 5 -10 10 -5 10
6 0 17 -5 25 -10 11 -7 11 -10 2 -10 -7 0 -11 -4 -8 -8 6 -10 -25 -9 -42 2
-15 9 -16 -6 -1 -21 7 -7 3 -9 -15 -6 -17 4 -26 1 -26 -7 0 -7 -7 -10 -17 -6
-15 5 -14 3 2 -10 20 -16 20 -16 -3 -11 -15 3 -22 1 -22 -9 0 -8 -5 -14 -12
-14 -6 0 -8 -3 -5 -6 4 -4 14 -1 23 7 16 13 16 12 3 -8 -7 -13 -18 -22 -24
-22 -5 1 -15 1 -22 0 -9 -1 -12 -267 -11 -1137 0 -962 2 -1136 14 -1141 8 -3
11 -9 8 -14 -3 -5 -2 -9 3 -8 21 4 32 -3 38 -22 4 -12 12 -18 21 -15 7 3 16 0
20 -6 4 -6 3 -8 -2 -5 -6 3 -16 2 -24 -4 -12 -7 -10 -9 8 -9 12 0 22 -5 22
-11 0 -6 7 -9 15 -6 8 4 17 2 20 -4 4 -5 11 -6 17 -3 7 4 8 2 4 -5 -6 -9 -11
-9 -22 0 -10 8 -14 8 -14 0 0 -12 10 -14 48 -13 12 1 22 -3 22 -9 0 -6 -5 -7
-12 -3 -7 4 -8 3 -4 -4 5 -9 13 -9 27 -2 10 6 19 7 19 2 0 -5 -10 -13 -22 -19
-16 -7 -3 -9 53 -9 62 1 75 4 75 17 0 10 -6 15 -13 12 -7 -3 -13 -9 -13 -13 0
-9 -26 -7 -36 3 -4 4 -13 2 -21 -5 -7 -6 -16 -8 -20 -4 -3 3 -1 6 5 6 6 0 9 8
6 18 -5 13 -4 14 4 3 7 -9 12 -10 16 -2 4 6 13 11 19 11 7 0 6 -4 -3 -10 -13
-8 -12 -10 3 -10 10 0 28 5 39 11 16 9 23 8 29 -2 7 -12 9 -12 9 0 0 8 3 11 7
8 3 -4 12 -2 20 4 7 6 13 9 13 5 0 -3 9 3 20 14 31 31 24 34 -14 5 -22 -17
-37 -22 -41 -15 -3 6 -3 9 2 8 14 -4 54 23 48 32 -3 5 3 7 14 5 11 -2 22 3 25
11 3 9 11 12 17 8 7 -4 7 1 -1 16 -7 12 -8 20 -2 16 5 -3 22 4 37 16 l28 22
-21 17 c-18 14 -19 18 -6 23 8 3 13 2 10 -2 -3 -5 1 -9 9 -9 9 0 11 5 7 11
-10 14 -9 47 2 65 6 9 5 12 -2 7 -6 -3 -16 2 -22 13 -9 17 -8 19 5 15 8 -4 15
-1 15 5 0 6 -4 11 -9 11 -5 0 -12 7 -15 16 -5 13 -4 14 7 6 10 -9 14 -8 14 3
0 8 -4 15 -8 15 -4 0 -6 8 -4 17 1 10 8 17 15 15 6 -1 9 2 5 8 -3 6 -10 8 -15
5 -4 -3 -10 2 -14 10 -3 8 0 17 6 21 6 4 8 3 5 -3 -3 -5 0 -10 8 -10 9 0 11 4
6 11 -5 6 -7 19 -5 29 1 11 -2 17 -10 14 -6 -3 -12 3 -12 14 0 12 4 15 11 9 8
-7 12 -5 12 5 0 8 -4 15 -8 15 -4 0 -6 8 -4 18 1 9 8 16 14 14 8 -1 9 3 3 15
-4 10 -8 25 -7 33 1 8 -2 23 -7 32 -5 10 -4 20 4 24 6 4 8 3 4 -4 -3 -6 -2
-13 3 -16 5 -4 8 2 6 11 -1 11 -10 17 -21 16 -17 -1 -17 0 -3 10 9 7 14 22 12
35 -2 17 1 21 9 16 10 -6 10 -5 1 8 -7 8 -10 18 -6 21 3 4 1 7 -4 7 -6 0 -10
8 -8 18 1 9 8 16 15 14 6 -1 8 3 5 9 -13 20 -15 80 -3 73 7 -4 8 -3 4 5 -4 6
-13 8 -19 4 -7 -4 -5 2 3 12 9 11 10 16 3 11 -7 -4 -13 -2 -13 3 0 6 5 11 11
11 5 0 7 5 4 10 -4 6 -11 7 -17 4 -7 -4 -8 -2 -4 5 4 6 11 9 16 6 4 -3 7 16 6
42 -1 26 -7 48 -14 51 -16 5 -16 23 0 19 7 -1 12 7 13 18 0 11 4 26 8 33 5 7
5 12 0 11 -4 -1 -15 -1 -23 0 -13 1 -13 3 0 10 8 6 18 7 24 4 5 -4 6 -1 2 6
-5 7 -15 10 -25 7 -15 -6 -15 -5 0 6 9 7 14 23 12 36 -2 17 1 21 9 16 10 -6
10 -5 1 8 -7 8 -10 18 -6 21 3 4 1 7 -4 7 -6 0 -10 8 -8 18 1 9 8 16 15 14 6
-1 8 3 5 9 -13 20 -15 80 -3 73 7 -4 8 -3 4 5 -4 6 -13 8 -19 4 -7 -4 -5 2 3
12 9 11 10 16 2 11 -6 -4 -12 -2 -12 3 0 6 5 11 11 11 5 0 7 5 4 10 -4 6 -11
7 -17 4 -7 -4 -8 -2 -4 5 4 6 12 8 18 5 6 -4 8 -1 6 7 -3 8 -11 13 -17 11 -7
-1 -10 2 -6 8 3 6 11 8 16 5 5 -4 9 -1 9 4 0 6 -6 11 -12 11 -9 0 -8 4 2 10
12 8 12 10 -5 10 -16 0 -17 2 -5 9 8 6 18 7 24 4 5 -3 6 -1 2 6 -4 6 -11 9
-15 7 -4 -3 -6 5 -5 17 1 12 3 22 4 22 1 0 3 8 5 18 2 9 0 15 -5 12 -4 -3 -11
2 -14 11 -3 8 -2 12 4 9 6 -3 10 1 10 10 0 10 -5 14 -12 10 -7 -4 -5 0 4 8 10
8 15 16 12 19 -2 3 2 8 10 11 10 4 13 1 9 -9 -5 -12 13 -19 40 -15 4 0 7 -4 7
-10 0 -5 6 -7 13 -3 6 4 9 4 5 -1 -4 -4 -2 -15 4 -24 9 -11 6 -10 -9 2 -14 12
-23 15 -28 7 -4 -6 -1 -9 7 -8 7 2 12 -4 12 -13 -1 -12 4 -15 19 -11 13 3 18
1 13 -6 -5 -8 -2 -10 8 -6 9 3 16 1 16 -4 0 -6 -8 -13 -17 -15 -11 -3 -7 -5
10 -6 15 0 27 -5 27 -11 0 -5 6 -10 14 -10 8 0 17 -7 20 -16 5 -14 4 -15 -9
-4 -9 7 -18 10 -22 6 -3 -3 -1 -6 6 -6 7 0 10 -4 7 -9 -4 -5 5 -8 19 -6 21 2
23 0 13 -12 -9 -11 -8 -13 2 -11 8 2 14 -4 15 -12 0 -10 9 -14 28 -13 15 1 27
-2 27 -8 0 -6 -4 -8 -9 -5 -5 3 -11 -1 -15 -9 -3 -8 0 -14 7 -12 7 1 11 -4 9
-11 -1 -8 2 -11 8 -7 6 3 7 11 4 17 -4 7 -2 8 4 4 7 -4 12 -17 12 -29 0 -18 2
-19 10 -7 7 11 10 11 10 2 0 -7 4 -11 9 -8 4 3 7 -6 6 -19 -2 -14 2 -23 8 -22
7 1 11 -4 9 -11 -1 -8 2 -11 8 -7 5 3 13 -1 16 -10 4 -11 13 -14 28 -9 21 6
21 6 1 -9 -18 -14 -18 -15 8 -12 15 2 25 -1 22 -6 -11 -16 14 -49 32 -42 11 4
14 3 9 -5 -6 -11 12 -17 37 -13 5 1 6 -3 2 -9 -3 -5 1 -13 10 -16 13 -6 14 -8
3 -15 -8 -6 -9 -12 -3 -16 13 -11 18 -36 5 -28 -5 3 -10 1 -10 -4 0 -6 5 -11
10 -11 6 0 10 -5 10 -11 0 -5 -6 -7 -12 -3 -9 5 -9 2 1 -9 7 -9 10 -17 7 -17
-4 0 -2 -9 4 -20 9 -16 8 -18 -5 -14 -8 4 -15 2 -16 -2 0 -5 -2 -17 -4 -26 -2
-11 2 -15 11 -11 10 4 12 0 8 -11 -3 -9 0 -23 7 -32 10 -12 10 -15 -1 -12 -8
2 -15 -3 -16 -9 -1 -7 -2 -18 -3 -24 0 -5 -6 -7 -13 -3 -7 4 -8 3 -4 -5 6 -9
11 -9 21 -1 11 9 13 6 11 -17 -1 -15 -8 -39 -15 -53 -11 -21 -11 -23 0 -12 7
6 18 12 24 12 5 0 4 -4 -4 -9 -12 -8 -13 -12 -1 -26 10 -13 11 -15 1 -13 -7 2
-15 -7 -17 -20 -3 -16 0 -21 8 -16 8 5 9 2 5 -10 -4 -10 -7 -21 -7 -24 0 -4
-5 0 -11 8 -9 13 -10 13 -6 0 2 -8 13 -14 23 -13 18 1 18 1 2 -11 -20 -15 -25
-31 -5 -20 6 4 4 -2 -6 -13 -11 -13 -14 -23 -8 -27 5 -4 8 -15 6 -26 -2 -12 0
-18 6 -15 5 4 6 11 3 17 -4 6 -2 8 4 5 5 -4 8 -16 5 -27 -3 -12 0 -20 7 -20
10 0 10 -3 1 -14 -9 -11 -9 -16 0 -22 7 -4 10 -3 7 2 -3 5 1 16 10 24 14 13
15 12 9 -4 -8 -20 10 -59 23 -51 6 3 7 -1 3 -11 -5 -13 -2 -15 15 -9 14 4 22
2 22 -5 0 -6 -4 -8 -10 -5 -5 3 -10 1 -10 -4 0 -6 5 -12 10 -12 6 -1 14 -2 19
-3 5 0 13 -5 18 -10 4 -5 3 -6 -4 -2 -6 3 -14 2 -17 -3 -7 -10 13 -9 31 2 6 4
14 3 18 -3 4 -6 11 -7 17 -4 7 4 8 2 4 -5 -6 -8 -12 -9 -20 -2 -9 8 -13 7 -13
-4 0 -8 4 -12 8 -9 4 2 10 0 14 -5 3 -6 13 -7 22 -4 9 4 14 2 10 -3 -3 -5 3
-10 13 -10 14 0 16 3 8 13 -15 18 -3 16 16 -3 9 -8 16 -11 16 -5 0 6 4 11 10
11 5 0 7 -8 4 -18 -5 -13 -4 -14 4 -3 6 8 15 10 23 5 12 -6 12 -5 1 8 -10 13
-10 18 -1 24 7 4 9 3 6 -3 -4 -6 0 -14 9 -17 12 -5 14 -1 9 17 -7 22 -7 22 8
2 14 -19 16 -19 22 -3 4 10 11 15 16 12 5 -3 6 -10 3 -16 -4 -7 -2 -8 5 -4 6
4 9 11 6 15 -2 5 5 17 18 27 12 10 16 12 10 4 -20 -22 -15 -32 5 -12 10 9 16
24 13 32 -4 13 -3 13 14 0 17 -14 18 -14 5 10 -12 22 -12 24 2 12 13 -10 18
-10 24 -1 4 8 3 9 -4 5 -7 -4 -12 -2 -12 3 0 11 15 15 35 11 5 -1 7 2 3 6 -4
4 -3 14 4 21 9 11 9 17 -3 24 -14 8 -12 10 13 13 7 0 13 12 13 26 0 15 -5 24
-12 22 -7 -1 -13 2 -13 8 0 5 7 10 16 10 8 0 12 5 9 10 -4 6 -11 7 -17 4 -7
-5 -8 -2 -4 5 5 7 15 10 23 6 13 -4 14 -3 4 9 -7 8 -9 21 -5 27 4 8 3 9 -4 5
-7 -4 -12 -1 -12 9 0 9 4 14 9 10 5 -3 13 -1 16 5 4 6 1 9 -6 8 -7 -2 -15 5
-17 16 -2 10 0 16 5 13 17 -11 7 32 -13 54 l-19 22 30 -19 30 -18 -20 24 c-11
13 -14 20 -6 15 9 -5 12 -3 9 6 -3 8 -11 13 -17 11 -6 -1 -11 2 -11 8 0 5 8
10 18 10 16 1 16 1 0 11 -9 5 -15 16 -12 24 4 8 10 12 15 9 5 -3 9 -1 9 5 0 5
-6 11 -12 14 -10 3 -10 9 0 27 10 16 11 25 3 33 -15 15 -14 30 2 21 9 -6 9 -5
0 7 -7 8 -12 24 -11 34 0 11 0 25 -2 30 -6 22 1 55 11 55 5 0 8 -4 4 -9 -3 -5
-1 -12 4 -15 11 -7 9 13 -3 33 -7 11 -5 13 7 8 11 -4 14 -2 10 9 -4 10 0 12
11 8 15 -6 22 10 17 38 0 4 7 4 16 1 11 -4 14 -3 9 5 -5 8 0 12 12 12 26 0 45
23 31 37 -8 8 -7 13 2 18 8 5 10 4 5 -3 -4 -7 -2 -12 3 -12 11 0 15 13 12 40
-2 13 -1 13 8 0 5 -8 7 -18 4 -24 -3 -5 -1 -6 5 -2 7 4 12 16 12 28 0 18 2 19
17 7 15 -13 15 -12 3 11 -12 23 -12 24 4 11 14 -12 16 -12 11 1 -3 8 4 23 17
34 l23 19 -18 -22 c-14 -16 -15 -23 -6 -29 8 -4 10 -3 5 5 -4 6 0 14 8 17 9 3
16 10 16 16 0 5 7 16 15 25 8 8 13 18 10 23 -3 4 5 6 17 3 22 -5 22 -5 4 9
-18 14 -18 15 5 14 16 -1 23 4 21 13 -3 12 -1 12 14 0 16 -13 16 -12 4 11 -12
23 -12 24 4 11 14 -12 16 -12 10 4 -5 12 -4 16 3 12 6 -4 14 0 17 9 3 8 10 13
15 9 14 -8 32 30 25 52 -6 16 -5 16 9 -2 14 -18 15 -18 12 13 -1 17 1 29 5 27
12 -7 41 6 35 15 -3 5 -1 11 4 14 5 4 12 2 16 -4 4 -6 11 -7 17 -4 7 4 8 2 4
-5 -4 -6 -11 -9 -15 -7 -4 3 -8 -1 -8 -8 0 -8 8 -11 18 -9 20 6 34 -13 18 -23
-8 -5 -9 -3 -4 7 5 8 4 10 0 6 -17 -15 -14 -39 3 -33 15 5 15 4 0 -8 -10 -7
-18 -16 -18 -20 0 -3 8 -6 18 -7 13 0 14 -2 2 -6 -8 -3 -18 -11 -22 -16 -9
-15 2 -38 16 -30 6 4 5 -1 -3 -10 -7 -9 -17 -15 -21 -12 -5 3 -3 -6 3 -19 7
-13 14 -23 18 -21 3 2 6 -3 6 -11 0 -8 -6 -13 -13 -10 -8 3 -11 0 -7 -9 3 -8
8 -13 12 -10 4 2 8 -2 8 -10 0 -8 -4 -12 -9 -9 -4 3 -8 -2 -8 -11 0 -9 4 -14
8 -11 5 3 9 -2 9 -10 0 -8 -6 -13 -13 -10 -8 3 -11 0 -7 -9 3 -8 8 -13 12 -10
4 2 8 -2 8 -10 0 -8 -4 -12 -9 -9 -4 3 -8 -2 -8 -11 0 -9 4 -14 8 -11 5 3 9
-2 9 -10 0 -8 -6 -13 -13 -10 -8 3 -11 0 -7 -9 3 -8 8 -13 12 -10 4 2 8 -2 8
-10 0 -8 -4 -12 -9 -9 -4 3 -8 -2 -8 -11 0 -9 4 -14 8 -11 5 3 9 -2 9 -10 0
-8 -6 -13 -13 -10 -8 3 -11 0 -7 -9 3 -8 10 -12 15 -9 6 4 3 -4 -6 -17 -11
-18 -12 -28 -5 -39 9 -13 10 -12 5 2 -3 10 -2 20 3 22 11 7 10 -27 -1 -41 -6
-7 -15 -10 -20 -7 -6 4 -4 -4 2 -17 18 -34 24 -38 16 -11 -4 12 -3 22 2 22 12
0 10 -30 -5 -56 -8 -14 -8 -25 -1 -35 8 -11 9 -11 4 3 -3 10 -2 20 3 22 11 7
10 -27 -1 -41 -6 -7 -15 -10 -20 -7 -6 4 -4 -4 2 -17 18 -34 24 -38 16 -11 -4
12 -3 22 2 22 11 0 12 -32 0 -46 -13 -17 -19 -56 -7 -49 5 4 7 10 4 15 -3 5
-2 11 3 14 19 11 9 -35 -11 -49 -12 -8 -16 -15 -9 -15 6 0 12 -7 12 -16 0 -8
4 -13 8 -10 5 3 9 -2 9 -10 0 -8 -6 -13 -13 -10 -8 3 -11 0 -7 -9 3 -8 8 -13
12 -10 4 2 8 -2 8 -10 0 -8 -4 -12 -9 -9 -4 3 -8 -2 -8 -11 0 -9 4 -14 8 -11
5 3 9 -2 9 -10 0 -8 -6 -13 -13 -10 -8 3 -11 0 -7 -9 3 -8 8 -13 12 -10 4 2 8
-2 8 -10 0 -8 -4 -12 -9 -9 -4 3 -8 -2 -8 -11 0 -9 4 -14 8 -11 5 3 9 -2 9
-10 0 -8 -6 -13 -13 -10 -8 3 -11 0 -7 -9 3 -8 8 -13 12 -10 4 2 8 -2 8 -10 0
-8 -4 -12 -9 -9 -4 3 -8 -2 -8 -11 0 -9 4 -14 8 -11 5 3 9 -2 9 -10 0 -8 -6
-13 -13 -10 -8 3 -11 0 -7 -9 3 -8 10 -12 15 -9 6 4 3 -4 -6 -17 -11 -18 -12
-28 -5 -39 9 -13 10 -12 5 2 -3 10 -2 20 3 22 11 7 10 -27 -1 -41 -6 -7 -15
-10 -20 -7 -6 4 -4 -4 2 -17 18 -34 24 -38 16 -11 -4 12 -3 22 2 22 12 0 10
-30 -5 -56 -8 -14 -8 -25 -1 -35 8 -11 9 -11 4 3 -3 10 -1 20 3 22 12 8 8 -25
-6 -50 -8 -14 -8 -25 -1 -35 8 -11 9 -11 4 3 -3 10 -2 20 3 22 11 7 10 -26 -1
-40 -13 -17 -19 -56 -7 -49 5 4 7 10 4 15 -3 5 -2 11 3 14 11 7 12 -26 1 -39
-7 -9 -7 -21 0 -54 1 -2 7 2 15 8 11 9 16 9 22 0 4 -8 3 -9 -4 -5 -7 4 -12 1
-12 -9 0 -8 7 -18 15 -21 8 -4 15 -14 15 -23 0 -14 -2 -14 -10 -1 -5 8 -10 10
-10 4 0 -6 7 -17 15 -24 8 -7 13 -16 10 -19 -2 -4 2 -8 10 -8 13 0 13 3 -1 18
-10 11 -12 19 -4 24 6 3 9 3 8 -2 -5 -14 29 -54 43 -50 8 2 10 2 6 -1 -5 -2 1
-11 13 -19 15 -11 24 -12 34 -4 9 8 13 7 13 -4 0 -8 -4 -12 -9 -9 -4 3 -8 0
-8 -7 0 -8 -4 -8 -15 1 -10 9 -15 9 -15 1 0 -14 -4 -14 137 -16 113 -2 121 -1
118 17 -2 10 -7 23 -11 29 -4 7 2 7 16 -1 20 -11 22 -10 16 5 -6 16 -4 16 11
4 11 -9 14 -10 9 -2 -4 7 -2 13 3 13 6 0 11 -5 11 -12 0 -6 3 -8 7 -5 3 4 -2
16 -11 26 -17 19 -17 19 6 14 12 -3 20 -2 16 2 -4 5 -3 14 3 22 10 11 15 11
28 1 14 -12 14 -11 2 4 -9 12 -10 18 -2 18 6 0 11 5 11 11 0 5 -4 7 -10 4 -6
-3 -7 1 -4 9 3 9 10 16 16 16 5 0 6 -4 3 -10 -3 -5 -1 -10 4 -10 17 0 13 21
-6 36 -15 12 -16 13 -2 8 16 -5 17 78 17 1096 -1 851 -3 1100 -13 1097 -6 -3
-12 1 -12 8 0 7 6 11 14 8 7 -3 13 0 13 6 0 6 -4 12 -10 12 -5 1 -16 2 -22 3
-7 0 -13 6 -13 13 0 6 -3 15 -7 19 -5 4 -8 12 -8 18 0 6 5 4 11 -4 9 -13 10
-13 6 0 -2 8 -11 14 -20 14 -9 -1 -15 2 -12 6 2 4 -4 18 -15 30 -11 13 -20 27
-20 32 0 5 -5 6 -11 2 -8 -4 -7 -9 2 -15 10 -6 10 -9 2 -9 -20 0 -26 20 -11
38 12 16 11 16 -6 2 -18 -13 -19 -13 -14 0 5 13 -8 16 -84 17 -79 1 -89 -1
-84 -16 5 -14 4 -13 -8 2 -15 20 -32 22 -42 5 -5 -8 -2 -9 9 -5 10 3 17 2 17
-3 0 -6 -9 -10 -20 -10 -11 0 -20 -6 -20 -12 0 -9 -4 -8 -10 2 -7 11 -10 11
-10 2 0 -7 -4 -11 -9 -7 -5 3 -13 0 -17 -6 -4 -7 -3 -9 4 -5 6 3 14 2 17 -4 4
-6 3 -10 -2 -9 -22 4 -34 -2 -27 -13 5 -9 2 -8 -9 1 -15 12 -17 12 -11 -2 4
-13 1 -15 -17 -12 -17 4 -20 2 -11 -7 18 -18 14 -32 -4 -17 -15 12 -16 11 -9
-11 7 -22 6 -23 -8 -12 -13 11 -18 10 -29 -7 -8 -12 -18 -18 -23 -13 -5 4 -5
1 -1 -6 4 -7 11 -10 16 -7 5 3 12 1 15 -5 4 -6 3 -10 -2 -9 -4 1 -17 1 -28 0
-17 -1 -18 -3 -5 -11 13 -8 12 -10 -3 -10 -10 0 -16 -4 -13 -8 2 -4 0 -14 -6
-22 -8 -13 -9 -12 -5 2 3 9 1 15 -6 14 -26 -4 -35 -17 -31 -44 5 -26 4 -26 -9
-7 -14 18 -15 18 -13 -5 1 -18 -4 -24 -15 -22 -9 1 -16 -3 -15 -10 0 -7 -3
-13 -9 -13 -5 0 -9 6 -9 12 1 7 -3 10 -8 7 -5 -3 -7 -16 -4 -29 4 -15 -1 -28
-16 -41 -12 -10 -18 -13 -13 -5 5 9 3 12 -6 9 -8 -3 -13 -13 -11 -23 2 -10 -1
-14 -7 -10 -6 3 -11 2 -11 -3 0 -5 -9 -12 -21 -15 -12 -3 -18 -10 -15 -16 4
-5 1 -13 -5 -17 -7 -4 -9 -3 -5 4 3 6 1 14 -5 18 -7 4 -9 3 -5 -4 3 -6 -2 -15
-11 -21 -10 -6 -13 -11 -8 -11 6 0 11 -8 11 -19 0 -11 -5 -17 -13 -14 -7 3
-10 10 -6 17 3 6 -6 0 -20 -13 -26 -24 -30 -40 -12 -53 7 -5 7 -8 0 -9 -49 -4
-66 -16 -45 -30 12 -8 11 -9 -5 -7 -11 2 -20 -3 -20 -9 0 -15 -13 -18 -23 -7
-4 4 -1 4 6 0 17 -10 15 -1 -3 14 -12 10 -14 8 -10 -9 2 -12 -1 -21 -6 -21 -6
0 -7 -4 -4 -10 3 -5 1 -10 -4 -10 -6 0 -11 5 -11 11 0 5 -5 7 -10 4 -6 -4 -4
-12 5 -21 21 -21 19 -27 -4 -14 -20 10 -33 1 -37 -27 -1 -6 -10 -22 -19 -35
-15 -19 -16 -20 -10 -3 15 43 16 49 3 29 -7 -12 -19 -20 -26 -18 -7 1 -8 0 -2
-3 7 -3 7 -10 -2 -21 -11 -13 -11 -14 1 -7 10 5 12 4 7 -3 -4 -7 -14 -12 -22
-12 -8 0 -13 -4 -9 -9 3 -5 1 -12 -4 -15 -5 -4 -13 -1 -17 5 -5 8 -3 9 6 4 9
-5 11 -4 6 4 -4 6 -12 9 -17 5 -5 -3 -7 -10 -4 -15 4 -5 1 -9 -4 -9 -6 0 -11
-4 -11 -10 0 -5 8 -6 18 -3 9 4 3 -5 -14 -20 -18 -15 -36 -27 -40 -27 -5 0 2
9 15 19 19 14 21 20 10 26 -8 5 -11 5 -7 0 5 -5 -1 -14 -12 -22 -11 -8 -20
-21 -20 -29 0 -8 -4 -12 -10 -9 -5 3 -10 2 -10 -4 0 -5 6 -12 13 -14 9 -4 9
-6 -1 -6 -7 -1 -10 -6 -7 -11 4 -6 1 -9 -7 -8 -7 2 -12 -3 -10 -10 2 -10 -2
-10 -20 0 -13 7 -29 11 -37 9 -7 -1 -11 2 -8 7 4 4 -4 8 -16 8 -16 -1 -21 4
-19 17 2 10 -3 17 -13 17 -8 0 -15 5 -15 11 0 5 6 7 13 3 7 -5 7 -1 -3 12 -22
29 -24 30 -17 12 3 -10 2 -20 -4 -23 -5 -4 -9 -3 -8 2 5 27 -3 43 -21 43 -11
0 -25 9 -32 20 -7 11 -18 20 -25 20 -7 0 -13 5 -13 10 0 16 9 12 35 -15 16
-19 25 -22 31 -14 4 7 3 9 -4 5 -6 -3 -13 2 -17 13 -3 10 -15 21 -26 24 -13 4
-18 10 -13 18 4 8 3 10 -4 5 -7 -4 -12 -2 -12 4 0 6 -4 9 -9 5 -6 -3 -15 4
-21 15 -6 11 -15 18 -21 15 -5 -4 -9 3 -9 14 0 12 -5 21 -11 21 -5 0 -7 -5 -4
-11 4 -6 -2 -5 -14 3 -26 16 -26 24 -3 38 13 8 13 10 2 9 -37 -3 -50 2 -50 21
0 11 -5 20 -11 20 -5 0 -7 -5 -4 -11 4 -6 -2 -5 -14 3 -24 15 -26 24 -9 34 6
4 8 3 4 -4 -3 -6 -2 -13 3 -16 5 -4 8 2 7 11 -2 10 -8 18 -15 18 -15 0 -31 26
-24 39 3 5 1 6 -6 2 -6 -4 -8 -12 -5 -18 5 -7 2 -8 -5 -4 -7 5 -10 15 -6 23 4
13 3 14 -10 3 -12 -10 -16 -9 -21 3 -3 9 -2 22 2 29 6 10 4 10 -9 -1 -16 -12
-21 -8 -18 12 1 4 -7 7 -16 5 -10 -2 -18 2 -18 7 -1 17 -16 36 -24 30 -5 -2
-8 7 -7 22 0 14 -5 28 -11 30 -7 3 -13 0 -13 -7 0 -6 5 -8 12 -4 7 5 8 3 3 -5
-5 -9 -10 -10 -18 -2 -9 9 -8 17 2 34 14 22 14 22 -8 3 -13 -12 -21 -14 -21
-7 0 7 -5 9 -12 5 -6 -4 -8 -3 -5 4 4 5 4 17 1 26 -5 13 -9 14 -20 5 -8 -7
-17 -9 -21 -5 -3 3 -1 6 5 6 7 0 12 7 12 15 0 18 -11 19 -30 3 -12 -11 -12
-10 -2 3 13 18 6 49 -10 49 -7 0 -6 -5 1 -13 8 -10 7 -14 -4 -14 -7 0 -14 3
-13 6 2 22 -4 31 -14 25 -8 -5 -7 0 2 11 9 11 10 16 3 11 -8 -4 -13 -2 -13 4
0 6 -4 8 -10 5 -5 -3 -10 1 -10 11 0 14 -2 15 -17 3 -15 -13 -15 -12 -4 9 7
13 10 26 7 30 -3 3 -6 0 -6 -7 0 -7 -5 -9 -10 -6 -6 4 -7 12 -3 18 4 7 -1 5
-12 -3 -17 -14 -17 -13 -10 8 6 22 5 23 -15 12 -15 -8 -20 -8 -16 -1 4 6 3 11
-2 11 -6 0 -8 10 -6 23 2 12 2 16 -2 10 -3 -7 -9 -13 -14 -13 -10 0 -8 20 4
39 5 8 -3 6 -20 -5 -24 -16 -27 -16 -16 -2 10 12 10 18 1 24 -8 4 -9 3 -5 -4
4 -7 2 -12 -3 -12 -10 0 -16 22 -12 43 1 5 -3 6 -9 2 -6 -3 -8 -11 -5 -16 4
-5 -3 -9 -14 -9 -12 0 -21 -5 -21 -12 0 -6 -2 -9 -5 -6 -9 8 6 38 16 32 5 -3
9 -1 9 4 0 5 -36 10 -81 11 -60 1 -79 -1 -73 -10 5 -8 3 -9 -7 -3 -20 12 -42
14 -57 5z m2303 -31 c3 -17 1 -19 -9 -11 -7 6 -16 7 -21 3 -4 -4 -2 3 6 15 15
25 18 24 24 -7z m-355 -116 c0 -8 -5 -12 -10 -9 -6 4 -8 11 -5 16 9 14 15 11
15 -7z m-2060 -4 c0 -5 -5 -10 -11 -10 -5 0 -7 5 -4 10 3 6 8 10 11 10 2 0 4
-4 4 -10z m1970 -80 c0 -5 -5 -10 -11 -10 -5 0 -7 5 -4 10 3 6 8 10 11 10 2 0
4 -4 4 -10z m-170 -194 c0 -3 -4 -8 -10 -11 -5 -3 -10 -1 -10 4 0 6 5 11 10
11 6 0 10 -2 10 -4z m-35 -44 c-3 -3 -11 0 -18 7 -9 10 -8 11 6 5 10 -3 15 -9
12 -12z m-61 -37 c-4 -8 -11 -15 -16 -15 -6 0 -5 6 2 15 7 8 14 15 16 15 2 0
1 -7 -2 -15z m-844 -19 c0 -3 -4 -8 -10 -11 -5 -3 -10 -1 -10 4 0 6 5 11 10
11 6 0 10 -2 10 -4z m677 -151 c0 -8 -4 -12 -9 -9 -5 3 -6 10 -3 15 9 13 12
11 12 -6z m-482 -63 c-3 -3 -11 0 -18 7 -9 10 -8 11 6 5 10 -3 15 -9 12 -12z
m877 -259 c-6 -2 -9 -10 -6 -15 4 -7 2 -8 -5 -4 -13 9 -5 26 12 25 9 0 8 -2
-1 -6z m132 -51 c3 -5 -1 -9 -9 -9 -8 0 -12 4 -9 9 3 4 7 8 9 8 2 0 6 -4 9 -8z
m-4 -62 c0 -5 -2 -10 -4 -10 -3 0 -8 5 -11 10 -3 6 -1 10 4 10 6 0 11 -4 11
-10z m-1575 -109 c3 -5 2 -12 -3 -15 -5 -3 -9 1 -9 9 0 17 3 19 12 6z m375
-24 c0 -4 5 -5 10 -2 6 3 10 4 10 1 0 -17 -21 -12 -41 11 -23 25 -23 25 -1 12
12 -8 22 -17 22 -22z m-372 -32 c-3 -3 -9 2 -12 12 -6 14 -5 15 5 6 7 -7 10
-15 7 -18z m1156 -27 c-3 -4 -11 -5 -19 -1 -21 7 -19 12 4 10 11 0 18 -5 15
-9z m-706 -33 c-3 -3 -9 2 -12 12 -6 14 -5 15 5 6 7 -7 10 -15 7 -18z m-453
-4 c3 -5 2 -12 -3 -15 -5 -3 -9 1 -9 9 0 17 3 19 12 6z m1045 -225 c0 -3 -4
-8 -10 -11 -5 -3 -10 -1 -10 4 0 6 5 11 10 11 6 0 10 -2 10 -4z m-1040 -20 c0
-3 -4 -8 -10 -11 -5 -3 -10 -1 -10 4 0 6 5 11 10 11 6 0 10 -2 10 -4z m-5
-115 c3 -5 2 -12 -3 -15 -5 -3 -9 1 -9 9 0 17 3 19 12 6z m3 -56 c-3 -3 -9 2
-12 12 -6 14 -5 15 5 6 7 -7 10 -15 7 -18z m1572 5 c0 -5 -2 -10 -4 -10 -3 0
-8 5 -11 10 -3 6 -1 10 4 10 6 0 11 -4 11 -10z m-1575 -69 c3 -5 2 -12 -3 -15
-5 -3 -9 1 -9 9 0 17 3 19 12 6z m545 -107 c0 -8 -19 -13 -24 -6 -3 5 1 9 9 9
8 0 15 -2 15 -3z m-545 -13 c3 -5 2 -12 -3 -15 -5 -3 -9 1 -9 9 0 17 3 19 12
6z m1042 -25 c0 -8 -6 -12 -15 -9 -11 5 -11 7 0 14 7 5 13 9 14 9 0 0 1 -6 1
-14z m-1039 -31 c-3 -3 -9 2 -12 12 -6 14 -5 15 5 6 7 -7 10 -15 7 -18z m1022
-20 c0 -2 -6 -8 -13 -14 -10 -8 -14 -7 -14 2 0 8 6 14 14 14 7 0 13 -1 13 -2z
m-1023 -290 c0 -8 -4 -12 -9 -9 -5 3 -6 10 -3 15 9 13 12 11 12 -6z m-487 -89
c-1 -5 4 -13 12 -17 7 -5 9 -9 3 -9 -5 0 -17 5 -25 10 -13 9 -13 10 0 10 13 0
13 1 0 11 -10 7 -11 9 -2 7 8 -2 13 -7 12 -12z m481 -9 c-14 -14 -43 -18 -35
-6 3 5 10 6 16 3 7 -5 9 -1 5 9 -4 11 -2 14 9 10 11 -4 12 -9 5 -16z m1899
-157 c-6 -11 -13 -20 -16 -20 -2 0 0 9 6 20 6 11 13 20 16 20 2 0 0 -9 -6 -20z
m41 -13 c-8 -8 -14 -7 -23 2 -11 10 -9 11 6 5 15 -6 17 -4 11 6 -6 9 -4 11 4
5 9 -5 10 -10 2 -18z"/>
<path d="M475 2509 c-4 -6 -5 -12 -2 -15 2 -3 7 2 10 11 7 17 1 20 -8 4z"/>
<path d="M2563 2455 c0 -6 10 -11 21 -12 12 -1 15 1 8 4 -6 3 -10 8 -8 12 3 4
-1 8 -8 8 -7 0 -13 -5 -13 -12z"/>
<path d="M1930 2321 c0 -6 4 -13 10 -16 6 -3 7 1 4 9 -7 18 -14 21 -14 7z"/>
<path d="M1873 2245 c0 -8 4 -12 9 -9 5 3 6 10 3 15 -9 13 -12 11 -12 -6z"/>
<path d="M758 2213 c7 -3 16 -2 19 1 4 3 -2 6 -13 5 -11 0 -14 -3 -6 -6z"/>
<path d="M1815 2209 c-4 -6 -5 -12 -2 -15 2 -3 7 2 10 11 7 17 1 20 -8 4z"/>
<path d="M770 2196 c0 -3 9 -10 20 -16 11 -6 20 -8 20 -6 0 3 -9 10 -20 16
-11 6 -20 8 -20 6z"/>
<path d="M1676 2061 c-3 -5 1 -11 9 -14 9 -4 12 -1 8 9 -6 16 -10 17 -17 5z"/>
<path d="M1635 2020 c-3 -5 -1 -10 4 -10 6 0 11 5 11 10 0 6 -2 10 -4 10 -3 0
-8 -4 -11 -10z"/>
<path d="M996 1958 c3 -5 10 -6 15 -3 13 9 11 12 -6 12 -8 0 -12 -4 -9 -9z"/>
<path d="M1330 1701 c0 -7 -5 -9 -12 -5 -7 5 -8 3 -3 -5 5 -9 10 -10 18 -2 6
6 8 14 4 18 -4 3 -7 1 -7 -6z"/>
<path d="M2015 1640 c-3 -5 -1 -10 4 -10 6 0 11 5 11 10 0 6 -2 10 -4 10 -3 0
-8 -4 -11 -10z"/>
<path d="M993 1213 c9 -2 17 -9 17 -14 0 -5 5 -9 11 -9 8 0 8 5 -1 15 -7 8
-20 14 -29 14 -13 -1 -13 -2 2 -6z"/>
<path d="M1025 1089 c-4 -6 -5 -12 -2 -15 2 -3 7 2 10 11 7 17 1 20 -8 4z"/>
<path d="M1565 1080 c3 -5 8 -10 11 -10 2 0 4 5 4 10 0 6 -5 10 -11 10 -5 0
-7 -4 -4 -10z"/>
<path d="M34 129 c-4 -7 -3 -9 4 -5 5 3 13 0 15 -6 4 -9 6 -10 6 -1 1 17 -16
25 -25 12z"/>
</g>
</svg>
